<svg xmlns="http://www.w3.org/2000/svg" version="1.1" viewBox="0 0 336.5607205311243 220.07500394726944" width="336.5607205311243" height="220.07500394726944" class="excalidraw-svg">
  <!-- svg-source:excalidraw -->
  
  <defs>
    <style class="style-fonts">
      @font-face {
        font-family: "Virgil";
        src: url("https://excalidraw.com/Virgil.woff2");
      }
      @font-face {
        font-family: "Cascadia";
        src: url("https://excalidraw.com/Cascadia.woff2");
      }
      @font-face {
        font-family: "Assistant";
        src: url("https://excalidraw.com/Assistant-Regular.woff2");
      }
    </style>
    
  </defs>
  <g stroke-linecap="round" transform="translate(10 10) rotate(0 158.28036026556214 100.03750197363472)"><path d="M0 0 C89.92 -0.21, 178.56 0.32, 316.56 0 M0 0 C109.54 -0.26, 218.33 -0.61, 316.56 0 M316.56 0 C316.39 53.08, 315.46 106.36, 316.56 200.08 M316.56 0 C318.69 69.84, 318.52 141.34, 316.56 200.08 M316.56 200.08 C231.5 197.61, 147.44 198.53, 0 200.08 M316.56 200.08 C229.19 202.83, 141.12 202.81, 0 200.08 M0 200.08 C-0.53 135.65, 1.07 73.36, 0 0 M0 200.08 C-1.95 134.52, -1.86 68.24, 0 0" stroke="#000000" stroke-width="1" fill="none"/></g><g stroke-linecap="round" transform="translate(211.26398566137186 89.89745483609109) rotate(0 20.692307287814312 20.692307287814312)"><path d="M8.77 3.65 C8.77 3.65, 8.77 3.65, 8.77 3.65 M8.77 3.65 C8.77 3.65, 8.77 3.65, 8.77 3.65 M1.29 18.35 C6.41 12.88, 11.94 7.12, 15.72 1.74 M1.29 18.35 C6.38 12.36, 11.06 6.67, 15.72 1.74 M1.69 23.99 C6.43 17.6, 13.03 11.09, 22.68 -0.16 M1.69 23.99 C7.79 16.94, 13.52 10.41, 22.68 -0.16 M2.08 29.63 C7.29 24.04, 12.82 16.76, 26.35 1.71 M2.08 29.63 C6.8 23.18, 11.95 17.53, 26.35 1.71 M5.1 32.26 C9.92 26.21, 16.24 19.78, 30.03 3.58 M5.1 32.26 C13.19 22.5, 22.32 12.88, 30.03 3.58 M8.12 34.88 C16.43 24.98, 24.92 15.31, 33.7 5.45 M8.12 34.88 C13.76 27.99, 19.83 22.05, 33.7 5.45 M11.14 37.51 C19.97 27.6, 30.1 15.85, 36.72 8.07 M11.14 37.51 C20.17 27.2, 29.95 16.87, 36.72 8.07 M14.81 39.38 C20.03 33.25, 23.27 28.34, 38.43 12.21 M14.81 39.38 C23.04 29.77, 30.87 20.81, 38.43 12.21 M19.14 40.49 C22.79 34.85, 29.26 29.3, 40.14 16.34 M19.14 40.49 C26.25 32.31, 32.97 23.87, 40.14 16.34 M24.13 40.85 C30.32 34.28, 35.71 27.76, 41.19 21.23 M24.13 40.85 C29.42 34.59, 36.02 27.93, 41.19 21.23 M33.71 35.93 C34.75 34.59, 36.07 33.07, 38.3 30.64 M33.71 35.93 C34.96 34.52, 36.08 33.06, 38.3 30.64 M12.27 39.24 C12.27 39.24, 12.27 39.24, 12.27 39.24 M12.27 39.24 C12.27 39.24, 12.27 39.24, 12.27 39.24 M18.67 39.5 C14.22 36.95, 10.9 33.2, 2.06 25.06 M18.67 39.5 C12.89 34.63, 7.6 29.94, 2.06 25.06 M25.82 40.42 C18.57 34.82, 12.06 29.61, 0.91 18.77 M25.82 40.42 C17.4 32.32, 8.51 25.44, 0.91 18.77 M29.2 38.05 C20.36 30.09, 11.34 23.8, 1.27 13.78 M29.2 38.05 C19.07 29.04, 9.08 20.77, 1.27 13.78 M32.58 35.69 C26.09 29.7, 20.07 23.81, 3.9 10.76 M32.58 35.69 C26.75 30.01, 20.12 25.48, 3.9 10.76 M35.95 33.33 C27.3 24.49, 16.61 17.97, 5.77 7.08 M35.95 33.33 C25.48 23.61, 14.34 14.42, 5.77 7.08 M38.58 30.31 C29.54 20.87, 18.18 13.47, 8.39 4.07 M38.58 30.31 C32.12 25.3, 26.42 19.67, 8.39 4.07 M39.69 25.98 C34.22 21.72, 29.23 16.8, 11.77 1.7 M39.69 25.98 C30.83 17.99, 21.36 10.45, 11.77 1.7 M40.81 21.65 C33.97 15.65, 27.66 10.59, 16.66 0.65 M40.81 21.65 C35.37 17.26, 31.02 13.02, 16.66 0.65 M40.41 16 C33.63 10.02, 27.64 4.99, 21.55 -0.4 M40.41 16 C35.28 10.99, 29.41 6.86, 21.55 -0.4" stroke="#38ABAB" stroke-width="0.5" fill="none"/><path d="M22.55 -0.19 C26.78 0.04, 32.14 3.22, 35.27 6.34 C38.39 9.46, 40.98 14.15, 41.31 18.54 C41.64 22.93, 39.8 28.98, 37.26 32.67 C34.73 36.36, 30.35 39.62, 26.12 40.67 C21.9 41.71, 15.92 40.81, 11.93 38.94 C7.94 37.07, 4.14 33.4, 2.2 29.44 C0.25 25.48, -0.88 19.53, 0.26 15.17 C1.41 10.81, 5.32 5.85, 9.07 3.31 C12.81 0.77, 20.35 0.47, 22.7 -0.06 C25.06 -0.59, 23.2 -0.22, 23.17 0.14 M23.23 0.26 C27.58 0.58, 32.79 3.43, 35.82 6.71 C38.86 9.99, 41.1 15.63, 41.46 19.94 C41.81 24.24, 40.65 29.03, 37.97 32.52 C35.29 36.01, 29.8 39.64, 25.37 40.86 C20.94 42.09, 15.43 41.83, 11.38 39.86 C7.34 37.89, 2.94 33.28, 1.09 29.02 C-0.77 24.76, -1.23 18.67, 0.24 14.3 C1.7 9.92, 5.99 5.11, 9.87 2.77 C13.76 0.42, 21.25 0.49, 23.56 0.23 C25.86 -0.04, 23.87 0.77, 23.71 1.18" stroke="#000000" stroke-width="1" fill="none"/></g><g stroke-linecap="round" transform="translate(87.11014193448597 89.89745483609109) rotate(0 20.692307287814316 20.692307287814312)"><path d="M6.16 5.35 C6.16 5.35, 6.16 5.35, 6.16 5.35 M6.16 5.35 C6.16 5.35, 6.16 5.35, 6.16 5.35 M-0.01 18.54 C3.87 14.89, 7.46 11.3, 14.42 1.94 M-0.01 18.54 C5.32 11.89, 10.94 5.9, 14.42 1.94 M1.7 22.67 C7.81 15.88, 13.81 8.89, 20.72 0.79 M1.7 22.67 C7.1 16.13, 13.02 9.38, 20.72 0.79 M2.75 27.56 C10.45 19.27, 16.46 10.97, 25.05 1.9 M2.75 27.56 C7.04 21.6, 12.15 16.05, 25.05 1.9 M3.8 32.45 C13.13 22.25, 22.06 12.57, 29.38 3.02 M3.8 32.45 C13.74 21.41, 23.83 10, 29.38 3.02 M6.82 35.08 C15.07 25.49, 23.55 14.17, 33.71 4.13 M6.82 35.08 C15.66 24.88, 25.44 14.44, 33.71 4.13 M10.49 36.95 C16.97 30.77, 21.62 24.2, 36.08 7.51 M10.49 36.95 C17.23 29.94, 23.94 21.55, 36.08 7.51 M13.51 39.57 C21.78 28.27, 31.26 19.5, 37.78 11.65 M13.51 39.57 C21.82 29.48, 30.77 19.79, 37.78 11.65 M17.84 40.68 C24.68 33.41, 31.64 24.74, 40.15 15.02 M17.84 40.68 C26.57 30.33, 35.03 20.81, 40.15 15.02 M23.48 40.29 C29.54 33.55, 35.65 26.41, 40.54 20.67 M23.48 40.29 C29.48 34.29, 35.07 27.4, 40.54 20.67 M29.13 39.9 C33.69 34.61, 37.83 30.01, 39.62 27.82 M29.13 39.9 C33.23 35.1, 37.2 30.34, 39.62 27.82 M3.18 31.4 C3.18 31.4, 3.18 31.4, 3.18 31.4 M3.18 31.4 C3.18 31.4, 3.18 31.4, 3.18 31.4 M19.39 40.19 C14.22 35.23, 7.95 30.1, 1.27 24.45 M19.39 40.19 C13.84 35.63, 8.55 30.37, 1.27 24.45 M24.27 39.14 C19.15 33.89, 14.56 30.77, 0.12 18.15 M24.27 39.14 C16.63 33.36, 10.25 26.79, 0.12 18.15 M29.92 38.75 C23.44 32.78, 18.82 29.34, 1.99 14.47 M29.92 38.75 C22.65 32.62, 15.98 25.78, 1.99 14.47 M32.54 35.73 C23.31 28.47, 14.4 20.01, 3.86 10.8 M32.54 35.73 C23.38 28.12, 15.5 20.73, 3.86 10.8 M35.92 33.37 C29.24 27.26, 24.69 23.43, 5.73 7.12 M35.92 33.37 C28.71 27.69, 22.2 21.72, 5.73 7.12 M38.54 30.35 C31.39 23.99, 26.19 18.54, 8.36 4.11 M38.54 30.35 C29.09 22.17, 19.18 12.96, 8.36 4.11 M39.66 26.02 C31.71 19.58, 23.24 11.56, 12.49 2.4 M39.66 26.02 C31.57 18.86, 23.89 12, 12.49 2.4 M40.02 21.03 C34.07 15.88, 28.92 9.99, 16.62 0.69 M40.02 21.03 C33.14 15.33, 26.59 9.67, 16.62 0.69 M40.38 16.04 C36.22 13.37, 33.04 8.81, 22.27 0.3 M40.38 16.04 C33.37 10.37, 27.3 4.09, 22.27 0.3 M35.46 6.46 C33.71 5.16, 31.85 3.54, 30.93 2.53 M35.46 6.46 C34.54 5.62, 33.5 4.84, 30.93 2.53" stroke="#38ABAB" stroke-width="0.5" fill="none"/><path d="M19.19 -0.04 C23.5 -0.56, 29.74 1.48, 33.28 4.08 C36.83 6.67, 39.44 11.2, 40.44 15.53 C41.44 19.85, 41.21 26.02, 39.29 30.05 C37.36 34.08, 33.06 37.89, 28.9 39.68 C24.73 41.47, 18.54 42.13, 14.29 40.79 C10.05 39.45, 5.83 35.35, 3.45 31.64 C1.06 27.93, -0.44 22.9, -0.01 18.54 C0.43 14.18, 2.73 8.57, 6.05 5.47 C9.37 2.38, 17.53 0.83, 19.9 -0.04 C22.27 -0.9, 20.24 -0.12, 20.27 0.27 M15.91 0.69 C20.03 -0.57, 26.06 0.19, 30.09 2.25 C34.13 4.3, 38.46 9.01, 40.12 13.03 C41.78 17.05, 41.37 22.23, 40.05 26.36 C38.74 30.5, 35.72 35.47, 32.22 37.85 C28.73 40.23, 23.49 41.22, 19.09 40.64 C14.69 40.06, 9.1 37.38, 5.84 34.37 C2.58 31.37, -0.03 26.85, -0.45 22.61 C-0.86 18.38, 0.64 12.5, 3.36 8.94 C6.08 5.39, 13.68 2.65, 15.88 1.28 C18.07 -0.08, 16.37 0.45, 16.52 0.75" stroke="#000000" stroke-width="1" fill="none"/></g><g stroke-linecap="round" transform="translate(21.36896784681096 26.95835876464841) rotate(0 20.692307287814316 20.692307287814316)"><path d="M15.91 0.8 C19.95 -0.43, 26.14 -0.12, 30.04 1.86 C33.95 3.83, 37.6 8.51, 39.36 12.65 C41.11 16.79, 41.82 22.53, 40.59 26.68 C39.37 30.82, 35.69 35.1, 32.01 37.53 C28.32 39.96, 22.96 41.73, 18.49 41.26 C14.01 40.79, 8.18 38.01, 5.14 34.7 C2.1 31.39, 0.45 25.84, 0.25 21.4 C0.05 16.97, 1.21 11.68, 3.95 8.1 C6.69 4.52, 14.46 1.2, 16.71 -0.05 C18.95 -1.3, 17.32 0.27, 17.44 0.6 M18.39 0.38 C22.54 -0.31, 28.37 1.57, 32.17 3.88 C35.97 6.2, 39.94 10.08, 41.17 14.25 C42.41 18.43, 41.44 24.67, 39.56 28.93 C37.69 33.2, 33.97 37.85, 29.93 39.85 C25.88 41.85, 19.71 42.14, 15.3 40.93 C10.89 39.71, 5.92 36.24, 3.47 32.56 C1.02 28.87, 0.17 23.17, 0.61 18.84 C1.06 14.51, 3.07 9.59, 6.14 6.58 C9.2 3.57, 16.99 1.7, 18.98 0.78 C20.98 -0.14, 18.09 0.86, 18.09 1.05" stroke="#000000" stroke-width="1" fill="none"/></g><g stroke-linecap="round" transform="translate(21.584491665088876 94.20834166306733) rotate(0 20.692307287814316 20.692307287814312)"><path d="M21.28 0 C25.48 -0.24, 30.54 1.77, 33.87 4.69 C37.19 7.61, 40.45 13.08, 41.21 17.52 C41.97 21.96, 40.8 27.49, 38.43 31.32 C36.06 35.15, 31.15 39.14, 26.97 40.51 C22.79 41.89, 17.42 41.16, 13.34 39.57 C9.25 37.98, 4.7 34.81, 2.47 30.98 C0.24 27.15, -0.88 20.99, -0.05 16.59 C0.78 12.19, 3.96 7.38, 7.46 4.59 C10.97 1.8, 18.6 0.52, 20.98 -0.13 C23.35 -0.79, 21.74 0.34, 21.72 0.67 M22.1 0.14 C26.38 0.21, 32.24 3.28, 35.34 6.27 C38.45 9.27, 40.29 13.84, 40.74 18.12 C41.19 22.41, 40.28 28.35, 38.05 31.98 C35.81 35.61, 31.56 38.7, 27.33 39.88 C23.09 41.07, 16.9 40.63, 12.63 39.08 C8.37 37.54, 3.85 34.37, 1.73 30.59 C-0.4 26.82, -1.21 20.75, -0.1 16.45 C1.01 12.15, 4.63 7.59, 8.4 4.81 C12.16 2.03, 20.17 0.44, 22.49 -0.21 C24.82 -0.86, 22.5 0.57, 22.34 0.91" stroke="#000000" stroke-width="1" fill="none"/></g><g stroke-linecap="round" transform="translate(23.739950865554647 153.69872511553348) rotate(0 20.692307287814316 20.692307287814312)"><path d="M17.91 -0.19 C22 -1.04, 27.61 0.86, 31.38 3.28 C35.14 5.71, 39.09 10.25, 40.5 14.37 C41.91 18.5, 41.5 23.93, 39.84 28.04 C38.19 32.15, 34.59 36.91, 30.59 39.03 C26.59 41.15, 20.18 41.78, 15.84 40.77 C11.5 39.75, 7.22 36.44, 4.55 32.93 C1.88 29.42, -0.3 24.13, -0.17 19.69 C-0.04 15.26, 2.25 9.61, 5.34 6.34 C8.42 3.07, 16.01 1.12, 18.34 0.06 C20.67 -1, 19.3 -0.37, 19.32 0 M21.64 0.5 C25.95 0.28, 32.04 1.98, 35.28 4.89 C38.52 7.8, 40.6 13.38, 41.07 17.97 C41.55 22.56, 40.58 28.66, 38.13 32.42 C35.68 36.17, 30.68 39.35, 26.36 40.51 C22.04 41.66, 16.11 41.15, 12.21 39.34 C8.31 37.53, 4.82 33.48, 2.95 29.65 C1.07 25.82, 0.01 20.49, 0.97 16.37 C1.93 12.25, 5.35 7.6, 8.74 4.95 C12.12 2.31, 19.08 1.32, 21.28 0.52 C23.49 -0.28, 21.99 -0.03, 21.98 0.17" stroke="#000000" stroke-width="1" fill="none"/></g><g stroke-linecap="round" transform="translate(149.18706379792891 27.820532972648152) rotate(0 20.692307287814312 20.692307287814312)"><path d="M19.54 -0.35 C23.71 -0.76, 29.92 1.67, 33.48 4.45 C37.04 7.24, 40.07 11.98, 40.9 16.34 C41.74 20.71, 40.56 26.78, 38.49 30.63 C36.43 34.47, 32.56 37.74, 28.52 39.41 C24.47 41.07, 18.5 41.93, 14.2 40.61 C9.91 39.29, 5.11 35.31, 2.75 31.51 C0.39 27.71, -0.59 22.2, 0.02 17.82 C0.62 13.43, 2.97 8.14, 6.38 5.2 C9.78 2.27, 18.07 1.07, 20.44 0.23 C22.81 -0.61, 20.55 -0.14, 20.59 0.18 M21.88 0.67 C25.97 0.51, 30.8 2.33, 34.02 5.17 C37.25 8.02, 40.41 13.44, 41.23 17.74 C42.04 22.05, 41.25 27.36, 38.91 31.02 C36.58 34.69, 31.61 38.17, 27.21 39.74 C22.8 41.32, 16.7 41.94, 12.47 40.46 C8.23 38.99, 3.77 34.81, 1.78 30.92 C-0.21 27.02, -0.59 21.56, 0.54 17.1 C1.67 12.64, 5.02 6.92, 8.58 4.15 C12.14 1.38, 19.81 1.14, 21.9 0.48 C23.99 -0.18, 21.28 -0.15, 21.12 0.19" stroke="#000000" stroke-width="1" fill="none"/></g><g stroke-linecap="round" transform="translate(149.18706379792891 89.89745483609109) rotate(0 20.692307287814312 20.692307287814312)"><path d="M23.02 0.26 C27.24 0.61, 32.98 3.52, 36.04 6.69 C39.1 9.86, 41.14 14.85, 41.37 19.28 C41.59 23.72, 40.16 29.73, 37.38 33.3 C34.61 36.88, 29.07 39.86, 24.73 40.75 C20.4 41.64, 15.26 40.68, 11.37 38.63 C7.48 36.58, 3.14 32.54, 1.39 28.44 C-0.35 24.35, -0.43 18.26, 0.91 14.05 C2.25 9.84, 5.53 5.57, 9.42 3.19 C13.3 0.81, 21.75 0.17, 24.22 -0.21 C26.7 -0.6, 24.38 0.46, 24.3 0.89 M22.99 -0.44 C27.17 -0.44, 32.04 2.69, 35.08 5.99 C38.12 9.3, 40.9 14.97, 41.24 19.39 C41.58 23.81, 39.72 29.07, 37.11 32.53 C34.5 35.99, 29.65 39.09, 25.58 40.15 C21.51 41.2, 16.52 40.61, 12.67 38.86 C8.83 37.12, 4.39 33.46, 2.5 29.67 C0.61 25.89, 0.36 20.35, 1.36 16.13 C2.35 11.91, 4.87 7.06, 8.45 4.34 C12.02 1.62, 20.53 0.51, 22.8 -0.2 C25.07 -0.9, 22.1 -0.22, 22.07 0.1" stroke="#000000" stroke-width="1" fill="none"/></g><g stroke-linecap="round" transform="translate(149.18706379792891 151.97437669953402) rotate(0 20.692307287814312 20.692307287814312)"><path d="M20.79 0.1 C25.06 -0.1, 30.68 1.97, 33.98 4.85 C37.28 7.73, 39.8 13.08, 40.58 17.37 C41.35 21.66, 40.79 26.76, 38.63 30.59 C36.47 34.43, 31.86 38.8, 27.62 40.36 C23.38 41.92, 17.36 41.51, 13.19 39.95 C9.02 38.38, 4.81 34.82, 2.59 30.99 C0.37 27.15, -0.91 21.27, -0.12 16.95 C0.67 12.63, 3.79 7.93, 7.34 5.07 C10.89 2.21, 18.64 0.54, 21.21 -0.21 C23.77 -0.96, 22.67 0.18, 22.74 0.59 M20.93 -0.12 C25.08 -0.35, 31.11 2.39, 34.6 5.28 C38.08 8.16, 41.23 12.91, 41.85 17.21 C42.47 21.51, 40.88 27.09, 38.33 31.05 C35.79 35.01, 30.92 39.4, 26.58 40.96 C22.23 42.51, 16.28 42.01, 12.27 40.36 C8.26 38.72, 4.37 35.12, 2.5 31.08 C0.64 27.04, 0.1 20.5, 1.09 16.13 C2.09 11.75, 5.12 7.57, 8.47 4.84 C11.81 2.12, 19.07 0.45, 21.17 -0.22 C23.26 -0.88, 21.08 0.56, 21.04 0.86" stroke="#000000" stroke-width="1" fill="none"/></g><g stroke-linecap="round" transform="translate(273.3409075248148 27.820532972648152) rotate(0 20.692307287814312 20.692307287814312)"><path d="M16.93 0.34 C21.08 -0.8, 26.91 -0.03, 30.81 2.15 C34.7 4.32, 38.81 9.18, 40.31 13.39 C41.8 17.59, 41.25 23.26, 39.78 27.37 C38.31 31.48, 35.26 35.79, 31.49 38.05 C27.73 40.32, 21.6 41.65, 17.18 40.94 C12.76 40.22, 7.86 37.1, 4.97 33.77 C2.08 30.43, -0.13 25.35, -0.14 20.91 C-0.15 16.46, 1.95 10.55, 4.9 7.12 C7.85 3.69, 15.22 1.41, 17.54 0.32 C19.87 -0.77, 18.73 0.24, 18.84 0.57 M23.86 0.31 C27.94 0.91, 33.48 4.46, 36.3 7.82 C39.11 11.19, 40.79 16.25, 40.76 20.49 C40.73 24.73, 38.71 29.96, 36.11 33.27 C33.51 36.58, 29.33 39.43, 25.16 40.36 C20.99 41.29, 14.96 40.8, 11.1 38.85 C7.25 36.91, 3.75 32.77, 2.05 28.69 C0.35 24.62, -0.52 18.74, 0.9 14.4 C2.32 10.06, 6.74 5.08, 10.55 2.66 C14.36 0.24, 21.45 0.29, 23.76 -0.12 C26.06 -0.52, 24.45 -0.05, 24.36 0.25" stroke="#000000" stroke-width="1" fill="none"/></g><g stroke-linecap="round" transform="translate(273.3409075248148 151.97437669953402) rotate(0 20.692307287814312 20.692307287814312)"><path d="M16.92 0.35 C20.92 -0.65, 26.54 0.85, 30.4 2.96 C34.27 5.07, 38.5 8.86, 40.11 13.01 C41.71 17.16, 41.61 23.62, 40.05 27.84 C38.49 32.06, 34.59 36.14, 30.76 38.34 C26.93 40.54, 21.46 41.78, 17.08 41.05 C12.71 40.33, 7.37 37.3, 4.51 33.97 C1.66 30.65, -0.01 25.53, -0.06 21.09 C-0.1 16.64, 1.33 10.74, 4.26 7.28 C7.19 3.83, 15.23 1.43, 17.52 0.34 C19.81 -0.74, 17.95 0.38, 18 0.76 M25.24 0.45 C29.61 1.02, 35.08 4.07, 37.79 7.5 C40.49 10.92, 41.86 16.37, 41.47 21 C41.07 25.63, 38.56 31.82, 35.44 35.27 C32.31 38.72, 27.01 41.11, 22.71 41.7 C18.41 42.3, 13.16 41.33, 9.64 38.82 C6.12 36.31, 2.85 30.91, 1.59 26.64 C0.33 22.38, 0.54 17.31, 2.09 13.22 C3.64 9.12, 7.11 4.14, 10.9 2.09 C14.69 0.05, 22.52 1.21, 24.82 0.93 C27.11 0.66, 24.8 0.16, 24.68 0.45" stroke="#000000" stroke-width="1" fill="none"/></g><g stroke-linecap="round" transform="translate(273.3409075248148 89.89745483609109) rotate(0 20.692307287814312 20.692307287814312)"><path d="M21.6 -0.47 C25.85 -0.54, 31.75 2.41, 34.94 5.46 C38.13 8.52, 40.19 13.53, 40.76 17.85 C41.33 22.17, 40.7 27.66, 38.36 31.39 C36.03 35.12, 31 38.92, 26.72 40.25 C22.45 41.58, 16.81 41.05, 12.73 39.38 C8.64 37.7, 4.19 34.13, 2.19 30.19 C0.19 26.25, -0.22 20.03, 0.72 15.73 C1.67 11.43, 4.3 6.99, 7.87 4.39 C11.43 1.78, 19.66 0.75, 22.11 0.11 C24.56 -0.53, 22.56 0.15, 22.58 0.56 M17.19 0.95 C21.21 0, 26.81 0.89, 30.54 2.94 C34.27 5, 37.87 9.2, 39.56 13.26 C41.25 17.31, 42.03 23, 40.67 27.25 C39.31 31.5, 35.25 36.37, 31.41 38.77 C27.57 41.18, 22.14 42.41, 17.65 41.68 C13.17 40.95, 7.37 37.95, 4.51 34.39 C1.64 30.82, 0.44 24.87, 0.47 20.29 C0.5 15.71, 1.83 10.31, 4.7 6.9 C7.57 3.5, 15.65 1.01, 17.67 -0.14 C19.7 -1.28, 16.84 -0.44, 16.85 0.05" stroke="#000000" stroke-width="1" fill="none"/></g><g stroke-linecap="round"><g transform="translate(149.44571763902658 112.65899285268684) rotate(0 -10.216826723358317 -0.6466346027441965)"><path d="M-0.4 0.1 C-3.79 -0.05, -16.99 -0.99, -20.33 -1.31 M0.39 -0.33 C-3.06 -0.35, -17.17 -0.43, -20.7 -0.62" stroke="#000000" stroke-width="1" fill="none"/></g></g><mask/><g stroke-linecap="round"><g transform="translate(190.57167837355752 109.55514675951468) rotate(0 10.863461326102515 0)"><path d="M0.1 0.11 C3.78 0.18, 18.19 -0.03, 21.71 0 M-0.52 -0.31 C3.13 -0.12, 17.48 0.76, 21.27 0.71" stroke="#000000" stroke-width="1" fill="none"/></g></g><mask/><g stroke-linecap="round"><g transform="translate(215.4024471189347 100.24360847999824) rotate(0 -13.967307419274661 -17.588461194642164)"><path d="M0.24 -0.04 C-4.27 -6.14, -23.34 -30.51, -27.92 -36.36 M-1.1 -1.11 C-5.69 -7.12, -24.43 -30, -28.87 -35.44" stroke="#000000" stroke-width="1" fill="none"/></g></g><mask/><g stroke-linecap="round"><g transform="translate(224.71398539845114 128.17822331854757) rotate(0 -18.62307655903288 17.07115351244681)"><path d="M-0.04 0.01 C-6.48 5.77, -32.24 29.27, -38.43 34.78 M-1.52 -1.03 C-7.63 4.36, -30.27 27.19, -36.34 33" stroke="#000000" stroke-width="1" fill="none"/></g></g><mask/><g stroke-linecap="round"><g transform="translate(123.32167968816103 125.07437722537541) rotate(0 15.519230465860737 16.55384583025145)"><path d="M0.01 -1.18 C5.25 4.35, 26.69 27.51, 31.68 33.17 M-1.44 0.81 C3.67 6.56, 25.44 29.22, 31.07 34.74" stroke="#000000" stroke-width="1" fill="none"/></g></g><mask/><g stroke-linecap="round"><g transform="translate(121.25244895937959 95.07053165804467) rotate(0 14.48461510147002 -19.6576919234236)"><path d="M-1.18 0.64 C3.66 -6.09, 24.06 -33.83, 29.03 -40.4 M0.4 -0.07 C5.09 -6.7, 23.57 -32.63, 28.11 -39.43" stroke="#000000" stroke-width="1" fill="none"/></g></g><mask/><g stroke-linecap="round"><g transform="translate(94.35244948522097 98.17437775121681) rotate(0 -17.631559643506705 -18.66618290138623)"><path d="M0.64 0.06 C-5.42 -6.02, -30.45 -31.28, -36.34 -37.68 M-0.48 -0.95 C-6.19 -6.76, -28.41 -30.22, -34.2 -36.32" stroke="#000000" stroke-width="1" fill="none"/></g></g><mask/><g stroke-linecap="round"><g transform="translate(86.07552657009526 112.52966593213799) rotate(0 -10.64792172084698 0.43109499748866753)"><path d="M0.03 -0.5 C-3.46 -0.36, -17.82 0.92, -21.45 1.11 M-0.62 0.44 C-4.15 0.39, -18.62 0.15, -21.97 0.27" stroke="#000000" stroke-width="1" fill="none"/></g></g><mask/><g stroke-linecap="round"><g transform="translate(91.24860339204884 127.14360795415685) rotate(0 -15.928760451939525 14.958816441312031)"><path d="M-1.08 -0.35 C-6.41 4.46, -26.12 23.93, -31.32 28.91 M0.55 -1.57 C-4.94 3.35, -26.35 24.55, -31.99 29.91" stroke="#000000" stroke-width="1" fill="none"/></g></g><mask/><g stroke-linecap="round"><g transform="translate(245.40629268626546 96.10514702243537) rotate(0 13.967307419274661 -19.6576919234236)"><path d="M-0.35 0.53 C4.13 -5.91, 22.28 -33.11, 26.92 -39.77 M1.67 -0.23 C6.51 -6.42, 24.96 -32.15, 29.1 -38.47" stroke="#000000" stroke-width="1" fill="none"/></g></g><mask/><g stroke-linecap="round"><g transform="translate(252.64860023700047 111.36572364719844) rotate(0 11.380769008297872 -0.38798076164651896)"><path d="M0.24 -0.46 C4.09 -0.6, 18.81 -0.84, 22.55 -0.97 M-0.29 0.49 C3.5 0.44, 18.24 -0.14, 22.02 -0.37" stroke="#000000" stroke-width="1" fill="none"/></g></g><mask/><g stroke-linecap="round"><g transform="translate(248.51013877943763 127.14360795415685) rotate(0 15.001922783665378 14.48461510147002)"><path d="M-1.01 -0.45 C3.97 4.27, 24.58 24.02, 29.58 28.86 M0.66 -1.73 C5.48 3.14, 23.29 25.1, 28.4 30.34" stroke="#000000" stroke-width="1" fill="none"/></g></g><mask/></svg>