<svg xmlns="http://www.w3.org/2000/svg" version="1.1" viewBox="0 0 275.9778729873205 181.78499297835765" width="275.9778729873205" height="181.78499297835765" class="excalidraw-svg">
  <!-- svg-source:excalidraw -->
  
  <defs>
    <style class="style-fonts">
      @font-face {
        font-family: "Virgil";
        src: url("https://excalidraw.com/Virgil.woff2");
      }
      @font-face {
        font-family: "Cascadia";
        src: url("https://excalidraw.com/Cascadia.woff2");
      }
      @font-face {
        font-family: "Assistant";
        src: url("https://excalidraw.com/Assistant-Regular.woff2");
      }
    </style>
    
  </defs>
  <g stroke-linecap="round" transform="translate(106.16393762778719 69.70831298828125) rotate(0 34.166656494140625 20)"><path d="M1.7 13.41 C1.7 13.41, 1.7 13.41, 1.7 13.41 M1.7 13.41 C1.7 13.41, 1.7 13.41, 1.7 13.41 M1.44 19.8 C6.82 15.08, 12.25 6.42, 14.56 4.71 M1.44 19.8 C4.85 16.83, 7.91 11.98, 14.56 4.71 M1.18 26.2 C4.1 21.84, 10.01 14.24, 22.17 2.05 M1.18 26.2 C8.8 17.41, 16.52 7.53, 22.17 2.05 M4.2 28.83 C9.61 24.95, 13.37 16.07, 27.82 1.66 M4.2 28.83 C13.07 18.1, 21.2 8.82, 27.82 1.66 M7.22 31.45 C14.09 23.91, 19.88 17.83, 32.8 2.02 M7.22 31.45 C14.3 23.58, 22.45 15.1, 32.8 2.02 M10.89 33.32 C16.88 25.83, 25.47 18.12, 38.45 1.62 M10.89 33.32 C16.48 26.5, 22.7 19.48, 38.45 1.62 M13.91 35.94 C24.21 24.23, 34.15 11.5, 43.44 1.98 M13.91 35.94 C20.53 28.55, 27.02 21.03, 43.44 1.98 M17.59 37.81 C26.13 28.35, 33.84 16.51, 47.77 3.1 M17.59 37.81 C24.65 29.26, 32.36 20.78, 47.77 3.1 M22.57 38.17 C31.81 27.39, 40.09 16.19, 51.44 4.97 M22.57 38.17 C33.14 25.55, 44.75 14.38, 51.44 4.97 M27.56 38.53 C35.82 29.69, 42.62 20.12, 55.77 6.08 M27.56 38.53 C38.66 26.16, 48.31 15.22, 55.77 6.08 M32.55 38.89 C40.32 30.25, 46.89 22.69, 59.45 7.95 M32.55 38.89 C38.37 33.5, 44.08 25.71, 59.45 7.95 M37.54 39.25 C45.63 30.71, 49.87 23.22, 63.12 9.82 M37.54 39.25 C43.65 30.87, 50.98 24.16, 63.12 9.82 M43.83 38.1 C49.67 33.74, 52.23 27, 65.48 13.2 M43.83 38.1 C49.39 30.26, 57.25 23.15, 65.48 13.2 M50.79 36.2 C54.11 31.84, 61.48 24.28, 67.19 17.33 M50.79 36.2 C57.22 28.84, 62.09 23.17, 67.19 17.33 M57.74 34.3 C61.8 29.25, 63.91 23.76, 68.9 21.47 M57.74 34.3 C60.38 32.09, 62.17 28.67, 68.9 21.47 M0.93 26.37 C0.93 26.37, 0.93 26.37, 0.93 26.37 M0.93 26.37 C0.93 26.37, 0.93 26.37, 0.93 26.37 M18.65 36.47 C13.42 31.52, 8.09 26.22, 1.29 21.38 M18.65 36.47 C14.35 33.75, 11.45 31.16, 1.29 21.38 M25.8 37.39 C16.69 31.83, 9.74 24.74, 1.65 16.39 M25.8 37.39 C20.38 32.94, 14.34 27.95, 1.65 16.39 M32.2 37.65 C23.01 30.29, 14.83 19.49, 2.76 12.06 M32.2 37.65 C23.6 29.64, 14.2 23.7, 2.76 12.06 M39.35 38.57 C32.88 32.94, 25.17 27.37, 6.14 9.7 M39.35 38.57 C27.6 29.29, 18.38 19.85, 6.14 9.7 M43.48 36.86 C33.4 29.62, 24 18.97, 9.52 7.34 M43.48 36.86 C32.97 27.25, 23.27 18.09, 9.52 7.34 M48.37 35.81 C40.29 29.69, 30.93 18.68, 13.66 5.63 M48.37 35.81 C40 26.97, 30.03 20.04, 13.66 5.63 M53.26 34.76 C38.01 22.05, 26.5 11.1, 17.03 3.27 M53.26 34.76 C40 21.9, 26.29 9.91, 17.03 3.27 M58.15 33.71 C47.67 24.74, 37.44 13.21, 21.17 1.56 M58.15 33.71 C46.27 23.36, 33.51 11.09, 21.17 1.56 M60.77 30.69 C47.28 20.18, 33.48 5.76, 26.81 1.17 M60.77 30.69 C50.37 22.06, 39.66 13.5, 26.81 1.17 M63.4 27.67 C56.39 19.86, 46.79 13.3, 32.45 0.77 M63.4 27.67 C55.68 21.36, 48.15 15, 32.45 0.77 M66.02 24.65 C57.35 18.25, 51.12 10.79, 38.85 1.03 M66.02 24.65 C57.28 18.65, 49.65 11.57, 38.85 1.03 M67.89 20.98 C61.01 15.41, 56.09 9.22, 47.51 3.26 M67.89 20.98 C62.29 15.96, 55.24 9.52, 47.51 3.26 M65.23 13.37 C61.91 11.29, 61.2 9.23, 57.69 6.8 M65.23 13.37 C63.68 11.49, 61.42 10.64, 57.69 6.8" stroke="#38ABAB" stroke-width="0.5" fill="none"/><path d="M42.18 1.35 C49.16 2.05, 57.84 5.09, 62.24 8.31 C66.65 11.52, 69.24 16.37, 68.63 20.62 C68.02 24.87, 63.63 30.76, 58.61 33.8 C53.6 36.85, 45.85 38.38, 38.54 38.88 C31.23 39.38, 21.01 38.89, 14.74 36.8 C8.47 34.71, 3.03 30.3, 0.9 26.34 C-1.22 22.39, -1.04 17.21, 1.98 13.09 C4.99 8.97, 11.14 3.56, 18.98 1.62 C26.81 -0.31, 43.26 0.88, 48.99 1.47 C54.72 2.05, 53.53 4.81, 53.36 5.14 M26.92 0.18 C33.67 -1.16, 42.66 -0.37, 49.12 1.6 C55.58 3.57, 62.57 7.97, 65.67 11.99 C68.76 16.02, 69.76 21.52, 67.69 25.76 C65.62 30.01, 59.27 35.07, 53.23 37.45 C47.19 39.84, 38.64 40.75, 31.45 40.09 C24.26 39.42, 15.27 36.77, 10.08 33.47 C4.88 30.17, 1.05 24.59, 0.28 20.27 C-0.48 15.95, 1.17 11.02, 5.49 7.55 C9.81 4.07, 22.83 0.34, 26.19 -0.59 C29.54 -1.53, 25.54 1.22, 25.63 1.94" stroke="#000000" stroke-width="1" fill="none"/></g><g stroke-linecap="round" transform="translate(34.70562463950597 31.999984741210938) rotate(0 104.5833282470703 60)"><path d="M119.06 1.38 C132.67 1.46, 147.72 5.17, 159.61 9.17 C171.5 13.17, 182.41 18.72, 190.41 25.38 C198.41 32.04, 205.14 41.19, 207.63 49.14 C210.11 57.09, 208.67 65.28, 205.32 73.07 C201.98 80.86, 195.96 89.4, 187.56 95.89 C179.16 102.38, 167.25 107.97, 154.94 112.03 C142.62 116.09, 127.96 119.42, 113.66 120.25 C99.35 121.07, 82.68 119.95, 69.11 117 C55.53 114.05, 42.27 108.09, 32.22 102.57 C22.16 97.05, 14.16 91.3, 8.76 83.87 C3.37 76.43, -0.32 66.21, -0.15 57.95 C0.02 49.7, 3.52 41.64, 9.77 34.33 C16.01 27.02, 26.49 19.46, 37.34 14.11 C48.19 8.75, 59.22 4.21, 74.86 2.2 C90.5 0.18, 119.81 1.47, 131.16 2.03 C142.52 2.6, 143.47 4.51, 142.99 5.56 M132.68 2.47 C145.85 3.45, 159.59 7.67, 170.43 12.9 C181.27 18.13, 191.49 26.45, 197.74 33.85 C203.98 41.25, 207.09 49.24, 207.9 57.32 C208.72 65.4, 207.5 74.71, 202.62 82.33 C197.74 89.95, 189.17 97.36, 178.64 103.02 C168.11 108.68, 152.74 113.65, 139.43 116.28 C126.12 118.9, 112.75 119.11, 98.78 118.75 C84.81 118.4, 68.57 117.65, 55.59 114.14 C42.62 110.63, 29.43 104.23, 20.94 97.67 C12.45 91.12, 8.02 82.57, 4.66 74.83 C1.29 67.09, -1.25 59.22, 0.74 51.21 C2.73 43.21, 8.33 33.74, 16.6 26.8 C24.87 19.86, 38.43 13.93, 50.38 9.58 C62.33 5.24, 74.37 1.92, 88.31 0.75 C102.24 -0.42, 126.8 2.27, 133.99 2.57 C141.18 2.87, 131.98 1.5, 131.44 2.53" stroke="#000000" stroke-width="1" fill="none"/></g><g stroke-linecap="round" transform="translate(10 10) rotate(0 127.98893649366025 80.89249648917882)"><path d="M0 0 C91.82 1.89, 186.13 1.56, 255.98 0 M0 0 C85.13 0.16, 170.65 -0.52, 255.98 0 M255.98 0 C258.36 63.27, 256.26 124.47, 255.98 161.78 M255.98 0 C256.14 64.03, 255.97 128.95, 255.98 161.78 M255.98 161.78 C167.41 161.76, 80.01 162.36, 0 161.78 M255.98 161.78 C193.85 159.24, 132.51 160.35, 0 161.78 M0 161.78 C3.1 124.19, 0.49 83.95, 0 0 M0 161.78 C-1.32 97.92, -1.34 33.17, 0 0" stroke="#000000" stroke-width="1" fill="none"/></g></svg>