<svg xmlns="http://www.w3.org/2000/svg" version="1.1" viewBox="0 0 321.72813123409435 208.2509889814747" width="321.72813123409435" height="208.2509889814747" class="excalidraw-svg">
  <!-- svg-source:excalidraw -->
  
  <defs>
    <style class="style-fonts">
      @font-face {
        font-family: "Virgil";
        src: url("https://excalidraw.com/Virgil.woff2");
      }
      @font-face {
        font-family: "Cascadia";
        src: url("https://excalidraw.com/Cascadia.woff2");
      }
      @font-face {
        font-family: "Assistant";
        src: url("https://excalidraw.com/Assistant-Regular.woff2");
      }
    </style>
    
  </defs>
  <g stroke-linecap="round"><g transform="translate(124.91183604195635 44.224254749205414) rotate(0 -9.951255951931252 29.60498645699547)"><path d="M0.54 -0.99 C-1.24 0.05, -9.22 -1.64, -11.32 6.8 C-13.42 15.25, -10.45 40.85, -12.04 49.69 C-13.64 58.53, -19.69 58.25, -20.89 59.82 M-0.63 1.11 C-1.98 2.2, -7.55 -0.58, -9.06 7.73 C-10.58 16.04, -7.71 42.66, -9.72 50.97 C-11.74 59.28, -19.39 56.17, -21.16 57.59" stroke="#000000" stroke-width="1" fill="none"/></g></g><mask/><g stroke-linecap="round"><g transform="translate(105.10088157103837 104.40044740819687) rotate(180 9.951255951931252 29.60498645699547)"><path d="M-0.99 -0.87 C0.47 0.18, 7.31 -1.41, 9.29 6.86 C11.27 15.14, 9.01 39.93, 10.88 48.77 C12.75 57.61, 19.02 58.04, 20.51 59.9 M0.69 1.29 C2.45 2.4, 9.83 -0.22, 11.39 7.83 C12.96 15.87, 8.46 41.26, 10.08 49.57 C11.69 57.88, 19.71 55.84, 21.08 57.71" stroke="#000000" stroke-width="1" fill="none"/></g></g><mask/><g stroke-linecap="round"><g transform="translate(227.0717730003446 34.00765835093165) rotate(0 -4.883859244536751 14.52948125249685)"><path d="M-0.03 -0.45 C-0.75 0.34, -3.95 0.02, -4.85 4.22 C-5.74 8.43, -4.67 20.57, -5.41 24.76 C-6.15 28.96, -8.5 28.65, -9.26 29.39 M-0.71 0.51 C-1.43 1.18, -4.29 -0.47, -5.14 3.42 C-5.98 7.32, -4.87 19.71, -5.78 23.87 C-6.68 28.04, -10 27.46, -10.56 28.39" stroke="#000000" stroke-width="1" fill="none"/></g></g><mask/><g stroke-linecap="round"><g transform="translate(216.56079516672617 64.33556884581236) rotate(180 4.883859244536751 14.52948125249685)"><path d="M-0.45 0.28 C0.54 0.93, 4.42 -0.24, 5.44 3.87 C6.47 7.98, 4.94 20.76, 5.72 24.92 C6.49 29.08, 9.4 28.1, 10.09 28.82 M0.32 -0.05 C1.31 0.69, 4.3 0.52, 5.18 4.55 C6.05 8.58, 4.68 20.01, 5.54 24.12 C6.41 28.22, 9.75 28.31, 10.37 29.21" stroke="#000000" stroke-width="1" fill="none"/></g></g><mask/><g stroke-linecap="round"><g transform="translate(227.0717730003446 114.00765835093165) rotate(0 -4.883859244536751 14.529481252496852)"><path d="M0.28 0.32 C-0.58 1.1, -4.31 0.18, -5.17 4.25 C-6.02 8.32, -4.06 20.59, -4.87 24.75 C-5.68 28.9, -9.22 28.53, -10 29.2 M-0.24 0 C-1.17 0.67, -4.83 -0.51, -5.62 3.46 C-6.4 7.44, -4.23 19.46, -4.96 23.85 C-5.69 28.23, -9.14 28.95, -10.01 29.78" stroke="#000000" stroke-width="1" fill="none"/></g></g><mask/><g stroke-linecap="round"><g transform="translate(216.56079516672617 144.33556884581236) rotate(180 4.883859244536751 14.529481252496852)"><path d="M0.32 -0.04 C1.3 0.65, 4.57 0.37, 5.47 4.41 C6.37 8.45, 4.96 20.05, 5.7 24.18 C6.44 28.32, 9.28 28.44, 9.91 29.24 M-0.18 -0.53 C0.8 -0.01, 4.27 -0.5, 5.22 3.7 C6.17 7.9, 4.7 20.31, 5.52 24.66 C6.33 29.02, 9.29 29.1, 10.1 29.84" stroke="#000000" stroke-width="1" fill="none"/></g></g><mask/><g stroke-linecap="round"><g transform="translate(234.09958853496025 134.00863043644583) rotate(0 24.960406822981895 0)"><path d="M0.24 -0.51 C8.7 -0.47, 42.22 0.28, 50.45 0.44 M-0.3 0.42 C8.16 0.29, 42.05 -0.17, 50.29 -0.3" stroke="#000000" stroke-width="1" fill="none"/></g></g><mask/><g stroke-linecap="round"><g transform="translate(234.78936599282773 154.3539890249924) rotate(0 23.9123880550041 0)"><path d="M0.53 0.44 C8.41 0.61, 39.73 0.6, 47.54 0.48 M0.14 0.19 C8.18 0.26, 40.57 -0.24, 48.63 -0.23" stroke="#000000" stroke-width="1" fill="none"/></g></g><mask/><g stroke-linecap="round" transform="translate(10 10) rotate(0 150.86406561704717 94.12549449073735)"><path d="M0 0 C118.52 1.43, 235.57 0.72, 301.73 0 M0 0 C118.55 1.79, 238.72 0.61, 301.73 0 M301.73 0 C299.55 73.22, 301.15 147.37, 301.73 188.25 M301.73 0 C302.47 64.03, 301.02 127.96, 301.73 188.25 M301.73 188.25 C194.93 188.4, 88.06 190.38, 0 188.25 M301.73 188.25 C235.15 189.16, 167.51 189.38, 0 188.25 M0 188.25 C-0.59 128.88, -0.58 69.52, 0 0 M0 188.25 C1.28 136.38, 1.01 85.08, 0 0" stroke="#000000" stroke-width="1" fill="none"/></g><g stroke-linecap="round"><g transform="translate(234.36961549764285 53.38882143098223) rotate(0 24.960406822981895 0)"><path d="M0.22 -0.22 C8.59 -0.2, 41.65 0.17, 49.94 0.12 M-0.33 -0.8 C7.99 -0.96, 41.19 -0.89, 49.51 -0.79" stroke="#000000" stroke-width="1" fill="none"/></g></g><mask/><g stroke-linecap="round"><g transform="translate(235.58083653399012 73.7341800195288) rotate(0 23.9123880550041 0)"><path d="M0.01 0.12 C7.95 0.06, 39.84 -0.48, 47.83 -0.52 M-0.64 -0.3 C7.2 -0.28, 39.35 -0.2, 47.4 -0.09" stroke="#000000" stroke-width="1" fill="none"/></g></g><mask/><g stroke-linecap="round"><g transform="translate(138.50750161749693 64.1218904311742) rotate(0 24.960406822981895 0)"><path d="M-0.23 0.04 C7.98 0.11, 41.43 0.24, 49.78 0.26 M0.65 -0.42 C8.73 -0.49, 41.13 -0.78, 49.27 -0.58" stroke="#000000" stroke-width="1" fill="none"/></g></g><mask/><g stroke-linecap="round"><g transform="translate(139.45780468729214 103.26871393219258) rotate(0 23.9123880550041 0)"><path d="M-0.14 0.26 C7.86 0.27, 39.82 0.19, 47.79 0.11 M0.79 -0.09 C8.73 -0.26, 39.59 -0.86, 47.34 -0.8" stroke="#000000" stroke-width="1" fill="none"/></g></g><mask/><g stroke-linecap="round"><g transform="translate(138.3902038635934 142.3582859528261) rotate(0 24.960406822981895 0)"><path d="M0.5 0.33 C8.79 0.29, 41.42 0.24, 49.69 0.14 M0.1 0.02 C8.3 -0.22, 40.84 -0.78, 49.13 -0.75" stroke="#000000" stroke-width="1" fill="none"/></g></g><mask/><g stroke-linecap="round"><g transform="translate(32.18795591617493 102.03297556212044) rotate(0 23.9123880550041 0)"><path d="M0.33 -0.23 C8.26 -0.29, 40.1 0.16, 47.97 0.18 M-0.17 -0.83 C7.68 -0.82, 39.74 -0.91, 47.61 -0.69" stroke="#000000" stroke-width="1" fill="none"/></g></g><mask/></svg>