<svg xmlns="http://www.w3.org/2000/svg" version="1.1" viewBox="0 0 322.9932614555256 211.50000000000006" width="322.9932614555256" height="211.50000000000006" class="excalidraw-svg">
  <!-- svg-source:excalidraw -->
  
  <defs>
    <style class="style-fonts">
      @font-face {
        font-family: "Virgil";
        src: url("https://excalidraw.com/Virgil.woff2");
      }
      @font-face {
        font-family: "Cascadia";
        src: url("https://excalidraw.com/Cascadia.woff2");
      }
      @font-face {
        font-family: "Assistant";
        src: url("https://excalidraw.com/Assistant-Regular.woff2");
      }
    </style>
    
  </defs>
  <g stroke-linecap="round" transform="translate(148.20559412192782 76.54165649414062) rotate(0 20 20)"><path d="M9.33 2.81 C9.33 2.81, 9.33 2.81, 9.33 2.81 M9.33 2.81 C9.33 2.81, 9.33 2.81, 9.33 2.81 M1.2 18.27 C7.03 13.14, 11.04 7.41, 15.63 1.66 M1.2 18.27 C4.63 14.32, 7.61 11.21, 15.63 1.66 M1.59 23.91 C6.77 18.14, 12.37 11.69, 21.93 0.51 M1.59 23.91 C6.18 17.74, 11.72 12.03, 21.93 0.51 M2.64 28.8 C11.15 18.72, 18.33 10.43, 26.26 1.63 M2.64 28.8 C9.88 20.24, 17.06 11.65, 26.26 1.63 M5.66 31.42 C14.48 20.22, 23.48 10.17, 29.94 3.5 M5.66 31.42 C11.11 25.39, 16.73 18.53, 29.94 3.5 M8.03 34.8 C14.04 27.52, 19.82 22.67, 32.96 6.12 M8.03 34.8 C14.24 27.61, 20.45 20.6, 32.96 6.12 M11.04 37.43 C15.79 31.3, 21.18 25.28, 35.97 8.75 M11.04 37.43 C21.13 26.33, 30.59 15.25, 35.97 8.75 M15.38 38.54 C21.88 30.65, 28.75 22.37, 37.68 12.88 M15.38 38.54 C20.51 32.96, 25.39 27.29, 37.68 12.88 M20.36 38.9 C26.25 31.9, 30.19 26.07, 39.39 17.01 M20.36 38.9 C25.8 32.58, 31.86 25.16, 39.39 17.01 M24.69 40.02 C28.96 35.42, 31.77 31.23, 39.13 23.41 M24.69 40.02 C28.7 34.81, 33.52 29.62, 39.13 23.41 M10.24 36.99 C10.24 36.99, 10.24 36.99, 10.24 36.99 M10.24 36.99 C10.24 36.99, 10.24 36.99, 10.24 36.99 M18.15 38.57 C12.09 34.04, 7.29 28.98, 1.55 24.13 M18.15 38.57 C11.84 33.49, 5.79 27.35, 1.55 24.13 M24.55 38.83 C16.39 31.1, 6.26 22.85, 1.15 18.49 M24.55 38.83 C16.34 31.62, 8.56 24.04, 1.15 18.49 M27.93 36.46 C17.9 26.67, 8.06 19.44, 0.76 12.85 M27.93 36.46 C21.54 31.03, 15.75 26.02, 0.76 12.85 M31.31 34.1 C24.85 29.74, 19.12 24.28, 3.38 9.83 M31.31 34.1 C22.56 26.64, 12.99 18.22, 3.38 9.83 M35.44 32.39 C27.09 25.78, 19.34 18.23, 6.01 6.81 M35.44 32.39 C28.74 26.6, 21.31 20.42, 6.01 6.81 M36.56 28.06 C27.36 21.8, 20.04 14.1, 8.63 3.79 M36.56 28.06 C26 18.99, 16.09 10.17, 8.63 3.79 M38.42 24.39 C28.33 16.52, 19.93 7.96, 12.01 1.43 M38.42 24.39 C30.31 16.82, 21.78 9.25, 12.01 1.43 M40.29 20.71 C33.36 15.4, 27.13 9.2, 17.65 1.03 M40.29 20.71 C33.35 13.94, 25.67 7.74, 17.65 1.03 M38.39 13.76 C34.52 10.42, 29.28 6.19, 22.54 -0.02 M38.39 13.76 C32.23 8.19, 26.19 3.66, 22.54 -0.02" stroke="#38ABAB" stroke-width="0.5" fill="none"/><path d="M23.04 0 C27.17 0.38, 32.76 3.63, 35.58 6.96 C38.4 10.3, 40.03 15.76, 39.97 20.03 C39.91 24.3, 37.92 29.37, 35.24 32.6 C32.56 35.83, 28.04 38.66, 23.91 39.41 C19.77 40.17, 14.16 39.18, 10.43 37.15 C6.7 35.13, 3.15 31.25, 1.55 27.26 C-0.05 23.27, -0.53 17.33, 0.81 13.21 C2.14 9.09, 5.72 4.63, 9.57 2.55 C13.41 0.46, 21.47 1.06, 23.89 0.73 C26.31 0.39, 24.18 0.2, 24.1 0.52 M18.7 0.41 C22.72 -0.15, 28.99 1.61, 32.41 4.07 C35.82 6.54, 38.4 11.12, 39.21 15.18 C40.02 19.23, 39.04 24.46, 37.26 28.42 C35.49 32.37, 32.36 37, 28.57 38.91 C24.77 40.82, 18.62 41.26, 14.52 39.86 C10.42 38.47, 6.37 34.33, 3.98 30.53 C1.59 26.74, -0.08 21.39, 0.18 17.09 C0.44 12.8, 2.51 7.61, 5.56 4.78 C8.61 1.96, 16.37 0.9, 18.48 0.15 C20.58 -0.6, 18.12 -0.12, 18.21 0.3" stroke="#000000" stroke-width="1" fill="none"/></g><g stroke-linecap="round" transform="translate(208.20559412192782 36.541656494140625) rotate(0 20 20)"><path d="M18.6 0.34 C22.59 -0.08, 28.37 1.47, 31.87 3.96 C35.37 6.46, 38.62 11.07, 39.59 15.31 C40.55 19.54, 39.65 25.47, 37.66 29.38 C35.66 33.29, 31.55 37.07, 27.6 38.75 C23.66 40.42, 18 40.82, 14 39.46 C10 38.1, 5.92 34.27, 3.6 30.57 C1.29 26.87, -0.3 21.45, 0.12 17.26 C0.54 13.07, 2.82 8.35, 6.14 5.46 C9.46 2.56, 17.69 0.73, 20.02 -0.11 C22.34 -0.96, 20.1 0.05, 20.09 0.38 M24.57 0.91 C28.54 1.49, 33.37 4.26, 35.9 7.46 C38.43 10.67, 40.04 15.7, 39.77 20.13 C39.5 24.56, 37.02 30.74, 34.27 34.06 C31.53 37.38, 27.32 39.48, 23.29 40.07 C19.26 40.67, 13.87 39.94, 10.07 37.63 C6.28 35.32, 2.04 30.5, 0.51 26.19 C-1.02 21.87, -0.69 15.79, 0.89 11.75 C2.47 7.71, 6.07 3.95, 9.98 1.96 C13.88 -0.04, 21.98 -0.03, 24.31 -0.21 C26.65 -0.39, 23.97 0.37, 23.98 0.9" stroke="#000000" stroke-width="1" fill="none"/></g><g stroke-linecap="round" transform="translate(208.20559412192782 116.54165649414062) rotate(0 20 20)"><path d="M22.59 0.01 C26.72 0.29, 31.61 3.26, 34.49 6.36 C37.36 9.45, 39.51 14.39, 39.83 18.6 C40.15 22.81, 38.89 28.2, 36.42 31.64 C33.96 35.08, 29.19 38.14, 25.02 39.24 C20.84 40.34, 15.34 40.12, 11.38 38.24 C7.42 36.35, 3.1 31.96, 1.28 27.94 C-0.53 23.92, -0.82 18.18, 0.46 14.13 C1.75 10.09, 5.26 6.04, 9.01 3.67 C12.77 1.29, 20.51 0.34, 22.98 -0.1 C25.44 -0.54, 23.86 0.58, 23.81 1.04 M23.9 0.41 C27.93 0.76, 32.46 3.74, 35.04 6.9 C37.62 10.07, 39.23 14.99, 39.39 19.4 C39.55 23.81, 38.59 29.88, 35.99 33.37 C33.39 36.87, 27.98 39.81, 23.77 40.39 C19.56 40.98, 14.47 39.23, 10.72 36.88 C6.97 34.53, 2.97 30.35, 1.26 26.29 C-0.44 22.23, -0.92 16.44, 0.47 12.53 C1.86 8.61, 5.89 4.87, 9.6 2.81 C13.32 0.75, 20.48 0.42, 22.78 0.17 C25.09 -0.08, 23.29 1.08, 23.44 1.31" stroke="#000000" stroke-width="1" fill="none"/></g><g stroke-linecap="round" transform="translate(148.20559412192782 156.54165649414062) rotate(0 20 20)"><path d="M16.39 0.28 C20.43 -0.76, 26.4 0.33, 30.1 2.54 C33.8 4.74, 37.19 9.39, 38.6 13.5 C40 17.61, 40 23.16, 38.53 27.18 C37.07 31.21, 33.41 35.6, 29.81 37.63 C26.2 39.65, 21.08 40.18, 16.89 39.33 C12.7 38.48, 7.51 35.72, 4.67 32.51 C1.82 29.29, -0.24 24.3, -0.18 20.06 C-0.12 15.81, 2.15 10.36, 5.02 7.04 C7.89 3.72, 14.79 1.26, 17.06 0.15 C19.32 -0.97, 18.42 -0.04, 18.59 0.36 M19.19 -0.23 C23.14 -0.86, 28.62 0.74, 31.92 3.49 C35.21 6.24, 37.89 11.94, 38.95 16.26 C40.02 20.59, 40.07 25.63, 38.31 29.45 C36.56 33.26, 32.53 37.53, 28.41 39.15 C24.29 40.76, 17.89 40.65, 13.58 39.14 C9.28 37.62, 4.93 33.75, 2.58 30.07 C0.23 26.4, -1.17 21.32, -0.5 17.08 C0.16 12.84, 3.32 7.47, 6.56 4.64 C9.8 1.81, 16.75 0.69, 18.94 0.09 C21.13 -0.51, 19.79 0.65, 19.71 1.01" stroke="#000000" stroke-width="1" fill="none"/></g><g stroke-linecap="round" transform="translate(68.20559412192782 96.54165649414062) rotate(0 20 20)"><path d="M17.07 0.33 C20.98 -0.53, 26.65 0.6, 30.36 2.78 C34.07 4.97, 37.91 9.37, 39.34 13.43 C40.77 17.5, 40.54 23.09, 38.95 27.17 C37.36 31.26, 33.71 35.88, 29.81 37.94 C25.92 40.01, 19.9 40.52, 15.59 39.56 C11.28 38.61, 6.54 35.53, 3.95 32.23 C1.36 28.94, -0.11 24.09, 0.05 19.78 C0.21 15.47, 2.02 9.59, 4.94 6.37 C7.86 3.14, 15.4 1.32, 17.58 0.41 C19.77 -0.5, 17.94 0.64, 18.04 0.91 M22.23 -0.06 C26.12 0.08, 30.98 2.56, 34.05 5.83 C37.12 9.1, 40.26 15.05, 40.62 19.55 C40.98 24.04, 38.78 29.53, 36.21 32.78 C33.63 36.03, 29.36 38.3, 25.15 39.04 C20.93 39.78, 14.97 39.21, 10.93 37.22 C6.88 35.23, 2.59 30.94, 0.85 27.1 C-0.88 23.27, -0.75 18.23, 0.52 14.23 C1.8 10.22, 4.82 5.31, 8.49 3.07 C12.16 0.83, 20.13 1.32, 22.55 0.78 C24.97 0.24, 23.03 -0.45, 23.03 -0.17" stroke="#000000" stroke-width="1" fill="none"/></g><g stroke-linecap="round" transform="translate(108.20559412192782 16.541656494140625) rotate(0 20 20)"><path d="M23.24 0.11 C27.29 0.56, 32.15 3.92, 34.9 7.23 C37.65 10.55, 39.66 15.73, 39.73 20.01 C39.8 24.28, 37.93 29.69, 35.34 32.9 C32.74 36.11, 28.34 38.56, 24.16 39.26 C19.99 39.97, 14.12 39.14, 10.28 37.13 C6.45 35.12, 2.63 31.17, 1.15 27.21 C-0.32 23.25, 0.07 17.44, 1.44 13.37 C2.81 9.31, 5.62 5.03, 9.35 2.84 C13.09 0.64, 21.34 0.49, 23.84 0.21 C26.34 -0.08, 24.48 0.76, 24.36 1.15 M22.85 -0.37 C26.8 0.15, 31.54 4.1, 34.49 7.47 C37.44 10.84, 40.24 15.55, 40.54 19.84 C40.84 24.13, 39.14 29.92, 36.29 33.22 C33.44 36.53, 27.85 39.07, 23.43 39.67 C19.01 40.26, 13.57 38.94, 9.78 36.81 C5.99 34.67, 2.12 30.85, 0.68 26.87 C-0.75 22.88, -0.29 16.88, 1.18 12.9 C2.65 8.91, 5.76 4.97, 9.51 2.96 C13.26 0.95, 21.55 1.17, 23.68 0.83 C25.81 0.49, 22.38 0.64, 22.28 0.91" stroke="#000000" stroke-width="1" fill="none"/></g><g stroke-linecap="round"><g transform="translate(185.20559412192782 85.54165649414062) rotate(0 13.5 -9)"><path d="M-0.7 0.75 C3.66 -2.12, 22.06 -14.89, 26.72 -18.07 M1.13 0.1 C5.27 -2.5, 21.37 -13.69, 25.63 -16.57" stroke="#000000" stroke-width="1" fill="none"/></g></g><mask/><g stroke-linecap="round"><g transform="translate(184.20559412192782 107.54165649414062) rotate(0 13.5 8.5)"><path d="M0.75 -0.28 C5.38 2.72, 22.61 14.47, 26.93 17.27 M-0.31 -1.47 C4.23 1.2, 21.6 12.11, 25.95 15.29" stroke="#000000" stroke-width="1" fill="none"/></g></g><mask/><g stroke-linecap="round"><g transform="translate(166.20559412192782 116.54165649414062) rotate(0 0 19)"><path d="M-0.13 -0.03 C-0.05 6.22, 0.14 31.45, 0.12 37.85 M0.81 -0.52 C0.85 5.78, 0 32.13, -0.24 38.48" stroke="#000000" stroke-width="1" fill="none"/></g></g><mask/><g stroke-linecap="round"><g transform="translate(149.20559412192782 100.54165649414062) rotate(0 -22.5 5)"><path d="M-0.03 0.12 C-7.61 1.78, -37.72 8.19, -45.15 9.79 M-0.71 -0.29 C-8.41 1.45, -38.31 8.64, -45.65 10.38" stroke="#000000" stroke-width="1" fill="none"/></g></g><mask/><g stroke-linecap="round"><g transform="translate(157.20559412192782 80.54165649414062) rotate(0 -9.5 -14)"><path d="M0.27 -0.32 C-2.92 -4.84, -16.14 -22.68, -19.46 -27.15 M-1.04 -1.54 C-4.41 -6.38, -17.36 -24.24, -20.65 -28.82" stroke="#000000" stroke-width="1" fill="none"/></g></g><mask/><g stroke-linecap="round" transform="translate(10 10) rotate(0 151.4966307277628 95.75000000000003)"><path d="M0 0 C60.77 -1.67, 119.82 -1.76, 302.99 0 M0 0 C101.65 1.89, 202.49 2.12, 302.99 0 M302.99 0 C301.9 39.96, 301.92 83.4, 302.99 191.5 M302.99 0 C301.83 68.55, 301.39 137.42, 302.99 191.5 M302.99 191.5 C190.34 191.75, 75.53 192.37, 0 191.5 M302.99 191.5 C241.82 190.58, 181.3 190.48, 0 191.5 M0 191.5 C0.55 137.29, -1.85 79.3, 0 0 M0 191.5 C-0.43 145.79, -0.73 99.94, 0 0" stroke="#000000" stroke-width="1" fill="none"/></g></svg>