<svg xmlns="http://www.w3.org/2000/svg" version="1.1" viewBox="0 0 163.93657914414064 104.9473684210526" width="163.93657914414064" height="104.9473684210526" class="excalidraw-svg">
  <!-- svg-source:excalidraw -->
  
  <defs>
    <style class="style-fonts">
      @font-face {
        font-family: "Virgil";
        src: url("https://excalidraw.com/Virgil.woff2");
      }
      @font-face {
        font-family: "Cascadia";
        src: url("https://excalidraw.com/Cascadia.woff2");
      }
      @font-face {
        font-family: "Assistant";
        src: url("https://excalidraw.com/Assistant-Regular.woff2");
      }
    </style>
    
  </defs>
  <g stroke-linecap="round" transform="translate(8.186281825571768 10.60298034875484) rotate(0 37.09576926063505 15.375220154078988)"><path d="M0 0 C17.3 0.14, 34.93 1.45, 74.19 0 M0 0 C19.09 -0.04, 38.28 -0.14, 74.19 0 M74.19 0 C75.96 8.8, 74.62 14.64, 74.19 30.75 M74.19 0 C73.38 11.48, 74.69 23.23, 74.19 30.75 M74.19 30.75 C48.78 30.87, 27.88 28.29, 0 30.75 M74.19 30.75 C56.59 30.57, 40.41 31.93, 0 30.75 M0 30.75 C-0.85 23.76, -1.43 19.24, 0 0 M0 30.75 C-0.66 21.95, 0.09 11.98, 0 0" stroke="#646261" stroke-width="1" fill="none"/></g><g stroke-linecap="round" transform="translate(8.674384052685582 46.234442928049134) rotate(0 12.446606791397357 12.20255567784045)"><path d="M0 0 C6.71 -0.63, 14.13 -0.91, 24.89 0 M0 0 C8.34 -0.21, 17.84 -0.07, 24.89 0 M24.89 0 C25.72 8.84, 25.81 17.62, 24.89 24.41 M24.89 0 C25.16 7.94, 24.76 16.21, 24.89 24.41 M24.89 24.41 C18.35 24.73, 10.01 23.46, 0 24.41 M24.89 24.41 C17.85 24.53, 11.44 24.59, 0 24.41 M0 24.41 C0.47 17.83, -0.66 11.19, 0 0 M0 24.41 C-0.3 18.18, 0.23 12.48, 0 0" stroke="#646261" stroke-width="1" fill="none"/></g><g stroke-linecap="round" transform="translate(39.42482436084356 45.25823847382196) rotate(0 20.988395765885684 12.690657904954037)"><path d="M0 0 C11.48 0.22, 23.84 -0.23, 41.98 0 M0 0 C11.51 0.22, 22.88 -0.13, 41.98 0 M41.98 0 C41.94 5.66, 42.25 10.91, 41.98 25.38 M41.98 0 C41.98 7.07, 42.22 13.97, 41.98 25.38 M41.98 25.38 C29.67 25.71, 17.37 24.67, 0 25.38 M41.98 25.38 C31.66 25.7, 21.21 25.64, 0 25.38 M0 25.38 C-0.29 18.78, 0.36 11.17, 0 0 M0 25.38 C-0.41 16.87, -0.59 7.99, 0 0" stroke="#646261" stroke-width="1" fill="none"/></g><g stroke-linecap="round" transform="translate(88.72314929931918 10.602980348755068) rotate(0 15.863322381192575 30.750440308157977)"><path d="M0 0 C8.21 0.45, 15.17 1.83, 31.73 0 M0 0 C8.16 -0.67, 15.94 -0.72, 31.73 0 M31.73 0 C33.36 13.12, 29.76 29.28, 31.73 61.5 M31.73 0 C30.65 16.48, 32.5 31.38, 31.73 61.5 M31.73 61.5 C22.31 62.42, 13.68 61.29, 0 61.5 M31.73 61.5 C24.15 61.43, 15.36 61.29, 0 61.5 M0 61.5 C-0.72 41.49, -1.59 24.04, 0 0 M0 61.5 C-0.73 42.77, 0.21 23.24, 0 0" stroke="#646261" stroke-width="1" fill="none"/></g><g stroke-linecap="round" transform="translate(7.69817959845841 77.96108769043428) rotate(0 56.619858345179864 8.297737860931534)"><path d="M0 0 C28.2 1.13, 57.1 0.18, 113.24 0 M0 0 C30.26 0.2, 60.69 -0.16, 113.24 0 M113.24 0 C112.7 5.06, 113.04 9.59, 113.24 16.6 M113.24 0 C113.24 3.95, 113.37 7.3, 113.24 16.6 M113.24 16.6 C69.17 17.03, 23.42 17.19, 0 16.6 M113.24 16.6 C79.34 16.11, 44.69 15.98, 0 16.6 M0 16.6 C0.24 13.23, 0.72 7.81, 0 0 M0 16.6 C-0.23 11.49, -0.09 7.4, 0 0" stroke="#646261" stroke-width="1" fill="none"/></g><g stroke-linecap="round" transform="translate(3 3) rotate(0 78.96828957207032 49.4736842105263)"><path d="M0 0 C40.31 2.08, 79.53 1.5, 157.94 0 M0 0 C64 -0.28, 125.47 -0.9, 157.94 0 M157.94 0 C158.13 35.45, 158.16 72.5, 157.94 98.95 M157.94 0 C158.29 32.6, 158.08 65.52, 157.94 98.95 M157.94 98.95 C98.08 98.65, 39.74 96.43, 0 98.95 M157.94 98.95 C96.9 99.48, 34.13 99.43, 0 98.95 M0 98.95 C2.44 72.58, 1.86 47.71, 0 0 M0 98.95 C-1.05 71.32, -0.57 44.39, 0 0" stroke="black" stroke-width="1" fill="none"/></g><g transform="translate(23.73389991616841 18.342795338034648) rotate(0 23.46631121896371 3.136050808064283)" stroke="none"><path fill="#646261" d="M -0.17,-0.35 Q -0.17,-0.35 0.35,-0.83 0.89,-1.31 1.52,-1.64 2.15,-1.97 2.83,-2.25 3.50,-2.52 4.19,-2.71 4.89,-2.89 5.39,-2.97 5.90,-3.05 6.38,-3.00 6.86,-2.96 7.27,-2.78 7.67,-2.59 8.00,-2.49 8.33,-2.39 8.77,-2.29 9.21,-2.20 9.73,-2.17 10.24,-2.14 10.87,-2.19 11.49,-2.23 12.23,-2.25 12.96,-2.27 13.71,-2.27 14.47,-2.28 15.12,-2.15 15.77,-2.02 16.30,-1.74 16.83,-1.46 17.17,-1.32 17.51,-1.18 18.02,-1.01 18.53,-0.84 19.13,-0.71 19.74,-0.58 20.62,-0.57 21.49,-0.56 22.74,-0.64 23.99,-0.72 25.35,-0.81 26.71,-0.90 28.01,-1.08 29.32,-1.26 30.46,-1.36 31.60,-1.47 32.52,-1.52 33.44,-1.57 34.12,-1.54 34.80,-1.51 35.31,-1.52 35.81,-1.53 36.58,-1.55 37.35,-1.56 38.27,-1.62 39.19,-1.69 40.25,-1.83 41.30,-1.98 42.52,-2.10 43.75,-2.23 44.91,-2.28 46.08,-2.33 46.98,-2.12 47.89,-1.91 48.37,-1.32 48.85,-0.72 48.83,-0.16 48.81,0.40 48.62,0.81 48.43,1.22 48.69,1.84 48.95,2.45 48.85,2.93 48.75,3.42 48.47,3.82 48.19,4.22 48.18,5.06 48.17,5.89 47.43,6.28 46.70,6.68 45.80,6.84 44.91,7.01 43.58,7.19 42.26,7.37 40.59,7.61 38.91,7.85 37.20,8.08 35.49,8.31 33.95,8.52 32.42,8.72 31.19,8.81 29.97,8.90 29.06,8.96 28.16,9.02 27.49,9.06 26.83,9.10 26.37,9.01 25.90,8.92 25.50,8.66 25.09,8.40 24.69,8.36 24.29,8.33 23.60,8.31 22.90,8.29 21.97,8.27 21.05,8.26 19.85,8.26 18.64,8.25 17.26,8.25 15.88,8.24 14.53,8.17 13.17,8.10 11.83,7.94 10.49,7.77 9.29,7.57 8.09,7.37 7.00,7.09 5.91,6.81 4.82,6.50 3.74,6.19 2.72,5.87 1.69,5.55 0.83,5.30 -0.03,5.04 -0.68,4.67 -1.34,4.29 -0.99,2.42 -0.63,0.55 -0.60,0.50 -0.57,0.44 -0.52,0.40 -0.47,0.36 -0.41,0.33 -0.35,0.31 -0.29,0.31 -0.23,0.30 -0.16,0.32 -0.10,0.34 -0.05,0.37 -0.00,0.41 0.03,0.46 0.07,0.51 0.09,0.57 0.11,0.63 0.11,0.69 0.11,0.75 0.10,0.81 0.08,0.88 0.04,0.93 0.00,0.98 -0.04,1.01 -0.10,1.05 -0.16,1.07 -0.22,1.09 -0.28,1.08 -0.35,1.08 -0.40,1.06 -0.46,1.03 -0.51,0.99 -0.56,0.95 -0.60,0.90 -0.63,0.84 -0.64,0.78 -0.66,0.72 -0.65,0.66 -0.65,0.59 -0.62,0.54 -0.59,0.48 -0.55,0.43 -0.51,0.38 -0.45,0.35 -0.39,0.32 -0.33,0.31 -0.27,0.30 -0.21,0.31 -0.14,0.32 -0.09,0.35 -0.03,0.38 0.00,0.42 0.05,0.47 0.08,0.53 0.10,0.58 0.11,0.65 0.12,0.71 0.11,0.77 0.09,0.84 0.09,0.84 0.09,0.84 -0.18,1.95 -0.47,3.06 -0.02,3.28 0.43,3.50 1.30,3.76 2.17,4.02 3.17,4.33 4.18,4.64 5.24,4.93 6.31,5.22 7.33,5.47 8.36,5.72 9.52,5.89 10.69,6.07 11.97,6.21 13.25,6.35 14.57,6.40 15.88,6.46 17.27,6.46 18.65,6.46 19.86,6.46 21.07,6.46 22.01,6.46 22.95,6.47 23.72,6.49 24.50,6.50 25.05,6.59 25.59,6.67 26.05,6.99 26.50,7.32 26.71,7.59 26.92,7.86 27.51,7.97 28.09,8.07 28.96,8.00 29.84,7.92 31.04,7.70 32.23,7.47 33.76,7.22 35.30,6.97 36.99,6.73 38.69,6.48 40.36,6.18 42.03,5.88 43.31,5.66 44.59,5.44 45.43,5.26 46.27,5.08 46.67,4.99 47.08,4.90 46.88,5.21 46.69,5.51 46.49,5.12 46.29,4.73 46.32,4.32 46.36,3.92 46.77,3.36 47.18,2.81 46.91,2.50 46.65,2.20 46.56,1.74 46.47,1.28 46.62,0.84 46.76,0.40 47.01,0.05 47.26,-0.30 46.71,-0.41 46.15,-0.53 45.04,-0.48 43.94,-0.42 42.74,-0.29 41.55,-0.17 40.43,-0.01 39.30,0.13 38.32,0.18 37.33,0.24 36.54,0.20 35.74,0.17 35.21,0.12 34.68,0.07 34.09,0.00 33.49,-0.06 32.59,-0.05 31.69,-0.04 30.59,0.00 29.49,0.05 28.15,0.21 26.82,0.38 25.47,0.52 24.12,0.66 22.81,0.83 21.50,1.00 20.44,1.01 19.39,1.02 18.68,0.86 17.96,0.70 17.41,0.48 16.86,0.26 16.47,0.08 16.07,-0.09 15.75,-0.29 15.42,-0.49 14.95,-0.60 14.47,-0.71 13.74,-0.71 13.00,-0.70 12.29,-0.68 11.58,-0.66 10.85,-0.63 10.12,-0.59 9.49,-0.66 8.86,-0.73 8.36,-0.86 7.87,-0.99 7.46,-1.13 7.04,-1.26 6.59,-1.37 6.14,-1.48 5.72,-1.41 5.30,-1.34 4.70,-1.18 4.10,-1.03 3.49,-0.78 2.87,-0.54 2.23,-0.23 1.58,0.07 0.88,0.21 0.17,0.35 0.13,0.37 0.08,0.39 0.04,0.39 -0.00,0.40 -0.05,0.39 -0.10,0.38 -0.14,0.37 -0.19,0.35 -0.23,0.32 -0.27,0.29 -0.30,0.25 -0.33,0.22 -0.35,0.17 -0.37,0.13 -0.38,0.08 -0.39,0.04 -0.39,-0.00 -0.39,-0.05 -0.38,-0.10 -0.37,-0.14 -0.34,-0.19 -0.32,-0.23 -0.29,-0.27 -0.26,-0.30 -0.22,-0.33 -0.17,-0.35 -0.17,-0.35 L -0.17,-0.35 Z"/></g><g transform="translate(23.51762055009499 29.58932237385136) rotate(0 22.601193754670135 0.4325587321468447)" stroke="none"><path fill="#646261" d="M 0.28,0.28 Q 0.28,0.28 0.30,0.55 0.32,0.82 0.24,0.88 0.17,0.94 0.08,0.98 -0.00,1.02 -0.10,1.04 -0.19,1.06 -0.29,1.05 -0.39,1.04 -0.48,1.02 -0.58,0.99 -0.66,0.94 -0.75,0.88 -0.82,0.82 -0.88,0.75 -0.94,0.66 -0.99,0.58 -1.02,0.48 -1.04,0.39 -1.05,0.29 -1.06,0.19 -1.04,0.10 -1.02,0.00 -0.98,-0.08 -0.94,-0.17 -0.88,-0.24 -0.82,-0.32 -0.29,-0.46 0.23,-0.59 0.74,-0.66 1.25,-0.73 1.94,-0.89 2.63,-1.04 3.36,-1.23 4.09,-1.43 4.83,-1.52 5.58,-1.61 6.11,-1.64 6.65,-1.67 7.06,-1.51 7.48,-1.35 7.75,-1.09 8.01,-0.83 8.30,-0.59 8.58,-0.36 9.10,-0.26 9.62,-0.16 10.48,-0.16 11.34,-0.16 12.41,-0.21 13.48,-0.26 14.39,-0.27 15.30,-0.29 16.15,-0.20 17.00,-0.12 17.60,0.05 18.20,0.22 18.66,0.43 19.11,0.64 19.55,0.79 19.99,0.93 20.57,1.01 21.16,1.09 21.97,1.13 22.79,1.16 23.93,1.10 25.07,1.03 26.11,0.91 27.15,0.79 28.30,0.69 29.44,0.60 30.49,0.54 31.54,0.48 32.54,0.46 33.55,0.43 34.63,0.36 35.72,0.29 36.93,0.23 38.15,0.17 39.66,0.11 41.16,0.04 43.40,0.05 45.63,0.05 45.69,0.06 45.76,0.07 45.81,0.09 45.87,0.12 45.92,0.17 45.96,0.21 45.99,0.27 46.02,0.32 46.03,0.39 46.04,0.45 46.03,0.51 46.02,0.58 45.99,0.63 45.96,0.69 45.91,0.73 45.86,0.77 45.81,0.80 45.75,0.83 45.68,0.83 45.62,0.84 45.56,0.82 45.50,0.81 45.44,0.78 45.39,0.74 45.35,0.69 45.31,0.65 45.28,0.59 45.26,0.53 45.26,0.46 45.26,0.40 45.27,0.34 45.29,0.28 45.33,0.22 45.36,0.17 45.41,0.13 45.47,0.10 45.53,0.08 45.59,0.06 45.65,0.06 45.71,0.06 45.77,0.08 45.83,0.10 45.89,0.14 45.94,0.18 45.97,0.23 46.01,0.28 46.02,0.35 46.04,0.41 46.03,0.47 46.03,0.53 46.01,0.59 45.98,0.65 45.94,0.70 45.90,0.75 45.84,0.78 45.79,0.81 45.73,0.83 45.66,0.84 45.66,0.84 45.66,0.84 43.48,1.07 41.30,1.29 39.78,1.55 38.27,1.81 37.04,1.93 35.82,2.05 34.69,2.12 33.56,2.18 32.56,2.16 31.56,2.15 30.52,2.12 29.49,2.09 28.37,2.07 27.25,2.05 26.19,2.09 25.12,2.14 23.94,2.17 22.76,2.21 21.91,2.20 21.06,2.18 20.35,2.14 19.65,2.10 19.12,1.96 18.58,1.83 18.21,1.66 17.85,1.50 17.38,1.39 16.91,1.27 16.13,1.25 15.35,1.23 14.46,1.28 13.58,1.32 12.47,1.41 11.36,1.49 10.32,1.51 9.29,1.53 8.55,1.38 7.82,1.23 7.36,0.95 6.90,0.66 6.76,0.35 6.63,0.04 6.20,0.08 5.78,0.12 5.15,0.19 4.51,0.25 3.75,0.44 2.99,0.63 2.22,0.78 1.45,0.93 0.89,0.87 0.32,0.82 0.24,0.88 0.17,0.94 0.08,0.98 -0.00,1.02 -0.10,1.04 -0.19,1.06 -0.29,1.05 -0.39,1.04 -0.48,1.02 -0.58,0.99 -0.66,0.94 -0.75,0.88 -0.82,0.82 -0.88,0.75 -0.94,0.66 -0.99,0.58 -1.02,0.48 -1.04,0.39 -1.05,0.29 -1.06,0.19 -1.04,0.10 -1.02,0.00 -0.98,-0.08 -0.94,-0.17 -0.88,-0.24 -0.82,-0.32 -0.55,-0.30 -0.28,-0.28 -0.24,-0.31 -0.20,-0.34 -0.16,-0.35 -0.11,-0.37 -0.07,-0.38 -0.02,-0.39 0.02,-0.39 0.07,-0.39 0.11,-0.37 0.16,-0.36 0.20,-0.33 0.24,-0.31 0.27,-0.27 0.31,-0.24 0.33,-0.20 0.36,-0.16 0.37,-0.11 0.39,-0.07 0.39,-0.02 0.39,0.02 0.38,0.07 0.37,0.11 0.35,0.16 0.34,0.20 0.31,0.24 0.28,0.28 0.28,0.28 L 0.28,0.28 Z"/></g><g transform="translate(22.21994435365457 36.29398272212677) rotate(0 22.168635022523404 -1.1895365134037093)" stroke="none"><path fill="#646261" d="M -0.19,-0.35 Q -0.19,-0.35 0.29,-0.79 0.77,-1.23 1.47,-1.55 2.17,-1.88 2.99,-2.15 3.81,-2.42 4.61,-2.61 5.41,-2.81 6.12,-2.84 6.83,-2.88 7.49,-2.77 8.16,-2.66 8.81,-2.49 9.46,-2.31 10.18,-2.19 10.91,-2.07 11.77,-1.96 12.64,-1.85 13.60,-1.80 14.57,-1.75 15.77,-1.80 16.96,-1.84 18.18,-1.85 19.39,-1.86 20.59,-1.85 21.79,-1.83 23.19,-1.76 24.59,-1.68 25.75,-1.60 26.91,-1.52 28.08,-1.43 29.26,-1.34 30.50,-1.24 31.74,-1.14 33.18,-1.07 34.62,-0.99 36.10,-0.96 37.57,-0.93 39.07,-0.94 40.57,-0.95 42.11,-0.98 43.64,-1.02 43.71,-1.01 43.77,-1.00 43.83,-0.97 43.89,-0.94 43.93,-0.90 43.98,-0.85 44.00,-0.80 44.03,-0.74 44.04,-0.68 44.05,-0.61 44.04,-0.55 44.03,-0.49 44.00,-0.43 43.97,-0.38 43.92,-0.33 43.87,-0.29 43.81,-0.27 43.75,-0.24 43.69,-0.23 43.63,-0.23 43.57,-0.24 43.50,-0.26 43.45,-0.29 43.40,-0.33 43.36,-0.38 43.32,-0.43 43.29,-0.49 43.27,-0.55 43.27,-0.61 43.27,-0.67 43.28,-0.73 43.30,-0.80 43.34,-0.85 43.38,-0.90 43.43,-0.94 43.48,-0.97 43.54,-0.99 43.60,-1.01 43.67,-1.01 43.73,-1.01 43.79,-0.99 43.85,-0.97 43.90,-0.93 43.95,-0.89 43.98,-0.83 44.02,-0.78 44.03,-0.72 44.05,-0.66 44.04,-0.59 44.04,-0.53 44.01,-0.47 43.99,-0.41 43.95,-0.36 43.91,-0.32 43.85,-0.28 43.79,-0.25 43.73,-0.24 43.67,-0.23 43.67,-0.23 43.67,-0.23 42.14,-0.16 40.62,-0.10 39.11,0.04 37.60,0.19 36.09,0.31 34.58,0.42 33.10,0.41 31.61,0.40 30.37,0.29 29.13,0.18 27.96,0.07 26.79,-0.03 25.66,-0.12 24.53,-0.21 23.17,-0.25 21.80,-0.30 20.61,-0.27 19.42,-0.24 18.22,-0.22 17.02,-0.20 15.75,-0.16 14.48,-0.12 13.45,-0.17 12.42,-0.23 11.52,-0.36 10.62,-0.49 9.83,-0.64 9.03,-0.79 8.44,-0.97 7.85,-1.14 7.35,-1.27 6.85,-1.40 6.28,-1.42 5.72,-1.43 4.98,-1.28 4.24,-1.13 3.50,-0.88 2.75,-0.63 2.10,-0.32 1.46,-0.00 0.82,0.17 0.19,0.35 0.15,0.36 0.10,0.38 0.05,0.39 0.00,0.40 -0.03,0.39 -0.08,0.39 -0.13,0.37 -0.17,0.36 -0.21,0.33 -0.25,0.30 -0.29,0.27 -0.32,0.23 -0.34,0.19 -0.37,0.15 -0.38,0.10 -0.39,0.05 -0.39,0.00 -0.39,-0.03 -0.38,-0.08 -0.37,-0.13 -0.35,-0.17 -0.33,-0.22 -0.30,-0.25 -0.27,-0.29 -0.23,-0.32 -0.19,-0.35 -0.19,-0.35 L -0.19,-0.35 Z"/></g><g transform="translate(14.43388717501216 53.59633200799874) rotate(0 5.839542883981778 -0.6488380982202102)" stroke="none"><path fill="#646261" d="M -0.11,-0.37 Q -0.11,-0.37 0.63,-0.81 1.38,-1.25 2.46,-1.43 3.54,-1.62 4.61,-1.73 5.69,-1.85 6.73,-1.87 7.77,-1.90 9.70,-1.28 11.63,-0.66 11.69,-0.62 11.74,-0.59 11.78,-0.54 11.82,-0.49 11.84,-0.43 11.86,-0.37 11.87,-0.31 11.87,-0.24 11.85,-0.18 11.83,-0.12 11.79,-0.07 11.76,-0.02 11.71,0.01 11.65,0.05 11.59,0.07 11.53,0.09 11.47,0.08 11.40,0.08 11.34,0.06 11.28,0.04 11.24,0.00 11.19,-0.03 11.15,-0.08 11.12,-0.14 11.10,-0.20 11.09,-0.26 11.09,-0.33 11.09,-0.39 11.12,-0.45 11.14,-0.51 11.19,-0.55 11.23,-0.60 11.29,-0.63 11.34,-0.66 11.40,-0.68 11.47,-0.69 11.53,-0.68 11.59,-0.67 11.65,-0.64 11.71,-0.62 11.75,-0.57 11.80,-0.53 11.83,-0.47 11.85,-0.41 11.86,-0.35 11.87,-0.29 11.86,-0.22 11.85,-0.16 11.82,-0.10 11.79,-0.05 11.74,-0.01 11.69,0.03 11.63,0.05 11.57,0.08 11.51,0.08 11.45,0.09 11.39,0.07 11.32,0.06 11.32,0.06 11.32,0.06 9.58,-0.22 7.84,-0.52 6.86,-0.43 5.88,-0.34 4.84,-0.19 3.80,-0.04 2.82,0.10 1.84,0.26 0.98,0.31 0.11,0.37 0.06,0.38 0.02,0.39 -0.02,0.39 -0.07,0.38 -0.11,0.37 -0.16,0.35 -0.20,0.33 -0.24,0.30 -0.27,0.27 -0.31,0.24 -0.33,0.20 -0.35,0.16 -0.37,0.11 -0.38,0.06 -0.39,0.02 -0.39,-0.02 -0.38,-0.07 -0.37,-0.11 -0.35,-0.16 -0.33,-0.20 -0.30,-0.24 -0.27,-0.27 -0.24,-0.30 -0.20,-0.33 -0.15,-0.35 -0.11,-0.37 -0.11,-0.37 L -0.11,-0.37 Z"/></g><g transform="translate(11.838534782131433 60.949830454494304) rotate(0 6.163961933091855 -1.2976761964404204)" stroke="none"><path fill="#646261" d="M -0.13,-0.37 Q -0.13,-0.37 0.66,-0.88 1.46,-1.39 2.45,-1.76 3.44,-2.12 4.52,-2.40 5.61,-2.68 6.58,-2.86 7.55,-3.04 8.27,-3.05 8.99,-3.06 10.66,-2.16 12.34,-1.27 12.39,-1.24 12.45,-1.21 12.50,-1.17 12.54,-1.12 12.57,-1.06 12.60,-1.01 12.60,-0.94 12.61,-0.88 12.60,-0.82 12.59,-0.75 12.55,-0.70 12.52,-0.64 12.47,-0.60 12.43,-0.56 12.37,-0.53 12.31,-0.51 12.25,-0.51 12.18,-0.50 12.12,-0.52 12.06,-0.53 12.01,-0.57 11.95,-0.60 11.91,-0.65 11.87,-0.70 11.85,-0.76 11.83,-0.82 11.83,-0.89 11.83,-0.95 11.85,-1.01 11.87,-1.07 11.90,-1.12 11.94,-1.17 11.99,-1.21 12.05,-1.25 12.11,-1.27 12.17,-1.28 12.23,-1.28 12.30,-1.28 12.36,-1.26 12.42,-1.23 12.46,-1.19 12.51,-1.15 12.55,-1.10 12.58,-1.05 12.60,-0.98 12.61,-0.92 12.61,-0.86 12.60,-0.79 12.57,-0.74 12.55,-0.68 12.50,-0.63 12.46,-0.58 12.41,-0.55 12.35,-0.52 12.29,-0.51 12.22,-0.50 12.16,-0.51 12.10,-0.52 12.10,-0.52 12.10,-0.52 10.54,-1.08 8.98,-1.64 8.40,-1.62 7.83,-1.60 6.92,-1.41 6.01,-1.22 5.01,-0.93 4.00,-0.64 3.01,-0.24 2.01,0.15 1.07,0.26 0.13,0.37 0.08,0.38 0.04,0.39 -0.00,0.39 -0.05,0.39 -0.10,0.38 -0.14,0.36 -0.19,0.34 -0.23,0.32 -0.26,0.29 -0.30,0.25 -0.32,0.21 -0.35,0.17 -0.37,0.13 -0.38,0.08 -0.39,0.04 -0.39,-0.00 -0.39,-0.05 -0.38,-0.10 -0.36,-0.14 -0.34,-0.19 -0.32,-0.23 -0.29,-0.27 -0.25,-0.30 -0.21,-0.33 -0.17,-0.35 -0.13,-0.37 -0.13,-0.37 L -0.13,-0.37 Z"/></g><g transform="translate(14.217607808938851 66.78937333847603) rotate(0 7.786057178642352 -0.3244190491100767)" stroke="none"><path fill="#646261" d="M 0.09,-0.38 Q 0.09,-0.38 0.38,-0.53 0.66,-0.68 1.05,-0.76 1.43,-0.84 2.13,-1.02 2.82,-1.20 3.69,-1.46 4.56,-1.71 5.47,-1.90 6.37,-2.08 7.11,-2.09 7.85,-2.09 8.51,-1.96 9.18,-1.83 9.63,-1.65 10.08,-1.47 10.58,-1.22 11.09,-0.98 11.67,-0.74 12.25,-0.49 13.84,0.04 15.42,0.59 15.48,0.62 15.54,0.64 15.59,0.68 15.64,0.72 15.67,0.78 15.70,0.83 15.72,0.89 15.73,0.96 15.72,1.02 15.72,1.08 15.69,1.14 15.66,1.20 15.62,1.25 15.58,1.29 15.52,1.32 15.46,1.35 15.40,1.36 15.34,1.37 15.27,1.36 15.21,1.35 15.16,1.32 15.10,1.29 15.06,1.24 15.01,1.20 14.98,1.14 14.96,1.08 14.95,1.02 14.94,0.96 14.96,0.89 14.97,0.83 15.01,0.78 15.04,0.72 15.09,0.68 15.14,0.64 15.20,0.62 15.25,0.59 15.32,0.59 15.38,0.59 15.44,0.60 15.50,0.62 15.56,0.66 15.61,0.69 15.65,0.74 15.69,0.79 15.71,0.85 15.73,0.91 15.73,0.98 15.73,1.04 15.71,1.10 15.69,1.16 15.65,1.21 15.61,1.26 15.56,1.30 15.50,1.34 15.44,1.35 15.38,1.37 15.32,1.37 15.25,1.36 15.25,1.36 15.25,1.36 13.53,1.01 11.82,0.66 11.12,0.44 10.43,0.21 9.99,-0.06 9.56,-0.34 9.25,-0.50 8.94,-0.67 8.40,-0.77 7.87,-0.88 7.25,-0.85 6.63,-0.83 5.80,-0.65 4.97,-0.47 4.11,-0.16 3.24,0.14 2.48,0.42 1.71,0.70 1.02,0.81 0.32,0.93 0.11,0.66 -0.09,0.38 -0.14,0.37 -0.18,0.35 -0.22,0.32 -0.26,0.29 -0.29,0.26 -0.32,0.22 -0.35,0.18 -0.37,0.14 -0.38,0.09 -0.39,0.04 -0.39,-0.00 -0.39,-0.04 -0.38,-0.09 -0.37,-0.14 -0.35,-0.18 -0.32,-0.22 -0.29,-0.26 -0.26,-0.29 -0.22,-0.32 -0.18,-0.35 -0.13,-0.37 -0.09,-0.38 -0.04,-0.39 0.00,-0.39 0.04,-0.39 0.09,-0.38 0.09,-0.38 L 0.09,-0.38 Z"/></g><g transform="translate(46.226953987801835 55.11028757051247) rotate(0 5.190704785761568 -2.2709333437706505)" stroke="none"><path fill="#646261" d="M -0.23,0.31 Q -0.23,0.31 -0.60,0.29 -0.98,0.27 -1.26,-0.12 -1.54,-0.52 -1.57,-0.91 -1.59,-1.30 -1.31,-1.71 -1.03,-2.13 -0.48,-2.56 0.05,-2.99 0.73,-3.40 1.41,-3.81 2.16,-4.17 2.90,-4.53 3.57,-4.76 4.24,-4.99 5.09,-4.69 5.94,-4.38 5.64,-3.65 5.34,-2.92 5.15,-2.49 4.95,-2.05 4.89,-1.97 4.84,-1.88 4.76,-1.82 4.68,-1.75 4.59,-1.70 4.50,-1.66 4.41,-1.63 4.31,-1.61 4.20,-1.61 4.10,-1.61 4.00,-1.63 3.91,-1.66 3.82,-1.71 3.73,-1.75 3.65,-1.82 3.58,-1.89 3.52,-1.97 3.46,-2.06 3.43,-2.15 3.39,-2.25 3.38,-2.35 3.37,-2.45 3.38,-2.55 3.39,-2.65 3.43,-2.75 3.46,-2.84 4.14,-3.05 4.82,-3.26 5.19,-3.37 5.56,-3.49 6.19,-3.66 6.82,-3.83 7.49,-4.08 8.16,-4.33 9.24,-3.98 10.33,-3.64 10.37,-3.65 10.42,-3.66 10.47,-3.66 10.51,-3.66 10.56,-3.65 10.61,-3.64 10.65,-3.61 10.69,-3.59 10.72,-3.56 10.76,-3.53 10.79,-3.49 10.81,-3.45 10.83,-3.40 10.84,-3.36 10.85,-3.31 10.86,-3.26 10.85,-3.22 10.84,-3.17 10.83,-3.13 10.81,-3.08 10.78,-3.04 10.75,-3.00 10.72,-2.97 10.68,-2.94 10.64,-2.92 10.60,-2.90 10.53,-2.89 10.47,-2.87 10.40,-2.88 10.34,-2.89 10.28,-2.92 10.23,-2.95 10.18,-3.00 10.14,-3.04 10.11,-3.10 10.08,-3.16 10.08,-3.22 10.07,-3.29 10.08,-3.35 10.09,-3.41 10.13,-3.47 10.16,-3.52 10.21,-3.56 10.25,-3.60 10.31,-3.63 10.37,-3.65 10.44,-3.66 10.50,-3.66 10.56,-3.64 10.62,-3.63 10.68,-3.59 10.73,-3.56 10.77,-3.51 10.81,-3.46 10.83,-3.40 10.85,-3.34 10.85,-3.27 10.85,-3.21 10.83,-3.15 10.81,-3.09 10.77,-3.04 10.74,-2.99 10.68,-2.95 10.63,-2.91 10.57,-2.90 10.51,-2.88 10.44,-2.88 10.38,-2.88 10.32,-2.91 10.26,-2.93 10.21,-2.97 10.16,-3.01 10.13,-3.06 10.10,-3.12 10.08,-3.18 10.07,-3.24 10.07,-3.31 10.08,-3.37 10.11,-3.43 10.13,-3.49 10.18,-3.53 10.22,-3.58 10.28,-3.61 10.33,-3.64 10.33,-3.64 10.33,-3.64 10.37,-3.65 10.42,-3.66 10.47,-3.66 10.51,-3.66 10.56,-3.65 10.61,-3.64 10.65,-3.61 10.69,-3.59 10.72,-3.56 10.76,-3.53 10.79,-3.49 10.81,-3.45 10.83,-3.40 10.84,-3.36 10.85,-3.31 10.86,-3.26 10.85,-3.22 10.84,-3.17 10.83,-3.13 10.81,-3.08 10.78,-3.04 10.75,-3.00 10.72,-2.97 10.68,-2.94 10.64,-2.92 10.60,-2.90 9.68,-2.79 8.77,-2.68 8.02,-2.40 7.27,-2.13 6.61,-1.96 5.96,-1.78 5.45,-1.92 4.95,-2.05 4.89,-1.97 4.84,-1.88 4.76,-1.82 4.68,-1.75 4.59,-1.70 4.50,-1.66 4.41,-1.63 4.31,-1.61 4.20,-1.61 4.10,-1.61 4.00,-1.63 3.91,-1.66 3.82,-1.71 3.73,-1.75 3.65,-1.82 3.58,-1.89 3.52,-1.97 3.46,-2.06 3.43,-2.15 3.39,-2.25 3.38,-2.35 3.37,-2.45 3.38,-2.55 3.39,-2.65 3.43,-2.75 3.46,-2.84 3.53,-3.04 3.60,-3.23 3.97,-3.70 4.35,-4.17 4.55,-3.81 4.76,-3.45 4.21,-3.25 3.66,-3.05 3.00,-2.70 2.34,-2.35 1.75,-1.95 1.17,-1.56 0.57,-1.29 -0.01,-1.01 0.11,-0.66 0.23,-0.31 0.27,-0.28 0.30,-0.25 0.33,-0.21 0.35,-0.17 0.37,-0.12 0.39,-0.08 0.39,-0.03 0.39,0.01 0.39,0.06 0.38,0.11 0.36,0.15 0.34,0.19 0.31,0.23 0.28,0.27 0.25,0.30 0.21,0.33 0.16,0.35 0.12,0.37 0.07,0.38 0.03,0.39 -0.01,0.39 -0.06,0.39 -0.10,0.38 -0.15,0.36 -0.19,0.34 -0.23,0.31 -0.23,0.31 L -0.23,0.31 Z"/></g><g transform="translate(56.39208419325155 51.866097079411475) rotate(0 -5.623263517908299 6.704660348275411)" stroke="none"><path fill="#646261" d="M 0.40,0 Q 0.40,0 0.44,0.54 0.49,1.09 0.70,1.48 0.90,1.88 1.24,2.29 1.58,2.70 2.00,3.20 2.42,3.69 2.63,4.27 2.84,4.85 2.64,5.44 2.44,6.04 1.67,6.69 0.90,7.33 0.05,7.98 -0.78,8.63 -1.55,9.24 -2.32,9.85 -2.91,10.28 -3.50,10.70 -3.80,10.94 -4.10,11.17 -3.73,11.55 -3.35,11.92 -3.43,12.32 -3.50,12.72 -3.89,13.05 -4.27,13.39 -4.77,13.64 -5.26,13.89 -6.07,14.01 -6.88,14.13 -7.77,14.15 -8.65,14.17 -9.64,14.07 -10.63,13.97 -11.45,13.81 -12.28,13.64 -12.95,13.10 -13.63,12.57 -13.62,10.61 -13.62,8.66 -13.60,8.59 -13.59,8.53 -13.55,8.48 -13.52,8.42 -13.47,8.38 -13.42,8.34 -13.36,8.32 -13.30,8.30 -13.24,8.30 -13.17,8.30 -13.11,8.31 -13.05,8.33 -13.00,8.37 -12.95,8.41 -12.91,8.46 -12.87,8.51 -12.85,8.57 -12.83,8.63 -12.84,8.69 -12.84,8.76 -12.86,8.82 -12.88,8.88 -12.92,8.93 -12.96,8.98 -13.01,9.01 -13.07,9.05 -13.13,9.06 -13.19,9.08 -13.25,9.07 -13.32,9.07 -13.38,9.04 -13.44,9.02 -13.48,8.98 -13.53,8.93 -13.56,8.88 -13.59,8.82 -13.61,8.76 -13.62,8.70 -13.61,8.63 -13.60,8.57 -13.57,8.51 -13.55,8.46 -13.50,8.41 -13.46,8.37 -13.40,8.34 -13.34,8.31 -13.28,8.30 -13.22,8.29 -13.15,8.30 -13.09,8.32 -13.03,8.35 -12.98,8.38 -12.94,8.43 -12.89,8.47 -12.87,8.53 -12.84,8.59 -12.84,8.65 -12.83,8.72 -12.83,8.72 -12.83,8.72 -12.68,10.10 -12.54,11.48 -12.19,11.71 -11.84,11.94 -11.13,12.12 -10.43,12.29 -9.58,12.41 -8.72,12.53 -7.91,12.47 -7.10,12.42 -6.54,12.36 -5.99,12.30 -5.61,12.14 -5.23,11.97 -4.87,12.06 -4.52,12.14 -4.79,11.74 -5.06,11.34 -4.99,10.87 -4.92,10.40 -4.59,10.03 -4.27,9.65 -3.68,9.21 -3.09,8.78 -2.26,8.25 -1.44,7.72 -0.57,7.14 0.28,6.57 0.91,6.09 1.53,5.61 1.69,5.31 1.84,5.02 1.71,4.67 1.58,4.33 1.20,3.81 0.82,3.30 0.45,2.80 0.08,2.30 -0.20,1.72 -0.49,1.14 -0.44,0.57 -0.40,0 -0.39,-0.04 -0.38,-0.09 -0.37,-0.14 -0.35,-0.18 -0.32,-0.22 -0.29,-0.26 -0.26,-0.29 -0.22,-0.32 -0.18,-0.35 -0.14,-0.37 -0.09,-0.38 -0.04,-0.39 0.00,-0.39 0.04,-0.39 0.09,-0.38 0.14,-0.37 0.18,-0.35 0.22,-0.32 0.26,-0.29 0.29,-0.26 0.32,-0.22 0.35,-0.18 0.37,-0.14 0.38,-0.09 0.39,-0.04 0.40,0.00 0.40,0.00 L 0.40,0 Z"/></g><g transform="translate(56.17580482717824 60.084712990200615) rotate(0 4.650006370578069 0.10813968303671118)" stroke="none"><path fill="#646261" d="M 0.02,-0.39 Q 0.02,-0.39 0.91,-0.61 1.80,-0.83 2.77,-0.80 3.74,-0.77 4.72,-0.74 5.69,-0.70 7.51,-0.44 9.33,-0.17 9.39,-0.16 9.45,-0.15 9.51,-0.12 9.57,-0.09 9.61,-0.05 9.65,-0.00 9.68,0.05 9.71,0.11 9.71,0.17 9.72,0.23 9.71,0.30 9.69,0.36 9.66,0.41 9.63,0.47 9.58,0.51 9.53,0.55 9.47,0.57 9.41,0.60 9.35,0.60 9.28,0.60 9.22,0.59 9.16,0.57 9.11,0.53 9.05,0.50 9.02,0.45 8.98,0.39 8.96,0.33 8.94,0.27 8.94,0.21 8.94,0.15 8.96,0.09 8.98,0.03 9.02,-0.02 9.06,-0.07 9.11,-0.10 9.16,-0.14 9.22,-0.15 9.28,-0.17 9.35,-0.17 9.41,-0.16 9.47,-0.14 9.53,-0.12 9.58,-0.07 9.63,-0.03 9.66,0.01 9.69,0.07 9.71,0.13 9.72,0.19 9.71,0.25 9.71,0.32 9.68,0.38 9.65,0.43 9.61,0.48 9.56,0.53 9.51,0.55 9.45,0.58 9.39,0.59 9.32,0.60 9.32,0.60 9.32,0.60 7.50,0.85 5.67,1.10 4.68,1.11 3.69,1.12 2.68,1.10 1.67,1.07 0.82,0.73 -0.02,0.39 -0.07,0.38 -0.12,0.37 -0.16,0.35 -0.20,0.33 -0.24,0.30 -0.28,0.27 -0.31,0.24 -0.34,0.20 -0.36,0.15 -0.38,0.11 -0.38,0.06 -0.39,0.01 -0.39,-0.02 -0.39,-0.07 -0.37,-0.12 -0.36,-0.16 -0.33,-0.20 -0.31,-0.24 -0.27,-0.28 -0.24,-0.31 -0.20,-0.34 -0.15,-0.36 -0.11,-0.37 -0.06,-0.39 -0.01,-0.39 0.02,-0.39 0.02,-0.39 L 0.02,-0.39 Z"/></g><g transform="translate(63.31302390760038 57.70563996339331) rotate(0 2.703492075917495 2.487212709844073)" stroke="none"><path fill="#646261" d="M 0.08,-0.38 Q 0.08,-0.38 0.70,-0.52 1.32,-0.65 1.96,-0.47 2.60,-0.29 3.36,0.06 4.12,0.41 4.73,0.87 5.34,1.32 4.51,2.92 3.68,4.51 3.71,4.55 3.75,4.58 3.77,4.62 3.80,4.66 3.82,4.70 3.83,4.75 3.84,4.79 3.84,4.84 3.84,4.89 3.83,4.93 3.81,4.98 3.80,5.02 3.77,5.06 3.74,5.10 3.70,5.13 3.67,5.16 3.63,5.18 3.58,5.21 3.54,5.22 3.49,5.23 3.44,5.23 3.40,5.23 3.35,5.21 3.30,5.20 3.26,5.18 3.22,5.16 3.38,5.19 3.54,5.22 3.48,5.22 3.42,5.23 3.36,5.21 3.29,5.20 3.24,5.16 3.19,5.13 3.15,5.08 3.11,5.03 3.08,4.97 3.06,4.91 3.06,4.85 3.06,4.78 3.08,4.72 3.10,4.66 3.13,4.61 3.17,4.56 3.22,4.52 3.27,4.48 3.34,4.46 3.40,4.44 3.46,4.45 3.52,4.45 3.58,4.47 3.64,4.49 3.69,4.53 3.74,4.57 3.78,4.63 3.81,4.68 3.83,4.74 3.84,4.80 3.84,4.87 3.83,4.93 3.81,4.99 3.78,5.05 3.74,5.10 3.70,5.14 3.64,5.17 3.58,5.21 3.52,5.22 3.46,5.23 3.40,5.22 3.33,5.21 3.28,5.18 3.22,5.16 3.17,5.11 3.13,5.06 3.10,5.01 3.07,4.95 3.06,4.89 3.06,4.82 3.07,4.76 3.08,4.70 3.11,4.64 3.14,4.59 3.19,4.55 3.24,4.50 3.46,4.51 3.68,4.51 3.71,4.55 3.75,4.58 3.77,4.62 3.80,4.66 3.82,4.70 3.83,4.75 3.84,4.79 3.84,4.84 3.84,4.89 3.83,4.93 3.81,4.98 3.80,5.02 3.77,5.06 3.74,5.10 3.70,5.13 3.67,5.16 3.63,5.18 3.58,5.21 3.54,5.22 3.49,5.23 3.44,5.23 3.40,5.23 3.35,5.21 3.30,5.20 3.26,5.18 3.22,5.16 3.76,3.94 4.29,2.72 3.81,2.40 3.33,2.08 2.70,1.79 2.07,1.50 1.49,1.32 0.91,1.15 0.41,0.77 -0.08,0.38 -0.13,0.37 -0.17,0.35 -0.21,0.33 -0.25,0.30 -0.28,0.26 -0.32,0.23 -0.34,0.19 -0.36,0.14 -0.38,0.10 -0.39,0.05 -0.39,0.00 -0.39,-0.03 -0.38,-0.08 -0.37,-0.13 -0.35,-0.17 -0.33,-0.21 -0.30,-0.25 -0.27,-0.29 -0.23,-0.32 -0.19,-0.34 -0.14,-0.36 -0.10,-0.38 -0.05,-0.39 -0.00,-0.39 0.03,-0.39 0.08,-0.38 0.08,-0.38 L 0.08,-0.38 Z"/></g><g transform="translate(69.36884615765553 54.02889074014547) rotate(0 0.7569777812568645 4.866285736651491)" stroke="none"><path fill="#646261" d="M 0.36,-0.16 Q 0.36,-0.16 0.85,0.28 1.35,0.74 1.53,1.34 1.70,1.94 1.83,2.37 1.95,2.80 1.90,3.29 1.86,3.79 0.98,4.06 0.10,4.33 -0.19,3.58 -0.48,2.83 -0.38,2.03 -0.27,1.23 0.18,0.20 0.64,-0.81 1.22,-1.75 1.81,-2.68 2.55,-3.45 3.28,-4.21 3.92,-4.64 4.56,-5.07 4.82,-5.08 5.08,-5.10 5.19,-5.15 5.29,-5.21 5.41,-5.23 5.52,-5.26 5.64,-5.26 5.76,-5.26 5.88,-5.22 5.99,-5.19 6.09,-5.14 6.20,-5.08 6.28,-5.00 6.37,-4.92 6.44,-4.82 6.50,-4.72 6.54,-4.61 6.58,-4.50 6.59,-4.38 6.61,-4.26 6.59,-4.15 6.57,-4.03 6.53,-3.92 6.48,-3.81 6.42,-3.71 6.35,-3.62 6.26,-3.54 6.17,-3.46 5.98,-2.80 5.79,-2.14 5.39,-1.51 4.99,-0.87 4.71,-0.35 4.43,0.17 4.47,0.65 4.51,1.12 5.05,1.64 5.59,2.15 5.94,2.57 6.28,2.99 6.51,3.70 6.73,4.40 6.69,5.10 6.64,5.80 6.48,6.41 6.32,7.03 6.04,7.60 5.76,8.17 5.53,8.61 5.30,9.06 5.35,9.59 5.41,10.12 5.52,10.82 5.63,11.53 5.55,11.86 5.48,12.20 5.29,12.58 5.11,12.97 4.73,13.39 4.35,13.82 3.90,14.13 3.46,14.45 3.15,14.63 2.84,14.81 2.54,14.95 2.25,15.10 1.86,15.11 1.48,15.13 0.96,14.93 0.44,14.74 -0.02,14.56 -0.48,14.38 -1.15,14.06 -1.82,13.73 -2.60,13.21 -3.38,12.69 -3.95,11.84 -4.52,11.00 -4.42,9.02 -4.32,7.05 -4.30,6.98 -4.29,6.92 -4.25,6.87 -4.22,6.82 -4.16,6.78 -4.11,6.74 -4.05,6.72 -3.99,6.70 -3.93,6.70 -3.87,6.70 -3.81,6.72 -3.75,6.74 -3.69,6.78 -3.64,6.81 -3.61,6.87 -3.57,6.92 -3.55,6.98 -3.54,7.04 -3.54,7.11 -3.54,7.17 -3.57,7.23 -3.59,7.29 -3.63,7.34 -3.67,7.39 -3.73,7.42 -3.78,7.45 -3.84,7.47 -3.90,7.48 -3.97,7.47 -4.03,7.47 -4.09,7.44 -4.15,7.41 -4.19,7.37 -4.24,7.33 -4.27,7.27 -4.30,7.21 -4.31,7.15 -4.32,7.09 -4.31,7.03 -4.30,6.96 -4.27,6.91 -4.24,6.85 -4.20,6.81 -4.15,6.76 -4.09,6.73 -4.04,6.71 -3.97,6.70 -3.91,6.69 -3.85,6.71 -3.78,6.72 -3.73,6.75 -3.67,6.78 -3.63,6.83 -3.59,6.88 -3.57,6.94 -3.54,7.00 -3.54,7.06 -3.54,7.13 -3.54,7.13 -3.54,7.13 -3.33,8.63 -3.12,10.13 -2.73,10.71 -2.33,11.30 -1.71,11.79 -1.08,12.29 -0.51,12.60 0.05,12.91 0.47,13.05 0.89,13.20 1.19,13.34 1.50,13.48 1.96,13.19 2.42,12.90 2.98,12.51 3.55,12.11 3.74,11.76 3.93,11.41 3.87,11.07 3.81,10.72 3.69,10.42 3.57,10.12 3.46,9.59 3.36,9.06 3.48,8.63 3.60,8.19 3.83,7.74 4.06,7.28 4.28,6.89 4.50,6.50 4.65,6.03 4.80,5.57 4.88,5.18 4.97,4.79 4.92,4.40 4.88,4.02 4.58,3.63 4.29,3.24 4.02,2.90 3.74,2.56 3.36,2.11 2.97,1.67 2.84,1.12 2.71,0.57 2.79,0.00 2.87,-0.56 3.15,-1.18 3.44,-1.80 3.77,-2.38 4.10,-2.97 4.33,-3.43 4.55,-3.89 4.82,-4.50 5.08,-5.10 5.19,-5.15 5.29,-5.21 5.41,-5.23 5.52,-5.26 5.64,-5.26 5.76,-5.26 5.88,-5.22 5.99,-5.19 6.09,-5.14 6.20,-5.08 6.28,-5.00 6.37,-4.92 6.44,-4.82 6.50,-4.72 6.54,-4.61 6.58,-4.50 6.59,-4.38 6.61,-4.26 6.59,-4.15 6.57,-4.03 6.53,-3.92 6.48,-3.81 6.42,-3.71 6.35,-3.62 6.26,-3.54 6.17,-3.46 5.85,-3.43 5.53,-3.40 5.11,-3.12 4.68,-2.84 4.08,-2.23 3.48,-1.63 2.96,-0.80 2.45,0.02 2.07,0.79 1.70,1.56 1.63,2.35 1.56,3.14 0.90,3.22 0.24,3.31 0.10,2.89 -0.04,2.48 -0.19,1.99 -0.35,1.49 -0.36,0.82 -0.36,0.16 -0.37,0.11 -0.39,0.06 -0.39,0.02 -0.39,-0.02 -0.38,-0.07 -0.37,-0.11 -0.35,-0.16 -0.33,-0.20 -0.30,-0.24 -0.27,-0.28 -0.24,-0.31 -0.20,-0.34 -0.16,-0.36 -0.11,-0.37 -0.06,-0.38 -0.02,-0.39 0.02,-0.39 0.07,-0.39 0.11,-0.37 0.16,-0.36 0.20,-0.33 0.24,-0.31 0.28,-0.27 0.31,-0.24 0.33,-0.20 0.36,-0.16 0.36,-0.16 L 0.36,-0.16 Z"/></g><g transform="translate(14.866445907159004 84.091722624348) rotate(0 0.6488380982202102 2.7034920759174383)" stroke="none"><path fill="#646261" d="M 0.38,-0.09 Q 0.38,-0.09 0.68,0.35 0.98,0.81 1.04,1.56 1.10,2.31 1.34,3.85 1.59,5.39 1.60,5.45 1.60,5.52 1.58,5.58 1.57,5.64 1.53,5.69 1.50,5.75 1.45,5.79 1.40,5.83 1.34,5.85 1.28,5.87 1.22,5.87 1.15,5.87 1.09,5.85 1.03,5.83 0.98,5.80 0.93,5.76 0.89,5.71 0.85,5.65 0.83,5.59 0.82,5.53 0.82,5.47 0.82,5.40 0.84,5.35 0.87,5.29 0.91,5.24 0.95,5.19 1.00,5.15 1.05,5.12 1.12,5.10 1.18,5.09 1.24,5.09 1.30,5.10 1.36,5.13 1.42,5.15 1.47,5.19 1.52,5.24 1.55,5.29 1.58,5.35 1.59,5.41 1.60,5.47 1.59,5.54 1.58,5.60 1.55,5.66 1.53,5.71 1.48,5.76 1.44,5.80 1.38,5.83 1.32,5.86 1.26,5.87 1.19,5.88 1.13,5.86 1.07,5.85 1.01,5.82 0.96,5.79 0.92,5.74 0.87,5.69 0.85,5.63 0.82,5.57 0.82,5.57 0.82,5.57 0.34,4.04 -0.14,2.51 -0.31,1.84 -0.48,1.17 -0.43,0.63 -0.38,0.09 -0.38,0.04 -0.39,0.00 -0.38,-0.04 -0.38,-0.09 -0.36,-0.13 -0.34,-0.18 -0.32,-0.22 -0.29,-0.26 -0.26,-0.29 -0.22,-0.32 -0.18,-0.34 -0.14,-0.36 -0.09,-0.37 -0.04,-0.39 -0.00,-0.39 0.04,-0.39 0.09,-0.38 0.13,-0.36 0.18,-0.34 0.22,-0.32 0.25,-0.29 0.29,-0.26 0.32,-0.22 0.34,-0.18 0.36,-0.13 0.38,-0.09 0.38,-0.09 L 0.38,-0.09 Z"/></g><g transform="translate(14.650166541085582 88.6335893118893) rotate(0 5.947682567018489 -1.8383746116238058)" stroke="none"><path fill="#646261" d="M -0.39,0.03 Q -0.39,0.03 -0.54,-0.57 -0.70,-1.18 -0.72,-1.81 -0.74,-2.44 -0.56,-3.06 -0.37,-3.68 -0.07,-4.16 0.21,-4.64 0.70,-5.09 1.19,-5.54 1.75,-5.87 2.30,-6.20 2.89,-6.42 3.47,-6.64 3.99,-6.84 4.51,-7.04 4.99,-7.14 5.47,-7.24 6.21,-6.96 6.94,-6.68 7.01,-5.99 7.08,-5.31 7.06,-4.97 7.05,-4.63 7.29,-4.08 7.54,-3.52 8.02,-3.04 8.50,-2.56 9.03,-2.18 9.57,-1.80 10.19,-1.36 10.80,-0.93 11.26,-0.62 11.71,-0.31 12.09,0.25 12.47,0.82 12.40,1.24 12.32,1.65 11.75,2.06 11.19,2.46 10.40,2.64 9.62,2.83 8.81,2.96 8.00,3.08 7.23,3.20 6.46,3.31 4.84,3.25 3.23,3.19 3.17,3.18 3.10,3.18 3.04,3.15 2.99,3.12 2.94,3.08 2.89,3.04 2.86,2.98 2.83,2.93 2.82,2.86 2.81,2.80 2.82,2.74 2.83,2.67 2.85,2.62 2.88,2.56 2.93,2.52 2.97,2.47 3.03,2.44 3.09,2.42 3.15,2.41 3.22,2.40 3.28,2.41 3.34,2.43 3.40,2.46 3.45,2.49 3.49,2.54 3.53,2.59 3.56,2.64 3.58,2.70 3.59,2.77 3.59,2.83 3.58,2.89 3.56,2.95 3.53,3.01 3.49,3.06 3.44,3.10 3.39,3.14 3.33,3.16 3.27,3.18 3.21,3.18 3.14,3.18 3.08,3.16 3.02,3.15 2.97,3.11 2.92,3.07 2.88,3.02 2.85,2.97 2.83,2.90 2.81,2.84 2.81,2.78 2.81,2.72 2.84,2.66 2.86,2.60 2.90,2.55 2.94,2.50 2.99,2.46 3.05,2.43 3.11,2.42 3.17,2.40 3.17,2.40 3.17,2.40 4.68,1.96 6.19,1.53 6.95,1.41 7.71,1.29 8.46,1.16 9.22,1.04 9.97,1.08 10.73,1.13 10.27,0.83 9.81,0.53 9.17,0.11 8.52,-0.30 7.85,-0.76 7.17,-1.23 6.55,-1.85 5.92,-2.48 5.58,-3.08 5.24,-3.69 5.18,-4.20 5.11,-4.72 5.22,-5.45 5.32,-6.18 5.58,-5.83 5.84,-5.47 5.50,-5.40 5.15,-5.34 4.61,-5.14 4.06,-4.94 3.61,-4.79 3.16,-4.65 2.72,-4.43 2.29,-4.21 1.93,-3.95 1.57,-3.69 1.32,-3.38 1.07,-3.07 0.85,-2.70 0.64,-2.33 0.54,-1.81 0.45,-1.30 0.42,-0.66 0.39,-0.03 0.39,0.00 0.39,0.05 0.37,0.10 0.36,0.14 0.34,0.19 0.32,0.23 0.28,0.26 0.25,0.30 0.21,0.32 0.17,0.35 0.13,0.37 0.08,0.38 0.03,0.39 -0.00,0.39 -0.05,0.38 -0.10,0.38 -0.14,0.36 -0.19,0.34 -0.23,0.31 -0.26,0.29 -0.29,0.25 -0.33,0.21 -0.35,0.17 -0.37,0.13 -0.38,0.08 -0.39,0.03 -0.39,0.03 L -0.39,0.03 Z"/></g><g transform="translate(29.789722166223555 85.17311945471499) rotate(0 5.082565102724857 0.43255873214678786)" stroke="none"><path fill="#646261" d="M 0,0.39 Q 0,0.39 -0.63,0.24 -1.27,0.08 -1.23,-0.31 -1.20,-0.72 -0.73,-1.05 -0.27,-1.39 0.26,-1.55 0.79,-1.71 1.57,-1.78 2.35,-1.85 3.04,-1.81 3.72,-1.77 4.29,-1.49 4.85,-1.22 5.15,-0.80 5.46,-0.39 5.56,-0.07 5.67,0.24 6.08,-0.03 6.50,-0.30 7.03,-0.44 7.57,-0.58 8.22,-0.71 8.86,-0.84 9.41,0.30 9.96,1.45 10.01,1.45 10.06,1.45 10.10,1.45 10.15,1.46 10.19,1.48 10.24,1.50 10.27,1.53 10.31,1.56 10.34,1.59 10.37,1.63 10.39,1.67 10.41,1.72 10.42,1.76 10.43,1.81 10.43,1.86 10.43,1.90 10.42,1.95 10.40,1.99 10.38,2.04 10.36,2.08 10.32,2.11 10.29,2.15 10.25,2.17 10.21,2.20 10.16,2.21 10.12,2.23 10.17,2.21 10.22,2.19 10.16,2.21 10.10,2.23 10.04,2.23 9.98,2.23 9.91,2.21 9.85,2.19 9.80,2.15 9.75,2.11 9.72,2.06 9.68,2.01 9.66,1.94 9.65,1.88 9.65,1.82 9.66,1.75 9.68,1.70 9.70,1.64 9.74,1.59 9.79,1.54 9.84,1.51 9.89,1.47 9.96,1.46 10.02,1.45 10.08,1.45 10.15,1.46 10.20,1.49 10.26,1.52 10.31,1.56 10.35,1.60 10.38,1.66 10.41,1.72 10.42,1.78 10.43,1.84 10.42,1.90 10.41,1.97 10.38,2.02 10.35,2.08 10.31,2.12 10.26,2.17 10.20,2.19 10.14,2.22 10.08,2.23 10.02,2.23 9.96,2.22 9.89,2.21 9.84,2.17 9.78,2.14 9.74,2.09 9.70,2.04 9.68,1.98 9.65,1.92 9.65,1.86 9.65,1.80 9.67,1.74 9.68,1.67 9.72,1.62 9.75,1.57 9.86,1.51 9.96,1.45 10.01,1.45 10.06,1.45 10.10,1.45 10.15,1.46 10.19,1.48 10.24,1.50 10.27,1.53 10.31,1.56 10.34,1.59 10.37,1.63 10.39,1.67 10.41,1.72 10.42,1.76 10.43,1.81 10.43,1.86 10.43,1.90 10.42,1.95 10.40,1.99 10.38,2.04 10.36,2.08 10.32,2.11 10.29,2.15 10.25,2.17 10.21,2.20 10.16,2.21 10.12,2.23 9.65,1.51 9.19,0.79 8.59,0.91 8.00,1.03 7.37,1.21 6.74,1.38 6.21,1.46 5.68,1.54 5.18,1.47 4.67,1.40 4.34,0.93 4.00,0.45 3.78,0.19 3.56,-0.06 3.03,-0.10 2.50,-0.13 1.89,-0.08 1.28,-0.04 0.65,-0.06 0.02,-0.08 0.01,-0.24 0,-0.39 0.04,-0.39 0.09,-0.38 0.13,-0.36 0.18,-0.35 0.22,-0.32 0.26,-0.29 0.29,-0.26 0.32,-0.22 0.34,-0.18 0.37,-0.14 0.38,-0.09 0.39,-0.04 0.39,0.00 0.39,0.04 0.38,0.09 0.37,0.14 0.34,0.18 0.32,0.22 0.29,0.26 0.26,0.29 0.22,0.32 0.18,0.35 0.13,0.36 0.09,0.38 0.04,0.39 -0.00,0.39 -0.00,0.39 L 0,0.39 Z"/></g><g transform="translate(30.65483963051713 90.58010360654998) rotate(0 7.137219080422199 0.10813968303665433)" stroke="none"><path fill="#646261" d="M 0.07,-0.39 Q 0.07,-0.39 0.80,-0.54 1.53,-0.68 2.33,-0.64 3.12,-0.60 4.03,-0.71 4.93,-0.81 5.87,-0.86 6.81,-0.91 7.61,-0.98 8.41,-1.06 9.03,-1.09 9.65,-1.12 10.05,-1.10 10.45,-1.09 10.84,-0.58 11.24,-0.08 12.61,-0.12 13.97,-0.16 14.04,-0.15 14.10,-0.14 14.16,-0.12 14.22,-0.09 14.26,-0.05 14.31,-0.00 14.34,0.04 14.37,0.10 14.38,0.16 14.39,0.23 14.38,0.29 14.37,0.35 14.34,0.41 14.31,0.46 14.27,0.51 14.22,0.55 14.16,0.58 14.10,0.61 14.04,0.61 13.98,0.62 13.92,0.61 13.85,0.59 13.80,0.56 13.74,0.53 13.70,0.48 13.66,0.43 13.64,0.37 13.61,0.31 13.61,0.25 13.61,0.19 13.62,0.12 13.64,0.06 13.68,0.01 13.71,-0.03 13.76,-0.07 13.81,-0.11 13.87,-0.13 13.93,-0.15 14.00,-0.15 14.06,-0.15 14.12,-0.13 14.18,-0.11 14.23,-0.07 14.28,-0.03 14.32,0.01 14.35,0.06 14.37,0.12 14.39,0.18 14.39,0.25 14.38,0.31 14.36,0.37 14.34,0.43 14.29,0.48 14.25,0.53 14.20,0.56 14.14,0.59 14.08,0.61 14.02,0.62 14.02,0.62 14.02,0.62 12.44,0.91 10.86,1.20 10.31,0.88 9.75,0.57 9.74,0.24 9.73,-0.08 9.75,0.35 9.76,0.78 9.18,0.82 8.60,0.86 7.76,0.95 6.91,1.03 6.02,1.07 5.13,1.11 4.07,1.21 3.01,1.31 2.10,1.25 1.19,1.18 0.56,0.79 -0.07,0.39 -0.11,0.38 -0.16,0.36 -0.20,0.34 -0.24,0.31 -0.28,0.28 -0.31,0.24 -0.34,0.20 -0.36,0.16 -0.38,0.11 -0.39,0.07 -0.40,0.02 -0.40,-0.02 -0.39,-0.07 -0.38,-0.11 -0.36,-0.16 -0.34,-0.20 -0.31,-0.24 -0.28,-0.28 -0.24,-0.31 -0.20,-0.34 -0.16,-0.36 -0.12,-0.38 -0.07,-0.39 -0.02,-0.40 0.02,-0.40 0.07,-0.39 0.07,-0.39 L 0.07,-0.39 Z"/></g><g transform="translate(49.47114447890283 83.2266051600543) rotate(0 1.081396830366998 3.3523301741377622)" stroke="none"><path fill="#646261" d="M -0.17,-0.35 Q -0.17,-0.35 0.23,-0.78 0.65,-1.21 1.19,-1.04 1.74,-0.88 2.07,-0.27 2.40,0.34 2.52,1.10 2.64,1.86 2.69,2.67 2.74,3.48 2.16,5.09 1.58,6.70 1.58,6.74 1.59,6.79 1.58,6.84 1.57,6.88 1.54,6.93 1.52,6.97 1.49,7.01 1.46,7.04 1.42,7.07 1.39,7.10 1.34,7.12 1.30,7.13 1.25,7.14 1.20,7.15 1.16,7.14 1.11,7.14 1.06,7.12 1.02,7.11 0.98,7.08 0.94,7.06 0.91,7.02 0.88,6.99 0.85,6.94 0.83,6.90 0.82,6.86 0.80,6.81 0.86,6.93 0.92,7.04 0.88,6.99 0.85,6.94 0.83,6.88 0.81,6.82 0.80,6.75 0.80,6.69 0.83,6.63 0.85,6.57 0.88,6.52 0.92,6.47 0.98,6.43 1.03,6.40 1.09,6.38 1.15,6.36 1.21,6.37 1.28,6.37 1.34,6.39 1.40,6.42 1.45,6.46 1.49,6.50 1.53,6.55 1.56,6.61 1.57,6.67 1.59,6.73 1.58,6.80 1.57,6.86 1.55,6.92 1.52,6.97 1.48,7.02 1.43,7.07 1.38,7.10 1.32,7.13 1.26,7.14 1.19,7.15 1.13,7.14 1.07,7.13 1.01,7.10 0.96,7.07 0.91,7.02 0.87,6.98 0.84,6.92 0.81,6.86 0.81,6.80 0.80,6.73 0.81,6.67 0.83,6.61 0.86,6.55 0.89,6.50 0.94,6.46 0.99,6.42 1.05,6.39 1.11,6.37 1.17,6.37 1.24,6.36 1.30,6.38 1.36,6.40 1.47,6.55 1.58,6.70 1.58,6.74 1.59,6.79 1.58,6.84 1.57,6.88 1.54,6.93 1.52,6.97 1.49,7.01 1.46,7.04 1.42,7.07 1.39,7.10 1.34,7.12 1.30,7.13 1.25,7.14 1.20,7.15 1.16,7.14 1.11,7.14 1.06,7.12 1.02,7.11 0.98,7.08 0.94,7.06 0.91,7.02 0.88,6.99 0.85,6.94 0.83,6.90 0.82,6.86 0.80,6.81 1.02,5.26 1.23,3.71 1.05,2.95 0.87,2.19 0.85,1.33 0.84,0.46 0.50,0.41 0.17,0.35 0.13,0.37 0.08,0.38 0.03,0.39 -0.00,0.39 -0.05,0.39 -0.10,0.38 -0.14,0.36 -0.19,0.34 -0.23,0.32 -0.27,0.29 -0.30,0.25 -0.33,0.21 -0.35,0.17 -0.37,0.13 -0.38,0.08 -0.39,0.04 -0.39,-0.00 -0.39,-0.05 -0.38,-0.10 -0.36,-0.14 -0.34,-0.19 -0.32,-0.23 -0.29,-0.26 -0.25,-0.30 -0.21,-0.32 -0.17,-0.35 -0.17,-0.35 L -0.17,-0.35 Z"/></g><g transform="translate(50.11998257712298 88.84986867796272) rotate(0 5.947682567018546 -2.595352392880784)" stroke="none"><path fill="#646261" d="M -0.39,0.04 Q -0.39,0.04 -0.50,-0.44 -0.62,-0.93 -0.67,-1.62 -0.71,-2.32 -0.69,-3.06 -0.68,-3.79 -0.47,-4.51 -0.25,-5.22 0.08,-5.73 0.43,-6.23 0.99,-6.58 1.55,-6.93 2.18,-7.15 2.81,-7.36 3.52,-7.52 4.23,-7.68 4.84,-7.86 5.46,-8.05 6.07,-8.19 6.68,-8.34 7.10,-8.46 7.51,-8.57 8.25,-8.39 8.99,-8.21 9.20,-7.67 9.40,-7.12 9.40,-6.68 9.40,-6.25 9.49,-5.80 9.58,-5.35 9.83,-4.83 10.08,-4.32 10.42,-3.71 10.77,-3.10 11.15,-2.54 11.53,-1.98 11.89,-1.40 12.25,-0.82 12.44,-0.29 12.63,0.23 12.58,0.81 12.53,1.40 12.17,1.88 11.81,2.37 11.18,2.66 10.55,2.95 9.70,3.11 8.86,3.27 7.77,3.26 6.68,3.26 4.34,3.01 2.01,2.77 1.95,2.76 1.88,2.75 1.83,2.72 1.77,2.69 1.73,2.64 1.68,2.60 1.66,2.54 1.63,2.48 1.62,2.42 1.61,2.35 1.63,2.29 1.64,2.23 1.68,2.17 1.71,2.12 1.76,2.08 1.81,2.04 1.86,2.01 1.92,1.99 1.99,1.99 2.05,1.98 2.11,2.00 2.17,2.02 2.23,2.05 2.28,2.09 2.32,2.14 2.36,2.19 2.38,2.25 2.40,2.31 2.40,2.37 2.40,2.44 2.38,2.50 2.36,2.56 2.32,2.61 2.28,2.66 2.23,2.70 2.17,2.73 2.11,2.75 2.05,2.77 1.99,2.76 1.92,2.76 1.86,2.74 1.80,2.71 1.76,2.67 1.71,2.63 1.67,2.57 1.64,2.52 1.63,2.46 1.61,2.40 1.62,2.33 1.63,2.27 1.66,2.21 1.68,2.15 1.73,2.11 1.77,2.06 1.83,2.03 1.88,2.00 1.95,1.99 2.01,1.98 2.01,1.98 2.01,1.98 4.35,1.74 6.68,1.50 7.61,1.50 8.54,1.50 9.23,1.38 9.92,1.26 10.27,1.19 10.62,1.11 10.88,0.89 11.13,0.67 11.02,0.35 10.90,0.04 10.54,-0.49 10.17,-1.02 9.73,-1.62 9.30,-2.22 8.89,-2.87 8.48,-3.52 8.12,-4.21 7.76,-4.91 7.60,-5.55 7.44,-6.20 7.51,-6.70 7.57,-7.20 7.81,-6.91 8.05,-6.63 7.59,-6.50 7.14,-6.38 6.56,-6.25 5.99,-6.12 5.29,-5.95 4.59,-5.77 3.96,-5.67 3.32,-5.57 2.54,-5.37 1.77,-5.16 1.55,-4.90 1.33,-4.63 1.11,-4.12 0.89,-3.61 0.74,-2.93 0.60,-2.25 0.49,-1.65 0.37,-1.05 0.38,-0.55 0.39,-0.04 0.39,-0.00 0.39,0.04 0.38,0.09 0.36,0.13 0.34,0.18 0.32,0.22 0.29,0.25 0.26,0.29 0.22,0.32 0.18,0.34 0.13,0.36 0.09,0.38 0.04,0.38 0.00,0.39 -0.04,0.38 -0.09,0.38 -0.13,0.36 -0.18,0.34 -0.22,0.32 -0.26,0.29 -0.29,0.26 -0.32,0.22 -0.34,0.18 -0.36,0.14 -0.37,0.09 -0.39,0.04 -0.39,0.04 L -0.39,0.04 Z"/></g><g transform="translate(69.36884615765553 83.65916389220115) rotate(0 6.272101616128623 0.6488380982202102)" stroke="none"><path fill="#646261" d="M -0.28,0.28 Q -0.28,0.28 -0.77,0.16 -1.26,0.05 -1.57,0.02 -1.89,-0.00 -1.99,-0.05 -2.09,-0.11 -2.17,-0.19 -2.25,-0.26 -2.31,-0.36 -2.37,-0.46 -2.41,-0.56 -2.45,-0.67 -2.46,-0.78 -2.47,-0.90 -2.45,-1.01 -2.43,-1.12 -2.39,-1.23 -2.35,-1.33 -2.28,-1.42 -2.21,-1.52 -2.12,-1.59 -2.04,-1.66 -1.94,-1.71 -1.83,-1.76 -1.72,-1.79 -1.61,-1.81 -1.50,-1.81 -1.38,-1.80 -1.27,-1.77 -1.16,-1.74 -0.61,-1.59 -0.06,-1.45 0.67,-1.19 1.40,-0.93 2.10,-0.62 2.79,-0.31 3.37,0.01 3.95,0.34 4.46,0.65 4.97,0.96 5.36,1.10 5.75,1.23 6.25,1.27 6.76,1.30 7.51,1.27 8.26,1.24 9.02,1.17 9.77,1.10 11.98,1.44 14.19,1.78 14.23,1.82 14.28,1.86 14.32,1.91 14.35,1.97 14.36,2.03 14.38,2.09 14.37,2.16 14.36,2.22 14.34,2.28 14.31,2.34 14.27,2.38 14.22,2.43 14.17,2.46 14.11,2.49 14.05,2.50 13.98,2.51 13.92,2.50 13.86,2.49 13.80,2.46 13.75,2.43 13.70,2.38 13.66,2.34 13.63,2.28 13.60,2.22 13.60,2.16 13.59,2.10 13.60,2.03 13.62,1.97 13.65,1.92 13.68,1.86 13.73,1.82 13.78,1.78 13.84,1.76 13.90,1.73 13.96,1.73 14.03,1.72 14.09,1.74 14.15,1.76 14.20,1.79 14.25,1.83 14.29,1.88 14.33,1.93 14.35,1.99 14.37,2.05 14.37,2.12 14.37,2.18 14.35,2.24 14.33,2.30 14.29,2.35 14.26,2.40 14.20,2.44 14.15,2.47 14.09,2.49 14.03,2.51 13.96,2.50 13.90,2.50 13.84,2.48 13.78,2.45 13.78,2.45 13.78,2.45 11.87,2.73 9.95,3.00 9.14,3.08 8.32,3.15 7.42,3.17 6.51,3.20 5.77,3.07 5.02,2.94 4.51,2.68 4.00,2.42 3.56,2.10 3.12,1.78 2.63,1.49 2.15,1.21 1.51,0.95 0.87,0.70 0.23,0.51 -0.41,0.31 -1.15,0.15 -1.89,-0.00 -1.99,-0.05 -2.08,-0.11 -2.17,-0.19 -2.25,-0.26 -2.31,-0.36 -2.37,-0.46 -2.41,-0.56 -2.45,-0.67 -2.46,-0.78 -2.47,-0.90 -2.45,-1.01 -2.43,-1.12 -2.39,-1.23 -2.35,-1.33 -2.28,-1.42 -2.21,-1.52 -2.13,-1.59 -2.04,-1.66 -1.94,-1.71 -1.83,-1.76 -1.72,-1.79 -1.61,-1.81 -1.50,-1.81 -1.38,-1.80 -1.27,-1.77 -1.16,-1.74 -1.05,-1.75 -0.93,-1.77 -0.45,-1.53 0.01,-1.30 0.15,-0.79 0.28,-0.28 0.31,-0.24 0.34,-0.20 0.36,-0.16 0.38,-0.11 0.38,-0.07 0.39,-0.02 0.39,0.02 0.39,0.07 0.37,0.11 0.36,0.16 0.33,0.20 0.31,0.24 0.27,0.27 0.24,0.31 0.20,0.33 0.16,0.36 0.11,0.37 0.07,0.39 0.02,0.39 -0.02,0.39 -0.07,0.38 -0.11,0.38 -0.16,0.36 -0.20,0.34 -0.24,0.31 -0.28,0.28 -0.28,0.28 L -0.28,0.28 Z"/></g><g transform="translate(68.9362874255088 90.79638297262329) rotate(0 4.10930795539457 0.21627936607342235)" stroke="none"><path fill="#646261" d="M -0.04,-0.39 Q -0.04,-0.39 0.92,-0.69 1.89,-0.99 2.82,-1.25 3.76,-1.52 4.52,-1.64 5.29,-1.76 6.25,-1.47 7.22,-1.18 7.25,-0.85 7.27,-0.53 6.96,-0.03 6.64,0.45 6.33,0.74 6.03,1.03 7.07,1.31 8.11,1.59 8.07,1.62 8.04,1.65 7.99,1.67 7.95,1.69 7.90,1.70 7.86,1.71 7.81,1.71 7.76,1.71 7.72,1.69 7.67,1.68 7.63,1.65 7.59,1.63 7.56,1.60 7.52,1.56 7.50,1.52 7.47,1.48 7.46,1.44 7.44,1.39 7.44,1.35 7.43,1.30 7.44,1.25 7.45,1.20 7.47,1.16 7.49,1.12 7.52,1.08 7.55,1.04 7.74,0.99 7.93,0.94 7.99,0.96 8.05,0.99 8.09,1.03 8.14,1.08 8.17,1.13 8.20,1.19 8.21,1.25 8.22,1.31 8.21,1.38 8.20,1.44 8.17,1.50 8.14,1.55 8.10,1.60 8.05,1.64 7.99,1.67 7.94,1.70 7.87,1.70 7.81,1.71 7.75,1.70 7.69,1.68 7.63,1.65 7.58,1.62 7.53,1.57 7.49,1.52 7.47,1.46 7.44,1.40 7.44,1.34 7.44,1.28 7.45,1.22 7.47,1.15 7.50,1.10 7.54,1.05 7.59,1.01 7.64,0.97 7.70,0.95 7.76,0.93 7.83,0.93 7.89,0.93 7.95,0.95 8.01,0.97 8.06,1.01 8.11,1.04 8.15,1.10 8.18,1.15 8.20,1.21 8.22,1.27 8.22,1.33 8.21,1.40 8.19,1.46 8.17,1.52 8.13,1.57 8.09,1.61 8.03,1.65 7.98,1.68 7.91,1.70 7.85,1.71 7.98,1.65 8.11,1.59 8.07,1.62 8.04,1.65 7.99,1.67 7.95,1.69 7.90,1.70 7.86,1.71 7.81,1.71 7.76,1.71 7.72,1.69 7.67,1.68 7.63,1.65 7.59,1.63 7.56,1.60 7.52,1.56 7.50,1.52 7.47,1.48 7.46,1.44 7.44,1.39 7.44,1.35 7.43,1.30 7.44,1.25 7.45,1.20 7.47,1.16 7.49,1.12 7.52,1.08 7.55,1.04 6.16,0.43 4.76,-0.17 5.17,-0.51 5.58,-0.84 5.55,-0.47 5.52,-0.09 4.83,-0.01 4.14,0.06 3.11,0.28 2.08,0.50 1.06,0.44 0.04,0.39 0.00,0.39 -0.04,0.39 -0.09,0.38 -0.13,0.37 -0.18,0.34 -0.22,0.32 -0.25,0.29 -0.29,0.26 -0.32,0.22 -0.35,0.18 -0.36,0.14 -0.38,0.09 -0.39,0.04 -0.39,0.00 -0.39,-0.04 -0.38,-0.09 -0.36,-0.13 -0.35,-0.18 -0.32,-0.22 -0.29,-0.26 -0.26,-0.29 -0.22,-0.32 -0.18,-0.34 -0.14,-0.36 -0.09,-0.38 -0.04,-0.39 -0.04,-0.39 L -0.04,-0.39 Z"/></g><g transform="translate(87.53631290782107 83.2266051600543) rotate(0 0.32441904911013353 3.78488890628455)" stroke="none"><path fill="#646261" d="M 0.23,0.31 Q 0.23,0.31 0.20,0.60 0.17,0.88 0.40,1.68 0.63,2.48 0.85,3.30 1.07,4.12 1.42,5.73 1.77,7.34 1.78,7.41 1.79,7.47 1.78,7.53 1.78,7.59 1.75,7.65 1.72,7.71 1.67,7.75 1.63,7.80 1.57,7.83 1.51,7.85 1.45,7.86 1.39,7.87 1.32,7.86 1.26,7.84 1.21,7.81 1.15,7.78 1.11,7.73 1.07,7.68 1.04,7.62 1.02,7.57 1.01,7.50 1.01,7.44 1.02,7.38 1.04,7.32 1.08,7.26 1.11,7.21 1.16,7.17 1.21,7.13 1.27,7.11 1.33,7.09 1.39,7.09 1.46,7.09 1.52,7.10 1.58,7.12 1.63,7.16 1.68,7.20 1.72,7.25 1.76,7.30 1.77,7.37 1.79,7.43 1.79,7.49 1.79,7.55 1.76,7.61 1.74,7.67 1.70,7.72 1.66,7.77 1.61,7.81 1.55,7.84 1.49,7.85 1.43,7.87 1.36,7.86 1.30,7.86 1.24,7.83 1.18,7.80 1.14,7.76 1.09,7.72 1.06,7.66 1.03,7.61 1.03,7.61 1.03,7.61 0.37,6.12 -0.28,4.64 -0.71,3.79 -1.13,2.93 -1.33,2.13 -1.52,1.33 -1.34,0.59 -1.17,-0.14 -0.70,-0.23 -0.23,-0.31 -0.19,-0.34 -0.15,-0.36 -0.10,-0.38 -0.06,-0.39 -0.01,-0.39 0.03,-0.39 0.07,-0.38 0.12,-0.37 0.16,-0.35 0.21,-0.33 0.25,-0.30 0.28,-0.27 0.31,-0.23 0.34,-0.19 0.36,-0.15 0.38,-0.11 0.39,-0.06 0.39,-0.01 0.39,0.03 0.39,0.08 0.37,0.12 0.35,0.17 0.33,0.21 0.30,0.25 0.27,0.28 0.23,0.31 0.23,0.31 L 0.23,0.31 Z"/></g><g transform="translate(85.37351924708707 83.44288452612773) rotate(0 5.082565102724914 3.4604698571744166)" stroke="none"><path fill="#646261" d="M -0.31,-0.23 Q -0.31,-0.23 -0.12,-0.89 0.07,-1.56 0.80,-1.98 1.54,-2.41 2.48,-2.59 3.41,-2.76 4.46,-2.75 5.50,-2.75 6.57,-2.55 7.64,-2.34 8.51,-1.89 9.38,-1.43 9.91,-0.75 10.45,-0.06 10.48,0.69 10.51,1.46 10.32,2.02 10.12,2.58 9.94,3.00 9.76,3.41 9.80,3.98 9.85,4.55 9.98,4.92 10.10,5.30 10.17,5.77 10.23,6.23 10.20,6.74 10.17,7.25 10.01,7.74 9.85,8.23 9.44,8.69 9.03,9.15 8.42,9.37 7.81,9.58 6.16,9.33 4.51,9.07 4.45,9.05 4.38,9.03 4.33,8.99 4.28,8.96 4.24,8.91 4.21,8.85 4.19,8.79 4.17,8.73 4.17,8.67 4.17,8.60 4.20,8.54 4.22,8.48 4.26,8.44 4.30,8.39 4.35,8.35 4.41,8.32 4.47,8.30 4.53,8.29 4.59,8.29 4.66,8.30 4.72,8.32 4.77,8.35 4.82,8.39 4.87,8.43 4.90,8.49 4.93,8.54 4.94,8.61 4.95,8.67 4.95,8.73 4.94,8.80 4.91,8.85 4.88,8.91 4.84,8.96 4.79,9.00 4.73,9.03 4.68,9.06 4.61,9.06 4.55,9.07 4.49,9.06 4.42,9.05 4.37,9.02 4.31,8.99 4.27,8.94 4.23,8.89 4.20,8.83 4.18,8.77 4.17,8.71 4.17,8.65 4.18,8.58 4.20,8.52 4.23,8.47 4.27,8.42 4.32,8.38 4.37,8.34 4.43,8.31 4.49,8.29 4.55,8.29 4.62,8.29 4.61,8.29 4.61,8.29 6.25,8.02 7.88,7.75 8.22,7.40 8.56,7.06 8.62,6.71 8.68,6.37 8.66,6.00 8.65,5.63 8.60,5.22 8.54,4.80 8.48,4.40 8.41,4.00 8.37,3.52 8.32,3.04 8.38,2.56 8.44,2.09 8.61,1.45 8.78,0.81 8.57,0.54 8.37,0.27 7.79,-0.05 7.22,-0.38 6.34,-0.56 5.47,-0.74 4.58,-0.76 3.69,-0.78 3.01,-0.72 2.32,-0.66 1.87,-0.54 1.41,-0.42 0.86,-0.09 0.31,0.23 0.28,0.27 0.25,0.30 0.21,0.33 0.17,0.36 0.12,0.37 0.08,0.39 0.03,0.39 -0.01,0.39 -0.06,0.39 -0.11,0.38 -0.15,0.36 -0.19,0.34 -0.23,0.31 -0.27,0.28 -0.30,0.25 -0.33,0.21 -0.35,0.17 -0.37,0.12 -0.38,0.07 -0.39,0.03 -0.39,-0.01 -0.39,-0.06 -0.38,-0.11 -0.36,-0.15 -0.34,-0.19 -0.31,-0.23 -0.31,-0.23 L -0.31,-0.23 Z"/></g><g transform="translate(99.86423677400478 83.44288452612773) rotate(0 5.839542883981778 0.5406984151835559)" stroke="none"><path fill="#646261" d="M -0.49,-0.58 Q -0.49,-0.58 -0.09,-1.00 0.30,-1.42 0.98,-1.72 1.67,-2.02 2.48,-2.09 3.30,-2.16 4.01,-1.96 4.71,-1.75 5.26,-1.22 5.81,-0.69 6.00,0.01 6.20,0.73 6.25,1.12 6.30,1.51 6.82,1.39 7.33,1.28 9.34,0.77 11.35,0.26 11.42,0.26 11.48,0.26 11.54,0.27 11.60,0.29 11.66,0.33 11.71,0.36 11.75,0.41 11.79,0.46 11.81,0.52 11.83,0.58 11.83,0.65 11.83,0.71 11.81,0.77 11.79,0.83 11.75,0.88 11.71,0.93 11.66,0.97 11.60,1.01 11.54,1.02 11.48,1.04 11.42,1.04 11.35,1.03 11.29,1.01 11.24,0.99 11.19,0.94 11.14,0.90 11.11,0.85 11.07,0.79 11.06,0.73 11.05,0.67 11.05,0.61 11.06,0.54 11.09,0.48 11.11,0.43 11.16,0.38 11.20,0.33 11.26,0.30 11.31,0.27 11.38,0.26 11.44,0.25 11.50,0.26 11.57,0.27 11.62,0.30 11.68,0.33 11.72,0.38 11.77,0.43 11.79,0.49 11.82,0.54 11.83,0.61 11.83,0.67 11.82,0.73 11.80,0.79 11.77,0.85 11.74,0.90 11.69,0.94 11.64,0.99 11.58,1.01 11.52,1.03 11.52,1.03 11.52,1.03 9.60,1.97 7.68,2.90 7.04,2.96 6.41,3.01 6.02,2.81 5.63,2.60 5.39,2.18 5.15,1.77 5.05,1.45 4.95,1.14 4.79,0.78 4.63,0.42 4.36,0.18 4.08,-0.05 3.72,-0.19 3.35,-0.33 2.82,-0.33 2.30,-0.34 1.86,-0.20 1.43,-0.06 0.96,0.25 0.49,0.58 0.42,0.63 0.34,0.68 0.25,0.71 0.17,0.74 0.07,0.75 -0.01,0.76 -0.10,0.75 -0.19,0.74 -0.28,0.70 -0.36,0.67 -0.44,0.61 -0.51,0.56 -0.57,0.49 -0.63,0.42 -0.67,0.34 -0.72,0.25 -0.74,0.16 -0.76,0.07 -0.76,-0.01 -0.75,-0.10 -0.73,-0.19 -0.71,-0.28 -0.66,-0.36 -0.62,-0.44 -0.56,-0.51 -0.49,-0.58 -0.49,-0.58 L -0.49,-0.58 Z"/></g><g transform="translate(102.2433098008122 90.79638297262329) rotate(0 3.676749223247782 -0.43255873214678786)" stroke="none"><path fill="#646261" d="M -0.14,-0.36 Q -0.14,-0.36 0.46,-0.65 1.06,-0.93 1.68,-1.10 2.29,-1.26 2.91,-1.31 3.52,-1.36 3.94,-1.31 4.37,-1.26 5.81,-0.83 7.26,-0.39 7.32,-0.38 7.38,-0.37 7.44,-0.34 7.49,-0.31 7.54,-0.26 7.58,-0.22 7.60,-0.16 7.63,-0.10 7.64,-0.04 7.64,0.02 7.63,0.08 7.61,0.14 7.58,0.20 7.55,0.25 7.50,0.29 7.45,0.33 7.39,0.35 7.33,0.38 7.26,0.38 7.20,0.38 7.14,0.36 7.08,0.35 7.03,0.31 6.97,0.27 6.94,0.22 6.90,0.17 6.88,0.11 6.86,0.05 6.86,-0.01 6.86,-0.07 6.88,-0.13 6.90,-0.19 6.94,-0.24 6.98,-0.29 7.04,-0.33 7.09,-0.36 7.15,-0.38 7.21,-0.39 7.28,-0.39 7.34,-0.38 7.40,-0.36 7.46,-0.33 7.51,-0.29 7.55,-0.25 7.59,-0.20 7.62,-0.14 7.63,-0.08 7.64,-0.02 7.64,0.04 7.63,0.10 7.60,0.16 7.57,0.22 7.53,0.26 7.48,0.31 7.43,0.34 7.37,0.37 7.31,0.37 7.24,0.38 7.24,0.38 7.24,0.38 5.36,0.20 3.48,0.01 2.98,-0.06 2.49,-0.15 1.95,-0.10 1.41,-0.05 0.78,0.15 0.14,0.36 0.10,0.37 0.05,0.39 0.00,0.39 -0.04,0.39 -0.08,0.38 -0.13,0.37 -0.17,0.34 -0.21,0.32 -0.25,0.29 -0.29,0.26 -0.31,0.22 -0.34,0.18 -0.36,0.14 -0.38,0.10 -0.38,0.05 -0.39,0.00 -0.38,-0.04 -0.38,-0.08 -0.36,-0.13 -0.35,-0.17 -0.32,-0.21 -0.29,-0.25 -0.26,-0.28 -0.22,-0.32 -0.18,-0.34 -0.14,-0.36 -0.14,-0.36 L -0.14,-0.36 Z"/></g><g transform="translate(95.5386494525369 18.9916334362548) rotate(0 1.9465142946605738 5.684341886080802e-14)" stroke="none"><path fill="#646261" d="M -0.06,-0.39 Q -0.06,-0.39 0.27,-0.68 0.61,-0.97 2.24,-0.59 3.88,-0.21 3.94,-0.19 4.00,-0.17 4.05,-0.13 4.10,-0.10 4.14,-0.04 4.17,0.00 4.19,0.06 4.21,0.12 4.21,0.18 4.20,0.25 4.18,0.31 4.16,0.37 4.12,0.42 4.08,0.47 4.02,0.50 3.97,0.53 3.91,0.55 3.85,0.56 3.78,0.56 3.72,0.55 3.66,0.52 3.60,0.50 3.55,0.45 3.51,0.41 3.48,0.35 3.45,0.30 3.44,0.24 3.42,0.17 3.43,0.11 3.44,0.05 3.47,-0.00 3.50,-0.06 3.55,-0.10 3.59,-0.15 3.65,-0.17 3.71,-0.20 3.77,-0.21 3.84,-0.22 3.90,-0.20 3.96,-0.19 4.02,-0.16 4.07,-0.13 4.11,-0.08 4.15,-0.03 4.18,0.02 4.20,0.08 4.21,0.14 4.21,0.21 4.19,0.27 4.18,0.33 4.14,0.38 4.11,0.44 4.06,0.47 4.01,0.51 3.95,0.54 3.89,0.56 3.82,0.56 3.76,0.56 3.76,0.56 3.76,0.56 2.32,0.64 0.88,0.72 0.47,0.55 0.06,0.39 0.01,0.39 -0.03,0.39 -0.07,0.38 -0.12,0.37 -0.16,0.35 -0.21,0.33 -0.24,0.30 -0.28,0.27 -0.31,0.23 -0.34,0.20 -0.36,0.15 -0.38,0.11 -0.39,0.06 -0.39,0.01 -0.39,-0.03 -0.39,-0.07 -0.37,-0.12 -0.36,-0.16 -0.33,-0.21 -0.30,-0.25 -0.27,-0.28 -0.24,-0.31 -0.19,-0.34 -0.15,-0.36 -0.11,-0.37 -0.06,-0.39 -0.06,-0.39 L -0.06,-0.39 Z"/></g><g transform="translate(103.54098599725262 18.9916334362548) rotate(0 3.7848889062844364 0.10813968303671118)" stroke="none"><path fill="#646261" d="M 0,-0.39 Q 0,-0.39 0.74,-0.57 1.49,-0.75 2.27,-0.66 3.05,-0.58 5.18,-0.38 7.31,-0.18 7.37,-0.16 7.44,-0.15 7.49,-0.12 7.55,-0.09 7.59,-0.05 7.64,-0.00 7.66,0.05 7.69,0.11 7.69,0.17 7.70,0.23 7.69,0.30 7.67,0.36 7.64,0.41 7.60,0.47 7.56,0.51 7.51,0.55 7.45,0.57 7.39,0.59 7.32,0.60 7.26,0.60 7.20,0.58 7.14,0.56 7.09,0.53 7.03,0.49 6.99,0.44 6.96,0.39 6.94,0.33 6.92,0.27 6.92,0.20 6.92,0.14 6.94,0.08 6.96,0.02 7.00,-0.02 7.04,-0.07 7.09,-0.11 7.15,-0.14 7.21,-0.16 7.27,-0.17 7.33,-0.17 7.40,-0.17 7.46,-0.14 7.51,-0.12 7.56,-0.08 7.61,-0.03 7.64,0.01 7.67,0.07 7.69,0.13 7.70,0.19 7.69,0.25 7.69,0.32 7.66,0.38 7.63,0.43 7.59,0.48 7.54,0.52 7.49,0.55 7.43,0.58 7.37,0.59 7.30,0.60 7.30,0.60 7.30,0.60 5.12,0.71 2.93,0.83 2.21,0.79 1.49,0.75 0.74,0.57 0,0.39 -0.04,0.39 -0.09,0.38 -0.13,0.36 -0.18,0.35 -0.22,0.32 -0.26,0.29 -0.29,0.26 -0.32,0.22 -0.34,0.18 -0.37,0.14 -0.38,0.09 -0.39,0.04 -0.39,-0.00 -0.39,-0.04 -0.38,-0.09 -0.37,-0.14 -0.34,-0.18 -0.32,-0.22 -0.29,-0.26 -0.26,-0.29 -0.22,-0.32 -0.18,-0.35 -0.13,-0.36 -0.09,-0.38 -0.04,-0.39 0.00,-0.39 0.00,-0.39 L 0,-0.39 Z"/></g><g transform="translate(115.43635113128948 19.424192168401646) rotate(0 1.081396830366998 -0.10813968303671118)" stroke="none"><path fill="#646261" d="M 0,-0.39 Q 0,-0.39 0.98,-0.39 1.97,-0.39 2.03,-0.38 2.10,-0.37 2.15,-0.34 2.21,-0.31 2.25,-0.26 2.30,-0.22 2.32,-0.16 2.35,-0.10 2.36,-0.04 2.36,0.02 2.35,0.08 2.34,0.14 2.30,0.20 2.27,0.25 2.22,0.29 2.17,0.33 2.11,0.36 2.05,0.38 1.99,0.38 1.93,0.39 1.87,0.37 1.80,0.35 1.75,0.32 1.70,0.28 1.66,0.23 1.62,0.18 1.60,0.12 1.58,0.06 1.58,-0.00 1.58,-0.06 1.60,-0.12 1.62,-0.18 1.66,-0.23 1.70,-0.28 1.75,-0.32 1.80,-0.35 1.87,-0.37 1.93,-0.39 1.99,-0.38 2.05,-0.38 2.11,-0.36 2.17,-0.33 2.22,-0.29 2.27,-0.25 2.30,-0.20 2.34,-0.14 2.35,-0.08 2.36,-0.02 2.36,0.04 2.35,0.10 2.32,0.16 2.30,0.22 2.25,0.26 2.21,0.31 2.15,0.34 2.09,0.37 2.03,0.38 1.97,0.39 1.97,0.39 1.97,0.39 0.98,0.39 0,0.39 -0.04,0.39 -0.09,0.38 -0.14,0.37 -0.18,0.35 -0.22,0.32 -0.26,0.29 -0.29,0.26 -0.32,0.22 -0.35,0.18 -0.37,0.14 -0.38,0.09 -0.39,0.04 -0.39,-0.00 -0.39,-0.04 -0.38,-0.09 -0.37,-0.14 -0.35,-0.18 -0.32,-0.22 -0.29,-0.26 -0.26,-0.29 -0.22,-0.32 -0.18,-0.35 -0.14,-0.37 -0.09,-0.38 -0.04,-0.39 0.00,-0.39 0.00,-0.39 L 0,-0.39 Z"/></g><g transform="translate(93.59213515787621 28.50792554348436) rotate(0 11.570946084926902 -0.43255873214678786)" stroke="none"><path fill="#646261" d="M -0.30,-0.25 Q -0.30,-0.25 -0.09,-0.71 0.11,-1.18 0.61,-1.54 1.12,-1.91 1.61,-2.13 2.10,-2.36 2.80,-2.07 3.50,-1.78 3.33,-1.16 3.17,-0.54 3.05,-0.23 2.93,0.07 3.35,-0.12 3.77,-0.32 4.17,-0.51 4.56,-0.70 5.04,-0.97 5.52,-1.24 6.03,-1.55 6.55,-1.85 7.00,-2.05 7.46,-2.26 8.00,-2.20 8.54,-2.14 8.80,-1.93 9.06,-1.71 9.17,-1.31 9.28,-0.90 9.36,-0.56 9.44,-0.21 10.08,-0.05 10.73,0.10 11.10,-0.03 11.46,-0.16 12.04,-0.40 12.61,-0.64 13.09,-1.01 13.58,-1.38 14.15,-1.74 14.73,-2.10 15.25,-2.29 15.77,-2.47 16.38,-2.49 17.00,-2.51 17.51,-2.44 18.03,-2.37 18.63,-2.13 19.23,-1.88 21.12,-1.46 23.01,-1.03 23.07,-1.02 23.13,-1.01 23.19,-0.98 23.25,-0.96 23.29,-0.91 23.34,-0.86 23.36,-0.81 23.39,-0.75 23.40,-0.69 23.41,-0.62 23.39,-0.56 23.38,-0.50 23.35,-0.44 23.32,-0.39 23.27,-0.35 23.22,-0.30 23.16,-0.28 23.10,-0.26 23.04,-0.25 22.98,-0.25 22.92,-0.26 22.85,-0.28 22.80,-0.31 22.75,-0.35 22.71,-0.40 22.67,-0.45 22.65,-0.51 22.63,-0.57 22.63,-0.63 22.62,-0.70 22.64,-0.76 22.66,-0.82 22.70,-0.87 22.74,-0.92 22.79,-0.96 22.84,-0.99 22.90,-1.01 22.97,-1.03 23.03,-1.03 23.09,-1.02 23.15,-1.00 23.21,-0.98 23.26,-0.94 23.31,-0.90 23.34,-0.84 23.38,-0.79 23.39,-0.73 23.41,-0.67 23.40,-0.60 23.40,-0.54 23.37,-0.48 23.34,-0.42 23.30,-0.38 23.26,-0.33 23.20,-0.30 23.15,-0.27 23.08,-0.26 23.02,-0.24 23.02,-0.24 23.02,-0.24 20.83,-0.36 18.63,-0.47 18.22,-0.65 17.81,-0.83 17.41,-0.88 17.01,-0.93 16.64,-0.95 16.28,-0.96 15.95,-0.84 15.62,-0.72 15.08,-0.36 14.54,-0.00 13.86,0.44 13.18,0.88 12.48,1.10 11.78,1.32 11.19,1.38 10.60,1.45 9.94,1.31 9.27,1.16 8.75,0.78 8.23,0.40 8.20,-0.11 8.17,-0.63 7.80,-0.45 7.43,-0.28 6.87,0.01 6.31,0.31 5.73,0.58 5.15,0.85 4.51,1.05 3.88,1.25 3.26,1.23 2.64,1.20 2.30,0.96 1.96,0.71 1.84,0.22 1.72,-0.27 1.86,-0.95 2.00,-1.62 2.33,-1.30 2.65,-0.98 2.27,-0.84 1.88,-0.71 1.50,-0.51 1.13,-0.30 0.71,-0.02 0.30,0.25 0.26,0.28 0.23,0.31 0.19,0.34 0.15,0.36 0.10,0.37 0.05,0.38 0.01,0.39 -0.03,0.39 -0.08,0.38 -0.12,0.37 -0.17,0.35 -0.21,0.33 -0.25,0.30 -0.28,0.27 -0.31,0.23 -0.34,0.19 -0.36,0.14 -0.37,0.10 -0.38,0.05 -0.39,0.01 -0.38,-0.03 -0.38,-0.08 -0.36,-0.12 -0.35,-0.17 -0.32,-0.21 -0.30,-0.25 -0.30,-0.25 L -0.30,-0.25 Z"/></g><g transform="translate(93.15957642572948 36.07770335605335) rotate(0 10.813968303669924 4.001168272357916)" stroke="none"><path fill="#646261" d="M 0.39,0.05 Q 0.39,0.05 0.45,0.50 0.51,0.95 0.55,1.38 0.59,1.81 0.63,2.38 0.68,2.95 0.74,3.50 0.81,4.06 0.79,4.66 0.78,5.26 0.74,5.72 0.70,6.18 0.65,6.58 0.60,6.98 1.50,6.85 2.40,6.72 3.24,6.52 4.07,6.32 5.01,6.19 5.95,6.06 6.97,5.98 8.00,5.90 8.97,6.00 9.95,6.10 10.89,6.34 11.82,6.58 12.50,6.74 13.18,6.90 14.07,7.00 14.96,7.10 15.76,7.13 16.56,7.16 17.49,7.14 18.43,7.12 19.94,7.07 21.46,7.02 21.52,7.02 21.59,7.02 21.65,7.04 21.71,7.05 21.76,7.09 21.81,7.13 21.85,7.18 21.89,7.23 21.91,7.29 21.92,7.35 21.92,7.42 21.92,7.48 21.90,7.54 21.88,7.60 21.84,7.65 21.80,7.70 21.75,7.74 21.69,7.77 21.63,7.79 21.57,7.80 21.50,7.80 21.44,7.79 21.38,7.77 21.32,7.74 21.28,7.70 21.23,7.66 21.20,7.60 21.17,7.55 21.15,7.48 21.14,7.42 21.15,7.36 21.16,7.29 21.19,7.24 21.21,7.18 21.26,7.13 21.30,7.09 21.36,7.06 21.42,7.03 21.48,7.02 21.54,7.01 21.61,7.03 21.67,7.04 21.72,7.07 21.78,7.10 21.82,7.15 21.87,7.19 21.89,7.25 21.92,7.31 21.92,7.38 21.93,7.44 21.91,7.50 21.90,7.56 21.86,7.62 21.83,7.67 21.78,7.71 21.73,7.75 21.67,7.77 21.61,7.80 21.61,7.80 21.61,7.80 20.05,8.18 18.48,8.56 17.47,8.61 16.46,8.67 15.61,8.59 14.76,8.51 13.82,8.35 12.88,8.19 12.19,8.02 11.49,7.86 10.64,7.64 9.79,7.41 8.92,7.29 8.04,7.18 7.05,7.17 6.05,7.16 5.17,7.19 4.28,7.23 3.46,7.42 2.64,7.61 2.01,7.82 1.38,8.03 0.79,8.20 0.21,8.37 -0.16,8.22 -0.54,8.07 -0.71,7.69 -0.88,7.31 -0.82,6.97 -0.76,6.64 -0.62,6.31 -0.49,5.98 -0.38,5.60 -0.28,5.22 -0.25,4.72 -0.22,4.23 -0.35,3.67 -0.48,3.10 -0.58,2.50 -0.69,1.90 -0.73,1.34 -0.76,0.78 -0.57,0.36 -0.39,-0.05 -0.37,-0.10 -0.36,-0.14 -0.34,-0.19 -0.32,-0.23 -0.28,-0.26 -0.25,-0.30 -0.21,-0.32 -0.17,-0.35 -0.13,-0.37 -0.08,-0.38 -0.03,-0.39 0.00,-0.39 0.05,-0.38 0.10,-0.38 0.14,-0.36 0.19,-0.34 0.23,-0.31 0.26,-0.29 0.29,-0.25 0.33,-0.21 0.35,-0.17 0.37,-0.13 0.38,-0.08 0.39,-0.03 0.39,0.00 0.39,0.05 0.39,0.05 L 0.39,0.05 Z"/></g><g transform="translate(94.02469389002306 33.48235096317262) rotate(0 11.462806401890134 2.3790730268073617)" stroke="none"><path fill="#646261" d="M 0.24,-0.31 Q 0.24,-0.31 0.91,-0.02 1.58,0.25 2.33,0.51 3.09,0.77 4.27,1.02 5.45,1.27 6.86,1.38 8.28,1.48 9.61,1.45 10.94,1.43 12.56,1.29 14.17,1.15 15.53,0.97 16.89,0.78 17.97,0.65 19.06,0.52 19.95,0.39 20.84,0.27 21.55,0.27 22.25,0.26 22.82,0.65 23.38,1.03 22.94,2.77 22.50,4.51 22.47,4.57 22.45,4.63 22.42,4.68 22.38,4.73 22.32,4.77 22.27,4.80 22.21,4.82 22.15,4.84 22.08,4.83 22.02,4.83 21.96,4.81 21.90,4.78 21.85,4.74 21.81,4.70 21.77,4.65 21.74,4.59 21.73,4.53 21.71,4.47 21.72,4.40 21.73,4.34 21.75,4.28 21.78,4.22 21.82,4.18 21.87,4.13 21.93,4.10 21.98,4.07 22.04,4.06 22.11,4.05 22.17,4.06 22.23,4.07 22.29,4.10 22.35,4.13 22.39,4.18 22.43,4.23 22.46,4.28 22.49,4.34 22.49,4.41 22.50,4.47 22.49,4.53 22.47,4.59 22.44,4.65 22.41,4.70 22.36,4.74 22.31,4.78 22.25,4.81 22.19,4.83 22.13,4.83 22.06,4.84 22.00,4.82 21.94,4.80 21.89,4.77 21.83,4.73 21.80,4.68 21.76,4.63 21.74,4.57 21.72,4.51 21.72,4.45 21.72,4.38 21.72,4.38 21.72,4.38 21.94,3.12 22.16,1.86 21.61,1.83 21.05,1.81 20.15,1.93 19.25,2.05 18.17,2.19 17.09,2.33 15.69,2.51 14.29,2.69 12.63,2.81 10.96,2.93 9.56,2.94 8.17,2.95 6.66,2.83 5.16,2.72 3.87,2.46 2.58,2.19 1.62,1.84 0.65,1.48 0.20,0.89 -0.24,0.31 -0.27,0.27 -0.30,0.24 -0.33,0.20 -0.35,0.16 -0.37,0.11 -0.38,0.07 -0.39,0.02 -0.39,-0.02 -0.38,-0.06 -0.37,-0.11 -0.35,-0.15 -0.33,-0.20 -0.30,-0.24 -0.27,-0.27 -0.24,-0.30 -0.20,-0.33 -0.16,-0.35 -0.11,-0.37 -0.07,-0.38 -0.02,-0.39 0.02,-0.39 0.06,-0.38 0.11,-0.37 0.16,-0.35 0.20,-0.33 0.24,-0.31 0.24,-0.31 L 0.24,-0.31 Z"/></g><g transform="translate(92.2944589614358 54.461449472292315) rotate(0 12.544203232257246 -1.513955562513786)" stroke="none"><path fill="#646261" d="M -0.24,0.31 Q -0.24,0.31 -0.69,0.18 -1.13,0.06 -1.24,-0.64 -1.35,-1.35 -1.03,-1.66 -0.71,-1.98 0.09,-2.24 0.89,-2.50 1.94,-2.78 2.99,-3.05 4.21,-3.28 5.42,-3.52 6.40,-3.61 7.38,-3.71 8.15,-3.67 8.92,-3.63 9.50,-3.47 10.07,-3.30 10.49,-3.09 10.90,-2.88 11.49,-2.82 12.08,-2.76 12.67,-2.83 13.26,-2.89 13.60,-2.92 13.93,-2.95 14.56,-3.02 15.18,-3.09 15.79,-3.13 16.39,-3.17 16.90,-3.13 17.41,-3.09 17.74,-2.96 18.07,-2.84 18.30,-2.61 18.54,-2.38 18.64,-2.06 18.74,-1.75 19.07,-1.68 19.41,-1.62 19.85,-1.58 20.30,-1.54 21.34,-1.50 22.37,-1.46 24.23,-1.06 26.09,-0.67 26.15,-0.63 26.20,-0.60 26.24,-0.55 26.28,-0.50 26.31,-0.44 26.33,-0.38 26.33,-0.32 26.33,-0.25 26.31,-0.19 26.30,-0.13 26.26,-0.08 26.22,-0.03 26.17,0.00 26.12,0.04 26.06,0.06 26.00,0.07 25.93,0.07 25.87,0.07 25.81,0.05 25.75,0.03 25.70,-0.00 25.65,-0.04 25.62,-0.09 25.58,-0.15 25.57,-0.21 25.55,-0.27 25.55,-0.33 25.56,-0.40 25.58,-0.46 25.61,-0.51 25.65,-0.56 25.69,-0.61 25.75,-0.64 25.80,-0.67 25.87,-0.69 25.93,-0.70 25.99,-0.69 26.05,-0.68 26.11,-0.65 26.17,-0.63 26.21,-0.58 26.26,-0.54 26.29,-0.48 26.32,-0.42 26.33,-0.36 26.34,-0.30 26.32,-0.23 26.31,-0.17 26.28,-0.12 26.25,-0.06 26.20,-0.02 26.16,0.02 26.10,0.04 26.04,0.07 25.98,0.07 25.91,0.08 25.85,0.06 25.79,0.05 25.79,0.05 25.79,0.05 24.11,-0.04 22.42,-0.14 21.29,-0.01 20.15,0.10 19.59,0.05 19.02,0.00 18.38,-0.22 17.74,-0.44 17.47,-0.90 17.20,-1.37 16.84,-1.43 16.48,-1.48 15.93,-1.46 15.37,-1.44 14.72,-1.36 14.07,-1.29 13.75,-1.26 13.43,-1.24 12.76,-1.17 12.10,-1.11 11.50,-1.16 10.91,-1.20 10.29,-1.52 9.67,-1.84 9.27,-1.94 8.87,-2.04 8.22,-2.04 7.56,-2.03 6.67,-1.92 5.77,-1.81 4.61,-1.57 3.45,-1.32 2.44,-1.04 1.42,-0.77 0.62,-0.54 -0.16,-0.31 -0.13,-0.68 -0.11,-1.06 0.06,-0.68 0.24,-0.31 0.28,-0.27 0.31,-0.24 0.33,-0.20 0.36,-0.15 0.37,-0.11 0.39,-0.06 0.39,-0.01 0.39,0.02 0.38,0.07 0.37,0.12 0.35,0.16 0.33,0.20 0.30,0.24 0.27,0.28 0.24,0.31 0.20,0.34 0.15,0.36 0.11,0.38 0.06,0.38 0.01,0.39 -0.02,0.39 -0.07,0.39 -0.12,0.37 -0.16,0.36 -0.20,0.33 -0.24,0.31 -0.24,0.31 L -0.24,0.31 Z"/></g><g transform="translate(93.3758557918029 60.73355108842088) rotate(0 0.432558732146731 4.8662857366514345)" stroke="none"><path fill="#646261" d="M 0.35,-0.17 Q 0.35,-0.17 0.68,-0.02 1.02,0.11 1.15,0.76 1.28,1.40 1.30,2.13 1.33,2.85 1.27,3.62 1.20,4.38 1.11,5.08 1.01,5.78 0.84,6.42 0.67,7.07 0.54,7.62 0.41,8.18 0.29,8.67 0.18,9.16 0.95,9.10 1.73,9.04 1.71,9.09 1.70,9.13 1.67,9.17 1.64,9.21 1.61,9.24 1.57,9.27 1.53,9.30 1.49,9.32 1.44,9.33 1.40,9.34 1.35,9.34 1.30,9.34 1.26,9.33 1.21,9.32 1.17,9.30 1.12,9.28 1.09,9.25 1.05,9.21 1.03,9.18 1.00,9.14 0.98,9.09 0.96,9.05 0.96,9.00 0.95,8.95 0.96,8.91 0.96,8.86 1.12,8.71 1.28,8.56 1.34,8.56 1.41,8.56 1.47,8.58 1.53,8.60 1.58,8.64 1.63,8.68 1.67,8.73 1.70,8.78 1.72,8.84 1.74,8.90 1.73,8.97 1.73,9.03 1.71,9.09 1.69,9.15 1.65,9.20 1.60,9.25 1.55,9.28 1.50,9.32 1.43,9.33 1.37,9.34 1.31,9.34 1.25,9.33 1.19,9.31 1.13,9.28 1.08,9.24 1.04,9.19 1.00,9.14 0.97,9.08 0.96,9.02 0.95,8.96 0.96,8.89 0.97,8.83 1.00,8.77 1.03,8.72 1.08,8.67 1.12,8.63 1.18,8.60 1.24,8.57 1.30,8.57 1.36,8.56 1.43,8.57 1.49,8.58 1.54,8.62 1.60,8.65 1.64,8.70 1.68,8.74 1.71,8.80 1.73,8.86 1.73,8.93 1.74,8.99 1.72,9.05 1.71,9.11 1.67,9.17 1.64,9.22 1.59,9.26 1.53,9.30 1.63,9.17 1.73,9.04 1.71,9.09 1.70,9.13 1.67,9.17 1.64,9.21 1.61,9.24 1.57,9.27 1.53,9.30 1.49,9.32 1.44,9.33 1.40,9.34 1.35,9.34 1.30,9.34 1.26,9.33 1.21,9.32 1.17,9.30 1.12,9.28 1.09,9.25 1.05,9.21 1.03,9.18 1.00,9.14 0.98,9.09 0.96,9.05 0.96,9.00 0.95,8.95 0.96,8.91 0.96,8.86 -0.08,8.85 -1.13,8.85 -1.01,8.36 -0.89,7.88 -0.76,7.30 -0.63,6.72 -0.49,6.17 -0.34,5.62 -0.28,4.96 -0.22,4.30 -0.20,3.63 -0.18,2.96 -0.25,2.35 -0.32,1.74 -0.42,1.31 -0.52,0.87 -0.44,0.52 -0.35,0.17 -0.36,0.13 -0.38,0.08 -0.39,0.03 -0.39,-0.00 -0.38,-0.05 -0.38,-0.10 -0.36,-0.14 -0.34,-0.19 -0.31,-0.22 -0.29,-0.26 -0.25,-0.29 -0.21,-0.32 -0.17,-0.35 -0.13,-0.37 -0.08,-0.38 -0.03,-0.39 0.00,-0.39 0.05,-0.39 0.10,-0.37 0.14,-0.36 0.18,-0.34 0.23,-0.32 0.26,-0.28 0.30,-0.25 0.32,-0.21 0.35,-0.17 0.35,-0.17 L 0.35,-0.17 Z"/></g><g transform="translate(96.83632564897721 69.16844636528344) rotate(0 8.002336544715774 -0.43255873214678786)" stroke="none"><path fill="#646261" d="M -0.03,-0.39 Q -0.03,-0.39 0.64,-0.52 1.31,-0.65 2.22,-0.84 3.12,-1.03 4.27,-1.11 5.43,-1.19 6.58,-1.27 7.73,-1.35 8.80,-1.36 9.87,-1.38 10.87,-1.41 11.86,-1.44 13.84,-1.24 15.81,-1.05 15.87,-1.04 15.93,-1.02 15.99,-0.99 16.04,-0.96 16.08,-0.91 16.13,-0.86 16.15,-0.80 16.17,-0.74 16.18,-0.68 16.18,-0.61 16.16,-0.55 16.14,-0.49 16.11,-0.44 16.07,-0.38 16.02,-0.35 15.97,-0.31 15.91,-0.29 15.85,-0.27 15.78,-0.27 15.72,-0.27 15.66,-0.29 15.60,-0.31 15.55,-0.35 15.50,-0.39 15.46,-0.44 15.43,-0.49 15.41,-0.56 15.39,-0.62 15.40,-0.68 15.40,-0.74 15.43,-0.80 15.45,-0.86 15.49,-0.91 15.53,-0.96 15.59,-0.99 15.64,-1.02 15.71,-1.04 15.77,-1.05 15.83,-1.04 15.89,-1.04 15.95,-1.01 16.01,-0.98 16.06,-0.94 16.10,-0.89 16.13,-0.84 16.16,-0.78 16.17,-0.72 16.18,-0.65 16.17,-0.59 16.16,-0.53 16.13,-0.47 16.10,-0.42 16.05,-0.37 16.01,-0.33 15.95,-0.30 15.89,-0.28 15.83,-0.27 15.76,-0.26 15.76,-0.26 15.76,-0.26 13.86,-0.16 11.97,-0.06 10.94,0.05 9.92,0.18 8.88,0.23 7.84,0.29 6.66,0.36 5.48,0.44 4.37,0.43 3.26,0.42 2.33,0.41 1.41,0.40 0.72,0.39 0.03,0.39 -0.01,0.39 -0.05,0.38 -0.10,0.37 -0.15,0.36 -0.19,0.34 -0.23,0.31 -0.26,0.28 -0.30,0.25 -0.32,0.21 -0.35,0.17 -0.36,0.12 -0.38,0.08 -0.38,0.03 -0.39,-0.01 -0.38,-0.05 -0.37,-0.10 -0.36,-0.14 -0.34,-0.19 -0.31,-0.23 -0.28,-0.27 -0.25,-0.30 -0.21,-0.33 -0.17,-0.35 -0.12,-0.37 -0.08,-0.38 -0.03,-0.39 -0.03,-0.39 L -0.03,-0.39 Z"/></g><g transform="translate(93.59213515787621 60.51727172234746) rotate(0 12.544203232257189 2.2709333437706505)" stroke="none"><path fill="#646261" d="M 0,-0.39 Q 0,-0.39 0.87,-0.59 1.74,-0.79 2.77,-0.86 3.80,-0.94 5.11,-1.05 6.42,-1.16 7.92,-1.27 9.41,-1.39 10.96,-1.56 12.51,-1.73 13.99,-1.86 15.47,-2.00 16.80,-2.06 18.13,-2.12 19.20,-2.15 20.26,-2.19 21.27,-2.08 22.29,-1.97 23.06,-1.79 23.83,-1.60 24.41,-1.25 24.98,-0.89 25.28,-0.35 25.59,0.19 25.61,0.76 25.63,1.33 25.46,1.90 25.29,2.48 24.55,4.12 23.81,5.77 23.78,5.82 23.74,5.88 23.69,5.91 23.64,5.95 23.58,5.97 23.52,6.00 23.46,6.00 23.40,6.00 23.34,5.98 23.27,5.96 23.22,5.92 23.17,5.88 23.14,5.83 23.10,5.78 23.08,5.72 23.06,5.66 23.07,5.59 23.07,5.53 23.09,5.47 23.11,5.41 23.16,5.36 23.20,5.31 23.25,5.28 23.30,5.24 23.37,5.23 23.43,5.21 23.49,5.22 23.56,5.23 23.61,5.25 23.67,5.28 23.72,5.32 23.77,5.37 23.80,5.42 23.83,5.48 23.84,5.54 23.85,5.60 23.84,5.67 23.83,5.73 23.80,5.79 23.77,5.84 23.73,5.89 23.68,5.93 23.62,5.96 23.56,5.99 23.50,5.99 23.44,6.00 23.38,5.99 23.31,5.98 23.26,5.94 23.20,5.91 23.16,5.86 23.12,5.81 23.10,5.76 23.07,5.70 23.07,5.63 23.06,5.57 23.08,5.51 23.10,5.45 23.10,5.45 23.10,5.45 23.51,3.79 23.92,2.14 23.99,1.76 24.06,1.37 23.99,0.96 23.92,0.56 23.64,0.39 23.36,0.22 22.71,0.06 22.06,-0.09 21.18,-0.21 20.30,-0.33 19.26,-0.31 18.21,-0.30 16.92,-0.25 15.63,-0.19 14.16,-0.06 12.70,0.06 11.11,0.22 9.53,0.39 8.03,0.47 6.54,0.55 5.22,0.62 3.89,0.69 2.81,0.74 1.74,0.79 0.87,0.59 0,0.39 -0.04,0.38 -0.09,0.38 -0.13,0.36 -0.18,0.34 -0.22,0.32 -0.26,0.29 -0.29,0.25 -0.32,0.22 -0.34,0.18 -0.36,0.13 -0.37,0.09 -0.39,0.04 -0.39,-0.00 -0.39,-0.04 -0.37,-0.09 -0.36,-0.13 -0.34,-0.18 -0.32,-0.22 -0.29,-0.25 -0.26,-0.29 -0.22,-0.32 -0.18,-0.34 -0.13,-0.36 -0.09,-0.38 -0.04,-0.38 0.00,-0.39 0.00,-0.39 L 0,-0.39 Z"/></g><g stroke-linecap="round" transform="translate(124.80697063355353 32.74275478551601) rotate(0 15.863322381192575 30.750440308157977)"><path d="M0 0 C7.93 -0.43, 15.13 1.6, 31.73 0 M0 0 C12.64 0.45, 24.9 -0.86, 31.73 0 M31.73 0 C33.16 21.02, 32.75 45.99, 31.73 61.5 M31.73 0 C31.11 16.19, 30.71 34.36, 31.73 61.5 M31.73 61.5 C22.82 62.4, 15.87 62.86, 0 61.5 M31.73 61.5 C25.21 61.92, 17.59 60.75, 0 61.5 M0 61.5 C2.31 40.55, -1.35 21.45, 0 0 M0 61.5 C-0.92 41.98, -0.18 22.11, 0 0" stroke="#646261" stroke-width="1" fill="none"/></g><g transform="translate(129.82218577885249 53.489711499265354) rotate(0 1.9465142946605738 5.684341886080802e-14)" stroke="none"><path fill="#646261" d="M -0.06,-0.39 Q -0.06,-0.39 0.27,-0.68 0.61,-0.97 2.24,-0.59 3.88,-0.21 3.94,-0.19 4.00,-0.17 4.05,-0.13 4.10,-0.10 4.14,-0.04 4.17,0.00 4.19,0.06 4.21,0.12 4.21,0.18 4.20,0.25 4.18,0.31 4.16,0.37 4.12,0.42 4.08,0.47 4.02,0.50 3.97,0.53 3.91,0.55 3.85,0.56 3.78,0.56 3.72,0.55 3.66,0.52 3.60,0.50 3.55,0.45 3.51,0.41 3.48,0.35 3.45,0.30 3.44,0.24 3.42,0.17 3.43,0.11 3.44,0.05 3.47,-0.00 3.50,-0.06 3.55,-0.10 3.59,-0.15 3.65,-0.17 3.71,-0.20 3.77,-0.21 3.84,-0.22 3.90,-0.20 3.96,-0.19 4.02,-0.16 4.07,-0.13 4.11,-0.08 4.15,-0.03 4.18,0.02 4.20,0.08 4.21,0.14 4.21,0.21 4.19,0.27 4.18,0.33 4.14,0.38 4.11,0.44 4.06,0.47 4.01,0.51 3.95,0.54 3.89,0.56 3.82,0.56 3.76,0.56 3.76,0.56 3.76,0.56 2.32,0.64 0.88,0.72 0.47,0.55 0.06,0.39 0.01,0.39 -0.03,0.39 -0.07,0.38 -0.12,0.37 -0.16,0.35 -0.21,0.33 -0.24,0.30 -0.28,0.27 -0.31,0.23 -0.34,0.20 -0.36,0.15 -0.38,0.11 -0.39,0.06 -0.39,0.01 -0.39,-0.03 -0.39,-0.07 -0.37,-0.12 -0.36,-0.16 -0.33,-0.21 -0.30,-0.25 -0.27,-0.28 -0.24,-0.31 -0.19,-0.34 -0.15,-0.36 -0.11,-0.37 -0.06,-0.39 -0.06,-0.39 L -0.06,-0.39 Z"/></g><g transform="translate(137.8245223235682 53.489711499265354) rotate(0 3.7848889062844364 0.10813968303671118)" stroke="none"><path fill="#646261" d="M 0,-0.39 Q 0,-0.39 0.74,-0.57 1.49,-0.75 2.27,-0.66 3.05,-0.58 5.18,-0.38 7.31,-0.18 7.37,-0.16 7.44,-0.15 7.49,-0.12 7.55,-0.09 7.59,-0.05 7.64,-0.00 7.66,0.05 7.69,0.11 7.69,0.17 7.70,0.23 7.69,0.30 7.67,0.36 7.64,0.41 7.60,0.47 7.56,0.51 7.51,0.55 7.45,0.57 7.39,0.59 7.32,0.60 7.26,0.60 7.20,0.58 7.14,0.56 7.09,0.53 7.03,0.49 6.99,0.44 6.96,0.39 6.94,0.33 6.92,0.27 6.92,0.20 6.92,0.14 6.94,0.08 6.96,0.02 7.00,-0.02 7.04,-0.07 7.09,-0.11 7.15,-0.14 7.21,-0.16 7.27,-0.17 7.33,-0.17 7.40,-0.17 7.46,-0.14 7.51,-0.12 7.56,-0.08 7.61,-0.03 7.64,0.01 7.67,0.07 7.69,0.13 7.70,0.19 7.69,0.25 7.69,0.32 7.66,0.38 7.63,0.43 7.59,0.48 7.54,0.52 7.49,0.55 7.43,0.58 7.37,0.59 7.30,0.60 7.30,0.60 7.30,0.60 5.12,0.71 2.93,0.83 2.21,0.79 1.49,0.75 0.74,0.57 0,0.39 -0.04,0.39 -0.09,0.38 -0.13,0.36 -0.18,0.35 -0.22,0.32 -0.26,0.29 -0.29,0.26 -0.32,0.22 -0.34,0.18 -0.37,0.14 -0.38,0.09 -0.39,0.04 -0.39,-0.00 -0.39,-0.04 -0.38,-0.09 -0.37,-0.14 -0.34,-0.18 -0.32,-0.22 -0.29,-0.26 -0.26,-0.29 -0.22,-0.32 -0.18,-0.35 -0.13,-0.36 -0.09,-0.38 -0.04,-0.39 0.00,-0.39 0.00,-0.39 L 0,-0.39 Z"/></g><g transform="translate(149.71988745760507 53.9222702314122) rotate(0 1.081396830366998 -0.10813968303671118)" stroke="none"><path fill="#646261" d="M 0,-0.39 Q 0,-0.39 0.98,-0.39 1.97,-0.39 2.03,-0.38 2.10,-0.37 2.15,-0.34 2.21,-0.31 2.25,-0.26 2.30,-0.22 2.32,-0.16 2.35,-0.10 2.36,-0.04 2.36,0.02 2.35,0.08 2.34,0.14 2.30,0.20 2.27,0.25 2.22,0.29 2.17,0.33 2.11,0.36 2.05,0.38 1.99,0.38 1.93,0.39 1.87,0.37 1.80,0.35 1.75,0.32 1.70,0.28 1.66,0.23 1.62,0.18 1.60,0.12 1.58,0.06 1.58,-0.00 1.58,-0.06 1.60,-0.12 1.62,-0.18 1.66,-0.23 1.70,-0.28 1.75,-0.32 1.80,-0.35 1.87,-0.37 1.93,-0.39 1.99,-0.38 2.05,-0.38 2.11,-0.36 2.17,-0.33 2.22,-0.29 2.27,-0.25 2.30,-0.20 2.34,-0.14 2.35,-0.08 2.36,-0.02 2.36,0.04 2.35,0.10 2.32,0.16 2.30,0.22 2.25,0.26 2.21,0.31 2.15,0.34 2.09,0.37 2.03,0.38 1.97,0.39 1.97,0.39 1.97,0.39 0.98,0.39 0,0.39 -0.04,0.39 -0.09,0.38 -0.14,0.37 -0.18,0.35 -0.22,0.32 -0.26,0.29 -0.29,0.26 -0.32,0.22 -0.35,0.18 -0.37,0.14 -0.38,0.09 -0.39,0.04 -0.39,-0.00 -0.39,-0.04 -0.38,-0.09 -0.37,-0.14 -0.35,-0.18 -0.32,-0.22 -0.29,-0.26 -0.26,-0.29 -0.22,-0.32 -0.18,-0.35 -0.14,-0.37 -0.09,-0.38 -0.04,-0.39 0.00,-0.39 0.00,-0.39 L 0,-0.39 Z"/></g><g transform="translate(128.9623720200599 66.20430786602935) rotate(0 11.570946084926902 -0.43255873214678786)" stroke="none"><path fill="#646261" d="M -0.30,-0.25 Q -0.30,-0.25 -0.09,-0.71 0.11,-1.18 0.61,-1.54 1.12,-1.91 1.61,-2.13 2.10,-2.36 2.80,-2.07 3.50,-1.78 3.33,-1.16 3.17,-0.54 3.05,-0.23 2.93,0.07 3.35,-0.12 3.77,-0.32 4.17,-0.51 4.56,-0.70 5.04,-0.97 5.52,-1.24 6.03,-1.55 6.55,-1.85 7.00,-2.05 7.46,-2.26 8.00,-2.20 8.54,-2.14 8.80,-1.93 9.06,-1.71 9.17,-1.31 9.28,-0.90 9.36,-0.56 9.44,-0.21 10.08,-0.05 10.73,0.10 11.10,-0.03 11.46,-0.16 12.04,-0.40 12.61,-0.64 13.09,-1.01 13.58,-1.38 14.15,-1.74 14.73,-2.10 15.25,-2.29 15.77,-2.47 16.38,-2.49 17.00,-2.51 17.51,-2.44 18.03,-2.37 18.63,-2.13 19.23,-1.88 21.12,-1.46 23.01,-1.03 23.07,-1.02 23.13,-1.01 23.19,-0.98 23.25,-0.96 23.29,-0.91 23.34,-0.86 23.36,-0.81 23.39,-0.75 23.40,-0.69 23.41,-0.62 23.39,-0.56 23.38,-0.50 23.35,-0.44 23.32,-0.39 23.27,-0.35 23.22,-0.30 23.16,-0.28 23.10,-0.26 23.04,-0.25 22.98,-0.25 22.92,-0.26 22.85,-0.28 22.80,-0.31 22.75,-0.35 22.71,-0.40 22.67,-0.45 22.65,-0.51 22.63,-0.57 22.63,-0.63 22.62,-0.70 22.64,-0.76 22.66,-0.82 22.70,-0.87 22.74,-0.92 22.79,-0.96 22.84,-0.99 22.90,-1.01 22.97,-1.03 23.03,-1.03 23.09,-1.02 23.15,-1.00 23.21,-0.98 23.26,-0.94 23.31,-0.90 23.34,-0.84 23.38,-0.79 23.39,-0.73 23.41,-0.67 23.40,-0.60 23.40,-0.54 23.37,-0.48 23.34,-0.42 23.30,-0.38 23.26,-0.33 23.20,-0.30 23.15,-0.27 23.08,-0.26 23.02,-0.24 23.02,-0.24 23.02,-0.24 20.83,-0.36 18.63,-0.47 18.22,-0.65 17.81,-0.83 17.41,-0.88 17.01,-0.93 16.64,-0.95 16.28,-0.96 15.95,-0.84 15.62,-0.72 15.08,-0.36 14.54,-0.00 13.86,0.44 13.18,0.88 12.48,1.10 11.78,1.32 11.19,1.38 10.60,1.45 9.94,1.31 9.27,1.16 8.75,0.78 8.23,0.40 8.20,-0.11 8.17,-0.63 7.80,-0.45 7.43,-0.28 6.87,0.01 6.31,0.31 5.73,0.58 5.15,0.85 4.51,1.05 3.88,1.25 3.26,1.23 2.64,1.20 2.30,0.96 1.96,0.71 1.84,0.22 1.72,-0.27 1.86,-0.95 2.00,-1.62 2.33,-1.30 2.65,-0.98 2.27,-0.84 1.88,-0.71 1.50,-0.51 1.13,-0.30 0.71,-0.02 0.30,0.25 0.26,0.28 0.23,0.31 0.19,0.34 0.15,0.36 0.10,0.37 0.05,0.38 0.01,0.39 -0.03,0.39 -0.08,0.38 -0.12,0.37 -0.17,0.35 -0.21,0.33 -0.25,0.30 -0.28,0.27 -0.31,0.23 -0.34,0.19 -0.36,0.14 -0.37,0.10 -0.38,0.05 -0.39,0.01 -0.38,-0.03 -0.38,-0.08 -0.36,-0.12 -0.35,-0.17 -0.32,-0.21 -0.30,-0.25 -0.30,-0.25 L -0.30,-0.25 Z"/></g><g transform="translate(129.82988957277678 37.79287126191366) rotate(0 10.813968303669867 4.001168272357916)" stroke="none"><path fill="#646261" d="M 0.39,0.05 Q 0.39,0.05 0.45,0.50 0.51,0.95 0.55,1.38 0.59,1.81 0.63,2.38 0.68,2.95 0.74,3.50 0.81,4.06 0.79,4.66 0.78,5.26 0.74,5.72 0.70,6.18 0.65,6.58 0.60,6.98 1.50,6.85 2.40,6.72 3.24,6.52 4.07,6.32 5.01,6.19 5.95,6.06 6.97,5.98 8.00,5.90 8.97,6.00 9.95,6.10 10.89,6.34 11.82,6.58 12.50,6.74 13.18,6.90 14.07,7.00 14.96,7.10 15.76,7.13 16.56,7.16 17.49,7.14 18.43,7.12 19.94,7.07 21.46,7.02 21.52,7.02 21.59,7.02 21.65,7.04 21.71,7.05 21.76,7.09 21.81,7.13 21.85,7.18 21.89,7.23 21.91,7.29 21.92,7.35 21.92,7.42 21.92,7.48 21.90,7.54 21.88,7.60 21.84,7.65 21.80,7.70 21.75,7.74 21.69,7.77 21.63,7.79 21.57,7.80 21.50,7.80 21.44,7.79 21.38,7.77 21.32,7.74 21.28,7.70 21.23,7.66 21.20,7.60 21.17,7.55 21.15,7.48 21.14,7.42 21.15,7.36 21.16,7.29 21.19,7.24 21.21,7.18 21.26,7.13 21.30,7.09 21.36,7.06 21.42,7.03 21.48,7.02 21.54,7.01 21.61,7.03 21.67,7.04 21.72,7.07 21.78,7.10 21.82,7.15 21.87,7.19 21.89,7.25 21.92,7.31 21.92,7.38 21.93,7.44 21.91,7.50 21.90,7.56 21.86,7.62 21.83,7.67 21.78,7.71 21.73,7.75 21.67,7.77 21.61,7.80 21.61,7.80 21.61,7.80 20.05,8.18 18.48,8.56 17.47,8.61 16.46,8.67 15.61,8.59 14.76,8.51 13.82,8.35 12.88,8.19 12.19,8.02 11.49,7.86 10.64,7.64 9.79,7.41 8.92,7.29 8.04,7.18 7.05,7.17 6.05,7.16 5.17,7.19 4.28,7.23 3.46,7.42 2.64,7.61 2.01,7.82 1.38,8.03 0.79,8.20 0.21,8.37 -0.16,8.22 -0.54,8.07 -0.71,7.69 -0.88,7.31 -0.82,6.97 -0.76,6.64 -0.62,6.31 -0.49,5.98 -0.38,5.60 -0.28,5.22 -0.25,4.72 -0.22,4.23 -0.35,3.67 -0.48,3.10 -0.58,2.50 -0.69,1.90 -0.73,1.34 -0.76,0.78 -0.57,0.36 -0.39,-0.05 -0.37,-0.10 -0.36,-0.14 -0.34,-0.19 -0.32,-0.23 -0.28,-0.26 -0.25,-0.30 -0.21,-0.32 -0.17,-0.35 -0.13,-0.37 -0.08,-0.38 -0.03,-0.39 0.00,-0.39 0.05,-0.38 0.10,-0.38 0.14,-0.36 0.19,-0.34 0.23,-0.31 0.26,-0.29 0.29,-0.25 0.33,-0.21 0.35,-0.17 0.37,-0.13 0.38,-0.08 0.39,-0.03 0.39,0.00 0.39,0.05 0.39,0.05 L 0.39,0.05 Z"/></g><g transform="translate(129.6257963166937 35.87495772240129) rotate(0 11.462806401890134 2.3790730268073617)" stroke="none"><path fill="#646261" d="M 0.24,-0.31 Q 0.24,-0.31 0.91,-0.02 1.58,0.25 2.33,0.51 3.09,0.77 4.27,1.02 5.45,1.27 6.86,1.38 8.28,1.48 9.61,1.45 10.94,1.43 12.56,1.29 14.17,1.15 15.53,0.97 16.89,0.78 17.97,0.65 19.06,0.52 19.95,0.39 20.84,0.27 21.55,0.27 22.25,0.26 22.82,0.65 23.38,1.03 22.94,2.77 22.50,4.51 22.47,4.57 22.45,4.63 22.42,4.68 22.38,4.73 22.32,4.77 22.27,4.80 22.21,4.82 22.15,4.84 22.08,4.83 22.02,4.83 21.96,4.81 21.90,4.78 21.85,4.74 21.81,4.70 21.77,4.65 21.74,4.59 21.73,4.53 21.71,4.47 21.72,4.40 21.73,4.34 21.75,4.28 21.78,4.22 21.82,4.18 21.87,4.13 21.93,4.10 21.98,4.07 22.04,4.06 22.11,4.05 22.17,4.06 22.23,4.07 22.29,4.10 22.35,4.13 22.39,4.18 22.43,4.23 22.46,4.28 22.49,4.34 22.49,4.41 22.50,4.47 22.49,4.53 22.47,4.59 22.44,4.65 22.41,4.70 22.36,4.74 22.31,4.78 22.25,4.81 22.19,4.83 22.13,4.83 22.06,4.84 22.00,4.82 21.94,4.80 21.89,4.77 21.83,4.73 21.80,4.68 21.76,4.63 21.74,4.57 21.72,4.51 21.72,4.45 21.72,4.38 21.72,4.38 21.72,4.38 21.94,3.12 22.16,1.86 21.61,1.83 21.05,1.81 20.15,1.93 19.25,2.05 18.17,2.19 17.09,2.33 15.69,2.51 14.29,2.69 12.63,2.81 10.96,2.93 9.56,2.94 8.17,2.95 6.66,2.83 5.16,2.72 3.87,2.46 2.58,2.19 1.62,1.84 0.65,1.48 0.20,0.89 -0.24,0.31 -0.27,0.27 -0.30,0.24 -0.33,0.20 -0.35,0.16 -0.37,0.11 -0.38,0.07 -0.39,0.02 -0.39,-0.02 -0.38,-0.06 -0.37,-0.11 -0.35,-0.15 -0.33,-0.20 -0.30,-0.24 -0.27,-0.27 -0.24,-0.30 -0.20,-0.33 -0.16,-0.35 -0.11,-0.37 -0.07,-0.38 -0.02,-0.39 0.02,-0.39 0.06,-0.38 0.11,-0.37 0.16,-0.35 0.20,-0.33 0.24,-0.31 0.24,-0.31 L 0.24,-0.31 Z"/></g><g transform="translate(128.37828029567015 76.60122390905326) rotate(0 12.544203232257246 -1.513955562513786)" stroke="none"><path fill="#646261" d="M -0.24,0.31 Q -0.24,0.31 -0.69,0.18 -1.13,0.06 -1.24,-0.64 -1.35,-1.35 -1.03,-1.66 -0.71,-1.98 0.09,-2.24 0.89,-2.50 1.94,-2.78 2.99,-3.05 4.21,-3.28 5.42,-3.52 6.40,-3.61 7.38,-3.71 8.15,-3.67 8.92,-3.63 9.50,-3.47 10.07,-3.30 10.49,-3.09 10.90,-2.88 11.49,-2.82 12.08,-2.76 12.67,-2.83 13.26,-2.89 13.60,-2.92 13.93,-2.95 14.56,-3.02 15.18,-3.09 15.79,-3.13 16.39,-3.17 16.90,-3.13 17.41,-3.09 17.74,-2.96 18.07,-2.84 18.30,-2.61 18.54,-2.38 18.64,-2.06 18.74,-1.75 19.07,-1.68 19.41,-1.62 19.85,-1.58 20.30,-1.54 21.34,-1.50 22.37,-1.46 24.23,-1.06 26.09,-0.67 26.15,-0.63 26.20,-0.60 26.24,-0.55 26.28,-0.50 26.31,-0.44 26.33,-0.38 26.33,-0.32 26.33,-0.25 26.31,-0.19 26.30,-0.13 26.26,-0.08 26.22,-0.03 26.17,0.00 26.12,0.04 26.06,0.06 26.00,0.07 25.93,0.07 25.87,0.07 25.81,0.05 25.75,0.03 25.70,-0.00 25.65,-0.04 25.62,-0.09 25.58,-0.15 25.57,-0.21 25.55,-0.27 25.55,-0.33 25.56,-0.40 25.58,-0.46 25.61,-0.51 25.65,-0.56 25.69,-0.61 25.75,-0.64 25.80,-0.67 25.87,-0.69 25.93,-0.70 25.99,-0.69 26.05,-0.68 26.11,-0.65 26.17,-0.63 26.21,-0.58 26.26,-0.54 26.29,-0.48 26.32,-0.42 26.33,-0.36 26.34,-0.30 26.32,-0.23 26.31,-0.17 26.28,-0.12 26.25,-0.06 26.20,-0.02 26.16,0.02 26.10,0.04 26.04,0.07 25.98,0.07 25.91,0.08 25.85,0.06 25.79,0.05 25.79,0.05 25.79,0.05 24.11,-0.04 22.42,-0.14 21.29,-0.01 20.15,0.10 19.59,0.05 19.02,0.00 18.38,-0.22 17.74,-0.44 17.47,-0.90 17.20,-1.37 16.84,-1.43 16.48,-1.48 15.93,-1.46 15.37,-1.44 14.72,-1.36 14.07,-1.29 13.75,-1.26 13.43,-1.24 12.76,-1.17 12.10,-1.11 11.50,-1.16 10.91,-1.20 10.29,-1.52 9.67,-1.84 9.27,-1.94 8.87,-2.04 8.22,-2.04 7.56,-2.03 6.67,-1.92 5.77,-1.81 4.61,-1.57 3.45,-1.32 2.44,-1.04 1.42,-0.77 0.62,-0.54 -0.16,-0.31 -0.13,-0.68 -0.11,-1.06 0.06,-0.68 0.24,-0.31 0.28,-0.27 0.31,-0.24 0.33,-0.20 0.36,-0.15 0.37,-0.11 0.39,-0.06 0.39,-0.01 0.39,0.02 0.38,0.07 0.37,0.12 0.35,0.16 0.33,0.20 0.30,0.24 0.27,0.28 0.24,0.31 0.20,0.34 0.15,0.36 0.11,0.38 0.06,0.38 0.01,0.39 -0.02,0.39 -0.07,0.39 -0.12,0.37 -0.16,0.36 -0.20,0.33 -0.24,0.31 -0.24,0.31 L -0.24,0.31 Z"/></g><g transform="translate(129.45967712603726 82.87332552518183) rotate(0 0.432558732146731 4.8662857366514345)" stroke="none"><path fill="#646261" d="M 0.35,-0.17 Q 0.35,-0.17 0.68,-0.02 1.02,0.11 1.15,0.76 1.28,1.40 1.30,2.13 1.33,2.85 1.27,3.62 1.20,4.38 1.11,5.08 1.01,5.78 0.84,6.42 0.67,7.07 0.54,7.62 0.41,8.18 0.29,8.67 0.18,9.16 0.95,9.10 1.73,9.04 1.71,9.09 1.70,9.13 1.67,9.17 1.64,9.21 1.61,9.24 1.57,9.27 1.53,9.30 1.49,9.32 1.44,9.33 1.40,9.34 1.35,9.34 1.30,9.34 1.26,9.33 1.21,9.32 1.17,9.30 1.12,9.28 1.09,9.25 1.05,9.21 1.03,9.18 1.00,9.14 0.98,9.09 0.96,9.05 0.96,9.00 0.95,8.95 0.96,8.91 0.96,8.86 1.12,8.71 1.28,8.56 1.34,8.56 1.41,8.56 1.47,8.58 1.53,8.60 1.58,8.64 1.63,8.68 1.67,8.73 1.70,8.78 1.72,8.84 1.74,8.90 1.73,8.97 1.73,9.03 1.71,9.09 1.69,9.15 1.65,9.20 1.60,9.25 1.55,9.28 1.50,9.32 1.43,9.33 1.37,9.34 1.31,9.34 1.25,9.33 1.19,9.31 1.13,9.28 1.08,9.24 1.04,9.19 1.00,9.14 0.97,9.08 0.96,9.02 0.95,8.96 0.96,8.89 0.97,8.83 1.00,8.77 1.03,8.72 1.08,8.67 1.12,8.63 1.18,8.60 1.24,8.57 1.30,8.57 1.36,8.56 1.43,8.57 1.49,8.58 1.54,8.62 1.60,8.65 1.64,8.70 1.68,8.74 1.71,8.80 1.73,8.86 1.73,8.93 1.74,8.99 1.72,9.05 1.71,9.11 1.67,9.17 1.64,9.22 1.59,9.26 1.53,9.30 1.63,9.17 1.73,9.04 1.71,9.09 1.70,9.13 1.67,9.17 1.64,9.21 1.61,9.24 1.57,9.27 1.53,9.30 1.49,9.32 1.44,9.33 1.40,9.34 1.35,9.34 1.30,9.34 1.26,9.33 1.21,9.32 1.17,9.30 1.12,9.28 1.09,9.25 1.05,9.21 1.03,9.18 1.00,9.14 0.98,9.09 0.96,9.05 0.96,9.00 0.95,8.95 0.96,8.91 0.96,8.86 -0.08,8.85 -1.13,8.85 -1.01,8.36 -0.89,7.88 -0.76,7.30 -0.63,6.72 -0.49,6.17 -0.34,5.62 -0.28,4.96 -0.22,4.30 -0.20,3.63 -0.18,2.96 -0.25,2.35 -0.32,1.74 -0.42,1.31 -0.52,0.87 -0.44,0.52 -0.35,0.17 -0.36,0.13 -0.38,0.08 -0.39,0.03 -0.39,-0.00 -0.38,-0.05 -0.38,-0.10 -0.36,-0.14 -0.34,-0.19 -0.31,-0.22 -0.29,-0.26 -0.25,-0.29 -0.21,-0.32 -0.17,-0.35 -0.13,-0.37 -0.08,-0.38 -0.03,-0.39 0.00,-0.39 0.05,-0.39 0.10,-0.37 0.14,-0.36 0.18,-0.34 0.23,-0.32 0.26,-0.28 0.30,-0.25 0.32,-0.21 0.35,-0.17 0.35,-0.17 L 0.35,-0.17 Z"/></g><g transform="translate(132.92014698321157 91.30822080204439) rotate(0 8.002336544715718 -0.43255873214678786)" stroke="none"><path fill="#646261" d="M -0.03,-0.39 Q -0.03,-0.39 0.64,-0.52 1.31,-0.65 2.22,-0.84 3.12,-1.03 4.27,-1.11 5.43,-1.19 6.58,-1.27 7.73,-1.35 8.80,-1.36 9.87,-1.38 10.87,-1.41 11.86,-1.44 13.84,-1.24 15.81,-1.05 15.87,-1.04 15.93,-1.02 15.99,-0.99 16.04,-0.96 16.08,-0.91 16.13,-0.86 16.15,-0.80 16.17,-0.74 16.18,-0.68 16.18,-0.61 16.16,-0.55 16.14,-0.49 16.11,-0.44 16.07,-0.38 16.02,-0.35 15.97,-0.31 15.91,-0.29 15.85,-0.27 15.78,-0.27 15.72,-0.27 15.66,-0.29 15.60,-0.31 15.55,-0.35 15.50,-0.39 15.46,-0.44 15.43,-0.49 15.41,-0.56 15.39,-0.62 15.40,-0.68 15.40,-0.74 15.43,-0.80 15.45,-0.86 15.49,-0.91 15.53,-0.96 15.59,-0.99 15.64,-1.02 15.71,-1.04 15.77,-1.05 15.83,-1.04 15.89,-1.04 15.95,-1.01 16.01,-0.98 16.06,-0.94 16.10,-0.89 16.13,-0.84 16.16,-0.78 16.17,-0.72 16.18,-0.65 16.17,-0.59 16.16,-0.53 16.13,-0.47 16.10,-0.42 16.05,-0.37 16.01,-0.33 15.95,-0.30 15.89,-0.28 15.83,-0.27 15.76,-0.26 15.76,-0.26 15.76,-0.26 13.86,-0.16 11.97,-0.06 10.94,0.05 9.92,0.18 8.88,0.23 7.84,0.29 6.66,0.36 5.48,0.44 4.37,0.43 3.26,0.42 2.33,0.41 1.41,0.40 0.72,0.39 0.03,0.39 -0.01,0.39 -0.05,0.38 -0.10,0.37 -0.15,0.36 -0.19,0.34 -0.23,0.31 -0.26,0.28 -0.30,0.25 -0.32,0.21 -0.35,0.17 -0.36,0.12 -0.38,0.08 -0.38,0.03 -0.39,-0.01 -0.38,-0.05 -0.37,-0.10 -0.36,-0.14 -0.34,-0.19 -0.31,-0.23 -0.28,-0.27 -0.25,-0.30 -0.21,-0.33 -0.17,-0.35 -0.12,-0.37 -0.08,-0.38 -0.03,-0.39 -0.03,-0.39 L -0.03,-0.39 Z"/></g><g transform="translate(129.67595649211046 82.6570461591084) rotate(0 12.544203232257132 2.2709333437706505)" stroke="none"><path fill="#646261" d="M 0,-0.39 Q 0,-0.39 0.87,-0.59 1.74,-0.79 2.77,-0.86 3.80,-0.94 5.11,-1.05 6.42,-1.16 7.92,-1.27 9.41,-1.39 10.96,-1.56 12.51,-1.73 13.99,-1.86 15.47,-2.00 16.80,-2.06 18.13,-2.12 19.20,-2.15 20.26,-2.19 21.27,-2.08 22.29,-1.97 23.06,-1.79 23.83,-1.60 24.41,-1.25 24.98,-0.89 25.28,-0.35 25.59,0.19 25.61,0.76 25.63,1.33 25.46,1.90 25.29,2.48 24.55,4.12 23.81,5.77 23.78,5.82 23.74,5.88 23.69,5.91 23.64,5.95 23.58,5.97 23.52,6.00 23.46,6.00 23.40,6.00 23.34,5.98 23.27,5.96 23.22,5.92 23.17,5.88 23.14,5.83 23.10,5.78 23.08,5.72 23.06,5.66 23.07,5.59 23.07,5.53 23.09,5.47 23.11,5.41 23.16,5.36 23.20,5.31 23.25,5.28 23.30,5.24 23.37,5.23 23.43,5.21 23.49,5.22 23.56,5.23 23.61,5.25 23.67,5.28 23.72,5.32 23.77,5.37 23.80,5.42 23.83,5.48 23.84,5.54 23.85,5.60 23.84,5.67 23.83,5.73 23.80,5.79 23.77,5.84 23.73,5.89 23.68,5.93 23.62,5.96 23.56,5.99 23.50,5.99 23.44,6.00 23.38,5.99 23.31,5.98 23.26,5.94 23.20,5.91 23.16,5.86 23.12,5.81 23.10,5.76 23.07,5.70 23.07,5.63 23.06,5.57 23.08,5.51 23.10,5.45 23.10,5.45 23.10,5.45 23.51,3.79 23.92,2.14 23.99,1.76 24.06,1.37 23.99,0.96 23.92,0.56 23.64,0.39 23.36,0.22 22.71,0.06 22.06,-0.09 21.18,-0.21 20.30,-0.33 19.26,-0.31 18.21,-0.30 16.92,-0.25 15.63,-0.19 14.16,-0.06 12.70,0.06 11.11,0.22 9.53,0.39 8.03,0.47 6.54,0.55 5.22,0.62 3.89,0.69 2.81,0.74 1.74,0.79 0.87,0.59 0,0.39 -0.04,0.38 -0.09,0.38 -0.13,0.36 -0.18,0.34 -0.22,0.32 -0.26,0.29 -0.29,0.25 -0.32,0.22 -0.34,0.18 -0.36,0.13 -0.37,0.09 -0.39,0.04 -0.39,-0.00 -0.39,-0.04 -0.37,-0.09 -0.36,-0.13 -0.34,-0.18 -0.32,-0.22 -0.29,-0.25 -0.26,-0.29 -0.22,-0.32 -0.18,-0.34 -0.13,-0.36 -0.09,-0.38 -0.04,-0.38 0.00,-0.39 0.00,-0.39 L 0,-0.39 Z"/></g><g stroke-linecap="round" transform="translate(124.1271998047863 10.588988496361708) rotate(0 15.863322381192575 9.2741128723722)"><path d="M0 0 C10.22 0.4, 19.41 0.49, 31.73 0 M0 0 C12.51 -0.39, 24.64 0.17, 31.73 0 M31.73 0 C31.95 6.99, 31.39 15.19, 31.73 18.55 M31.73 0 C31.55 6.34, 31.73 13.47, 31.73 18.55 M31.73 18.55 C20.41 17.89, 10.19 18.21, 0 18.55 M31.73 18.55 C20.59 18.93, 9.65 18.68, 0 18.55 M0 18.55 C0.21 12.41, 0.47 8.26, 0 0 M0 18.55 C-0.19 11.81, -0.08 4.6, 0 0" stroke="#646261" stroke-width="1" fill="none"/></g><g transform="translate(128.77990629727003 17.766904364455968) rotate(0 0.432558732146731 4.8662857366514345)" stroke="none"><path fill="#646261" d="M 0.35,-0.17 Q 0.35,-0.17 0.68,-0.02 1.02,0.11 1.15,0.76 1.28,1.40 1.30,2.13 1.33,2.85 1.27,3.62 1.20,4.38 1.11,5.08 1.01,5.78 0.84,6.42 0.67,7.07 0.54,7.62 0.41,8.18 0.29,8.67 0.18,9.16 0.95,9.10 1.73,9.04 1.71,9.09 1.70,9.13 1.67,9.17 1.64,9.21 1.61,9.24 1.57,9.27 1.53,9.30 1.49,9.32 1.44,9.33 1.40,9.34 1.35,9.34 1.30,9.34 1.26,9.33 1.21,9.32 1.17,9.30 1.12,9.28 1.09,9.25 1.05,9.21 1.03,9.18 1.00,9.14 0.98,9.09 0.96,9.05 0.96,9.00 0.95,8.95 0.96,8.91 0.96,8.86 1.12,8.71 1.28,8.56 1.34,8.56 1.41,8.56 1.47,8.58 1.53,8.60 1.58,8.64 1.63,8.68 1.67,8.73 1.70,8.78 1.72,8.84 1.74,8.90 1.73,8.97 1.73,9.03 1.71,9.09 1.69,9.15 1.65,9.20 1.60,9.25 1.55,9.28 1.50,9.32 1.43,9.33 1.37,9.34 1.31,9.34 1.25,9.33 1.19,9.31 1.13,9.28 1.08,9.24 1.04,9.19 1.00,9.14 0.97,9.08 0.96,9.02 0.95,8.96 0.96,8.89 0.97,8.83 1.00,8.77 1.03,8.72 1.08,8.67 1.12,8.63 1.18,8.60 1.24,8.57 1.30,8.57 1.36,8.56 1.43,8.57 1.49,8.58 1.54,8.62 1.60,8.65 1.64,8.70 1.68,8.74 1.71,8.80 1.73,8.86 1.73,8.93 1.74,8.99 1.72,9.05 1.71,9.11 1.67,9.17 1.64,9.22 1.59,9.26 1.53,9.30 1.63,9.17 1.73,9.04 1.71,9.09 1.70,9.13 1.67,9.17 1.64,9.21 1.61,9.24 1.57,9.27 1.53,9.30 1.49,9.32 1.44,9.33 1.40,9.34 1.35,9.34 1.30,9.34 1.26,9.33 1.21,9.32 1.17,9.30 1.12,9.28 1.09,9.25 1.05,9.21 1.03,9.18 1.00,9.14 0.98,9.09 0.96,9.05 0.96,9.00 0.95,8.95 0.96,8.91 0.96,8.86 -0.08,8.85 -1.13,8.85 -1.01,8.36 -0.89,7.88 -0.76,7.30 -0.63,6.72 -0.49,6.17 -0.34,5.62 -0.28,4.96 -0.22,4.30 -0.20,3.63 -0.18,2.96 -0.25,2.35 -0.32,1.74 -0.42,1.31 -0.52,0.87 -0.44,0.52 -0.35,0.17 -0.36,0.13 -0.38,0.08 -0.39,0.03 -0.39,-0.00 -0.38,-0.05 -0.38,-0.10 -0.36,-0.14 -0.34,-0.19 -0.31,-0.22 -0.29,-0.26 -0.25,-0.29 -0.21,-0.32 -0.17,-0.35 -0.13,-0.37 -0.08,-0.38 -0.03,-0.39 0.00,-0.39 0.05,-0.39 0.10,-0.37 0.14,-0.36 0.18,-0.34 0.23,-0.32 0.26,-0.28 0.30,-0.25 0.32,-0.21 0.35,-0.17 0.35,-0.17 L 0.35,-0.17 Z"/></g><g transform="translate(132.24037615444433 26.20179964131853) rotate(0 8.002336544715718 -0.43255873214678786)" stroke="none"><path fill="#646261" d="M -0.03,-0.39 Q -0.03,-0.39 0.64,-0.52 1.31,-0.65 2.22,-0.84 3.12,-1.03 4.27,-1.11 5.43,-1.19 6.58,-1.27 7.73,-1.35 8.80,-1.36 9.87,-1.38 10.87,-1.41 11.86,-1.44 13.84,-1.24 15.81,-1.05 15.87,-1.04 15.93,-1.02 15.99,-0.99 16.04,-0.96 16.08,-0.91 16.13,-0.86 16.15,-0.80 16.17,-0.74 16.18,-0.68 16.18,-0.61 16.16,-0.55 16.14,-0.49 16.11,-0.44 16.07,-0.38 16.02,-0.35 15.97,-0.31 15.91,-0.29 15.85,-0.27 15.78,-0.27 15.72,-0.27 15.66,-0.29 15.60,-0.31 15.55,-0.35 15.50,-0.39 15.46,-0.44 15.43,-0.49 15.41,-0.56 15.39,-0.62 15.40,-0.68 15.40,-0.74 15.43,-0.80 15.45,-0.86 15.49,-0.91 15.53,-0.96 15.59,-0.99 15.64,-1.02 15.71,-1.04 15.77,-1.05 15.83,-1.04 15.89,-1.04 15.95,-1.01 16.01,-0.98 16.06,-0.94 16.10,-0.89 16.13,-0.84 16.16,-0.78 16.17,-0.72 16.18,-0.65 16.17,-0.59 16.16,-0.53 16.13,-0.47 16.10,-0.42 16.05,-0.37 16.01,-0.33 15.95,-0.30 15.89,-0.28 15.83,-0.27 15.76,-0.26 15.76,-0.26 15.76,-0.26 13.86,-0.16 11.97,-0.06 10.94,0.05 9.92,0.18 8.88,0.23 7.84,0.29 6.66,0.36 5.48,0.44 4.37,0.43 3.26,0.42 2.33,0.41 1.41,0.40 0.72,0.39 0.03,0.39 -0.01,0.39 -0.05,0.38 -0.10,0.37 -0.15,0.36 -0.19,0.34 -0.23,0.31 -0.26,0.28 -0.30,0.25 -0.32,0.21 -0.35,0.17 -0.36,0.12 -0.38,0.08 -0.38,0.03 -0.39,-0.01 -0.38,-0.05 -0.37,-0.10 -0.36,-0.14 -0.34,-0.19 -0.31,-0.23 -0.28,-0.27 -0.25,-0.30 -0.21,-0.33 -0.17,-0.35 -0.12,-0.37 -0.08,-0.38 -0.03,-0.39 -0.03,-0.39 L -0.03,-0.39 Z"/></g><g transform="translate(128.99618566334323 17.550624998382546) rotate(0 12.544203232257132 2.2709333437706505)" stroke="none"><path fill="#646261" d="M 0,-0.39 Q 0,-0.39 0.87,-0.59 1.74,-0.79 2.77,-0.86 3.80,-0.94 5.11,-1.05 6.42,-1.16 7.92,-1.27 9.41,-1.39 10.96,-1.56 12.51,-1.73 13.99,-1.86 15.47,-2.00 16.80,-2.06 18.13,-2.12 19.20,-2.15 20.26,-2.19 21.27,-2.08 22.29,-1.97 23.06,-1.79 23.83,-1.60 24.41,-1.25 24.98,-0.89 25.28,-0.35 25.59,0.19 25.61,0.76 25.63,1.33 25.46,1.90 25.29,2.48 24.55,4.12 23.81,5.77 23.78,5.82 23.74,5.88 23.69,5.91 23.64,5.95 23.58,5.97 23.52,6.00 23.46,6.00 23.40,6.00 23.34,5.98 23.27,5.96 23.22,5.92 23.17,5.88 23.14,5.83 23.10,5.78 23.08,5.72 23.06,5.66 23.07,5.59 23.07,5.53 23.09,5.47 23.11,5.41 23.16,5.36 23.20,5.31 23.25,5.28 23.30,5.24 23.37,5.23 23.43,5.21 23.49,5.22 23.56,5.23 23.61,5.25 23.67,5.28 23.72,5.32 23.77,5.37 23.80,5.42 23.83,5.48 23.84,5.54 23.85,5.60 23.84,5.67 23.83,5.73 23.80,5.79 23.77,5.84 23.73,5.89 23.68,5.93 23.62,5.96 23.56,5.99 23.50,5.99 23.44,6.00 23.38,5.99 23.31,5.98 23.26,5.94 23.20,5.91 23.16,5.86 23.12,5.81 23.10,5.76 23.07,5.70 23.07,5.63 23.06,5.57 23.08,5.51 23.10,5.45 23.10,5.45 23.10,5.45 23.51,3.79 23.92,2.14 23.99,1.76 24.06,1.37 23.99,0.96 23.92,0.56 23.64,0.39 23.36,0.22 22.71,0.06 22.06,-0.09 21.18,-0.21 20.30,-0.33 19.26,-0.31 18.21,-0.30 16.92,-0.25 15.63,-0.19 14.16,-0.06 12.70,0.06 11.11,0.22 9.53,0.39 8.03,0.47 6.54,0.55 5.22,0.62 3.89,0.69 2.81,0.74 1.74,0.79 0.87,0.59 0,0.39 -0.04,0.38 -0.09,0.38 -0.13,0.36 -0.18,0.34 -0.22,0.32 -0.26,0.29 -0.29,0.25 -0.32,0.22 -0.34,0.18 -0.36,0.13 -0.37,0.09 -0.39,0.04 -0.39,-0.00 -0.39,-0.04 -0.37,-0.09 -0.36,-0.13 -0.34,-0.18 -0.32,-0.22 -0.29,-0.25 -0.26,-0.29 -0.22,-0.32 -0.18,-0.34 -0.13,-0.36 -0.09,-0.38 -0.04,-0.38 0.00,-0.39 0.00,-0.39 L 0,-0.39 Z"/></g></svg>