<svg version="1.1" xmlns="http://www.w3.org/2000/svg" viewBox="0 0 353.36638517975985 322.51352149664797" width="706.7327703595197" height="645.0270429932959">
  <!-- svg-source:excalidraw -->
  
  <defs>
    <style>
      @font-face {
        font-family: "Virgil";
        src: url("https://unpkg.com/@zsviczian/excalidraw@0.11.0-obsidian-25/dist/excalidraw-assets/Virgil.woff2");
      }
      @font-face {
        font-family: "Cascadia";
        src: url("https://unpkg.com/@zsviczian/excalidraw@0.11.0-obsidian-25/dist/excalidraw-assets/Cascadia.woff2");
      }
    </style>
  </defs>
  <g stroke-linecap="round" transform="translate(37.824895172564254 63.693742506797946) rotate(15.604993609495871 138.80321719720922 92.53547813147283)"><path d="M1.09 -1.93 L276.04 -2.98 L280.57 188.19 L-3.45 182.62" stroke="none" stroke-width="0" fill="#ced4da"/><path d="M0.44 2.37 C79.1 -0.62, 155.49 2.61, 277.95 0.85 M0.77 0.4 C88.56 -0.13, 176.28 1.37, 276.28 0.69 M277.18 3.74 C280.87 43.83, 281.78 82.61, 275.21 184.97 M276.08 0.76 C277.97 45.82, 277.83 91.12, 278.43 185.48 M276.73 181.99 C199.05 184.03, 124.37 182.69, 0.36 184.74 M277.14 184.54 C186.68 187.04, 95.21 189.46, -0.03 185.57 M-0.27 188.14 C6.05 146.15, 3.2 108.68, -0.99 -3.43 M-1.19 185.25 C0.66 135.94, 0.45 88.75, -1.42 -0.7" stroke="#000000" stroke-width="1" fill="none"/></g><g stroke-linecap="round" transform="translate(37.8799753926707 68.72128261685117) rotate(31.363506828569662 138.80321719720922 92.53547813147283)"><path d="M-1.93 -1.57 L274.62 2.97 L280.73 181.63 L-2.45 184.06" stroke="none" stroke-width="0" fill="#ced4da"/><path d="M2.37 0.18 C56.3 -2.96, 117.89 -0.27, 278.45 0.52 M0.4 0.64 C87.89 -1.71, 177.49 -3.47, 278.29 -1.3 M281.34 2.52 C278.29 62.66, 277.12 116.06, 277.5 182.99 M278.36 1.37 C276.64 51.72, 276.05 101.79, 278.02 184.56 M274.53 182.64 C199.81 182.87, 117.63 184.22, -0.34 185.91 M277.08 185.03 C212.52 183.13, 150.77 183.74, 0.5 183.59 M3.06 188.74 C-3.28 142.26, -3.03 96.82, -3.43 -1.57 M0.18 186.82 C-4.37 125.67, -3.32 61.79, -0.7 0.55" stroke="#000000" stroke-width="1" fill="none"/></g><g stroke-linecap="round" transform="translate(37.82496758176114 62.09530948290276) rotate(0 138.80321719720922 92.53547813147283)"><path d="M-1.57 -2.98 L280.57 3.12 L274.16 182.62 L-1.01 184.14" stroke="none" stroke-width="0" fill="white"/><path d="M0.18 -2.06 C71.6 -2.12, 148.23 -2.45, 278.12 0.53 M0.64 -0.21 C83.22 0.17, 164.24 -0.43, 276.31 0.31 M280.13 3.88 C280.65 42.22, 274.81 78.91, 275.53 183.98 M278.97 -0.09 C276.01 50.45, 275.6 102.67, 277.09 184.89 M275.18 188.11 C219.8 182.5, 164.33 180.46, 0.84 182.95 M277.56 184.16 C174.99 185.11, 73.61 184.11, -1.48 184.08 M3.67 183.88 C1.07 118.14, -0.74 49.67, -1.57 1.17 M1.74 184.19 C3.74 112.26, 0.79 38.4, 0.55 -0.97" stroke="#000000" stroke-width="1" fill="none"/></g><g stroke-linecap="round"><g transform="translate(44.03653708393159 95.91576035060183) rotate(0 53.548194187843684 -0.39960825597364646)"><path d="M-2.67 -3.05 C35.18 0.08, 68.43 0.04, 107.79 -0.87 M-0.27 0.56 C39.16 -2.9, 75.87 -3.13, 107.5 -2.53" stroke="#000000" stroke-width="1" fill="none"/></g></g><g stroke-linecap="round" transform="translate(61.291004980085205 129.35892781479066) rotate(0 53.548194187843684 39.1621340520981)"><path d="M2.97 3.12 L103.65 -2.45 L106.09 77.39 L-2.12 74.54" stroke="none" stroke-width="0" fill="white"/><path d="M-3.05 1.52 C40.82 2.53, 81.41 2.13, 107.02 2 M0.56 1.68 C33.21 1.18, 68.18 0.69, 105.37 -0.21 M110.53 2.71 C105.68 30.71, 106.01 60.53, 106.15 75.27 M108.33 -0.68 C108.99 26.87, 107.65 52.74, 105.19 77.76 M105.82 80.53 C86.14 80, 65.32 77.68, 2.7 77.1 M106.28 80.28 C78.6 77.71, 48.26 75.77, 1.13 78.19 M0.82 77.38 C-2.43 45.4, -3.01 20.5, 3.77 -2.38 M1.53 78.5 C-2.78 53.43, -0.82 28.95, -0.78 -1.49" stroke="#000000" stroke-width="1" fill="none"/></g><g stroke-linecap="round"><g transform="translate(69.44248853222328 176.3655418723529) rotate(0 41.559783587939975 -9.590742961762057)"><path d="M1.52 0.45 C7.46 -4.89, 13.17 -11.5, 21.98 -18.13 M1.68 -1.73 C7.77 -8.35, 14.1 -14.95, 19.77 -17.31 M22.69 -21.58 C27.73 -10.29, 34.01 2.16, 36.9 13.5 M19.3 -18.36 C27.72 -8.46, 34.5 1.63, 39.39 9.99 M42.16 12.46 C48.22 3.81, 55.45 -4.13, 81.9 -32.54 M41.91 11.96 C53.95 -2.41, 64.84 -12.18, 82.99 -29.64" stroke="#c92a2a" stroke-width="1" fill="none"/></g></g><g stroke-linecap="round" transform="translate(197.9588387530061 90.19681186499267) rotate(0 49.55203921891001 40.7605670759924)"><path d="M-3.45 -2.45 L98.09 -0.93 L96.99 77.74 L2.53 84.91" stroke="none" stroke-width="0" fill="white"/><path d="M0.45 1.1 C23.78 -0.06, 46.14 1.25, 100.15 1.66 M-1.73 0.89 C26.71 -1.26, 55.06 -1.88, 100.97 1.26 M96.7 -0.11 C98.43 31.28, 99.56 61.69, 100.62 84.26 M99.93 0.41 C99.59 23.93, 98.2 47.64, 97.11 79.95 M99.58 81.09 C60.7 79.86, 22.81 81.39, -1.37 81.41 M99.07 82.17 C73.34 82.17, 52.55 83.32, 1.53 83.35 M-0.99 78.09 C-1.91 60.66, 3.44 35.08, 0.36 3.49 M-1.42 80.82 C-0.7 59.68, -2.03 38.29, 1.48 1.56" stroke="#000000" stroke-width="1" fill="none"/></g><g stroke-linecap="round" transform="translate(209.1480147386581 106.980575843477) rotate(0 8.391863886943447 21.57911735706703)"><path d="M-2.45 -1.01 L15.85 -2.12 L13 45.69 L3.39 40.98" stroke="none" stroke-width="0" fill="#228be6"/><path d="M0.92 0.56 C4.34 -0.1, 9.19 0.84, 18.18 -0.45 M0.75 -1.41 C5.84 -1.16, 10.84 1.86, 17.84 1.63 M16.68 -2.08 C16.28 15.71, 14.31 34.82, 19.52 42.99 M17.19 -0.52 C16.31 13.7, 15.92 29.22, 15.21 45.13 M16.42 44.08 C9.97 45.46, 6.76 42.05, -0.1 41.16 M17.33 41.54 C11.36 44.1, 7.98 44.44, 1.54 42.66 M-3.43 41.59 C1.37 33.1, -2.18 15.86, 3.49 -1.76 M-0.7 43.71 C-1.04 26.12, -1.57 12.14, 1.56 -1.72" stroke="#000000" stroke-width="1" fill="none"/></g><g stroke-linecap="round" transform="translate(240.31785695519073 130.15810812214113) rotate(0 7.592647374996169 10.789585831982208)"><path d="M-1.01 -0.93 L13.07 -3.79 L17.72 24.96 L-2.18 22.55" stroke="none" stroke-width="0" fill="#fa5252"/><path d="M0.51 0.53 C5.08 1.44, 11.06 1.18, 14.78 0.86 M-1.28 0.3 C4.52 -0.3, 13.08 0.82, 16.66 1.3 M13.11 -1.09 C13.98 4.88, 16.44 18.61, 15.01 24.05 M14.67 -0.18 C13.46 5.17, 13.37 9.9, 17.16 20.94 M16.02 19.49 C11.84 20.62, 3.36 21.46, -1.8 20.33 M13.73 20.6 C10.01 21.58, 4.27 23.07, -0.45 21.89 M-1.57 22.75 C3.88 13.23, 0.47 13.13, -1.76 3.06 M0.55 20.61 C-0.48 13.43, 1.79 9.82, -1.72 -1.23" stroke="#000000" stroke-width="1" fill="none"/></g><g stroke-linecap="round" transform="translate(266.69232769084033 100.58669892950928) rotate(0 8.391900091541899 27.17374155449391)"><path d="M-0.93 -2.12 L13 2.53 L20.17 52.17 L0.98 52.39" stroke="none" stroke-width="0" fill="#40c057"/><path d="M0.58 -0.06 C6.9 0.82, 11.84 -0.51, 17.73 2.82 M0.34 -1.45 C3.41 1.85, 8.23 1.91, 18.23 1.14 M15.7 -0.95 C13.7 14.56, 19.49 25.92, 19.25 52.98 M16.61 -1.91 C16.44 16.55, 15.43 39.06, 16.14 55.45 M14.47 56.61 C10.52 53.29, 6.22 52.45, -1.38 57.62 M15.71 55.3 C11.66 55.31, 8.31 53.52, 0.34 53.95 M1.17 58.12 C-1.45 39.75, 4.42 22.68, 3.06 0.35 M-0.97 53.56 C-1.11 43.37, 1.94 27.71, -1.23 -0.51" stroke="#000000" stroke-width="1" fill="none"/></g><g stroke-linecap="round"><g transform="translate(181.98422074109226 198.23298960371216) rotate(0 53.54819418784368 -0.3996082559736447)"><path d="M-0.07 2 C36.12 1.03, 69.6 0.23, 110.45 -4.25 M-1.73 -0.21 C38.79 0.56, 75.78 0.74, 108.45 -2" stroke="#000000" stroke-width="1" fill="none"/></g></g><g stroke-linecap="round"><g transform="translate(176.6256130819986 216.26794514171164) rotate(0 53.54819418784368 -0.3996082559736447)"><path d="M2 1.05 C35.58 -0.75, 68.96 2.89, 103.64 0.99 M-0.21 1.87 C24.37 3.62, 47.95 2.87, 105.9 -0.85" stroke="#000000" stroke-width="1" fill="none"/></g></g></svg>