<svg version="1.1" xmlns="http://www.w3.org/2000/svg" viewBox="0 0 392.0769288398827 305.68889652394216" width="784.1538576797655" height="611.3777930478843">
  <!-- svg-source:excalidraw -->
  
  <defs>
    <style>
      @font-face {
        font-family: "Virgil";
        src: url("https://unpkg.com/@zsviczian/excalidraw@0.11.0-obsidian-25/dist/excalidraw-assets/Virgil.woff2");
      }
      @font-face {
        font-family: "Cascadia";
        src: url("https://unpkg.com/@zsviczian/excalidraw@0.11.0-obsidian-25/dist/excalidraw-assets/Cascadia.woff2");
      }
    </style>
  </defs>
  <g stroke-linecap="round" transform="translate(150.94089329225858 10) rotate(0 14.823995559744588 14.823995559744588)"><path d="M11.05 -0.19 C13.89 -1.25, 17.18 -0.54, 19.87 0.68 C22.55 1.9, 25.49 4.15, 27.14 7.14 C28.8 10.12, 30.25 15.48, 29.79 18.57 C29.33 21.67, 27.06 23.89, 24.41 25.71 C21.76 27.53, 17.2 29.5, 13.88 29.47 C10.56 29.45, 6.78 27.84, 4.47 25.55 C2.16 23.26, 0.4 18.7, 0.01 15.73 C-0.37 12.75, 0.36 10.4, 2.16 7.7 C3.96 4.99, 8.9 0.66, 10.79 -0.51 C12.69 -1.67, 13.33 0.23, 13.55 0.69 M15.09 -0.72 C18.21 -0.48, 23.95 1.86, 26.34 4.12 C28.73 6.37, 29.47 9.46, 29.44 12.81 C29.4 16.15, 28.04 21.39, 26.14 24.16 C24.23 26.93, 20.7 28.96, 18 29.42 C15.3 29.87, 12.86 28.34, 9.91 26.89 C6.96 25.44, 1.79 23.17, 0.3 20.71 C-1.2 18.25, -0.09 15.34, 0.92 12.14 C1.94 8.94, 3.89 3.28, 6.37 1.5 C8.85 -0.29, 14.03 1.4, 15.8 1.43 C17.58 1.45, 16.96 1.83, 17.01 1.65" stroke="none" stroke-width="0" fill="hsl(208, 80%, 68%)"/><path d="M18.73 0.69 C21.79 1.38, 25.64 3.4, 27.59 6.03 C29.54 8.66, 30.87 13.32, 30.43 16.49 C29.98 19.66, 27.32 23.04, 24.92 25.07 C22.52 27.1, 19.3 28.38, 16.03 28.67 C12.76 28.97, 7.78 28.4, 5.3 26.82 C2.82 25.23, 1.87 22.37, 1.16 19.16 C0.46 15.95, -0.18 10.6, 1.07 7.56 C2.32 4.52, 5.15 1.95, 8.64 0.93 C12.13 -0.09, 19.23 0.67, 22.01 1.45 C24.79 2.23, 25.19 5.15, 25.33 5.6 M12.34 0.04 C15 -1.18, 17.18 -0.05, 20.01 1.16 C22.85 2.37, 27.7 4.49, 29.35 7.31 C31 10.12, 30.82 14.89, 29.92 18.04 C29.03 21.18, 26.86 24.26, 23.98 26.18 C21.1 28.1, 15.86 29.88, 12.64 29.56 C9.42 29.24, 6.72 26.74, 4.66 24.23 C2.6 21.73, 0.67 17.48, 0.27 14.55 C-0.13 11.61, 0.63 8.91, 2.26 6.64 C3.89 4.36, 8.54 1.73, 10.05 0.89 C11.55 0.04, 10.96 1.61, 11.29 1.58" stroke="hsl(208,80%,50%)" stroke-width="2" fill="none"/></g><g stroke-linecap="round" transform="translate(278.8100979240851 10) rotate(0 14.823995559744588 14.823995559744588)"><path d="M7.77 0.61 C10.43 -1.07, 15.16 -1.42, 18.2 -0.38 C21.24 0.67, 24.06 4.01, 26.02 6.88 C27.99 9.75, 30.27 13.78, 29.99 16.83 C29.7 19.88, 26.66 23.1, 24.31 25.19 C21.97 27.27, 18.94 29.09, 15.92 29.36 C12.89 29.64, 8.9 28.67, 6.18 26.84 C3.46 25.01, 0.24 21.56, -0.39 18.38 C-1.03 15.2, 0.87 10.5, 2.37 7.75 C3.86 5, 7.21 2.97, 8.59 1.88 C9.97 0.78, 10.35 1.09, 10.66 1.2 M17.06 1.49 C20.27 2.03, 24.37 3.36, 26.37 5.5 C28.38 7.64, 29.04 11.25, 29.12 14.31 C29.21 17.36, 28.87 21.09, 26.9 23.82 C24.93 26.54, 20.85 30.25, 17.3 30.66 C13.74 31.06, 8.43 28.04, 5.58 26.26 C2.73 24.47, 0.78 22.74, 0.18 19.95 C-0.42 17.17, 0.94 12.61, 2 9.56 C3.05 6.52, 3.62 3.03, 6.49 1.67 C9.36 0.32, 17.11 1.56, 19.21 1.44 C21.31 1.32, 19.56 1.09, 19.08 0.95" stroke="none" stroke-width="0" fill="hsl(131, 80%, 41%)"/><path d="M12.3 0.61 C15.24 0.1, 18.84 1.35, 21.57 2.86 C24.3 4.37, 27.58 6.77, 28.69 9.67 C29.79 12.56, 29.44 17.34, 28.21 20.23 C26.98 23.12, 23.94 25.33, 21.3 26.99 C18.66 28.65, 15.19 30.71, 12.37 30.19 C9.55 29.67, 6.56 26.47, 4.4 23.85 C2.24 21.24, -0.4 17.76, -0.6 14.52 C-0.81 11.28, 0.54 6.92, 3.18 4.43 C5.82 1.94, 12.39 -0.02, 15.22 -0.43 C18.05 -0.83, 19.92 1.76, 20.14 2 M14.81 -1.17 C17.55 -1.31, 22.18 2.35, 24.4 4.79 C26.62 7.23, 27.75 10.39, 28.14 13.48 C28.52 16.57, 28.29 20.91, 26.71 23.35 C25.13 25.79, 21.54 27.18, 18.64 28.12 C15.75 29.06, 12.31 30, 9.33 29 C6.36 27.99, 2.53 25.03, 0.78 22.09 C-0.96 19.14, -2.03 14.67, -1.15 11.35 C-0.28 8.02, 3.23 4.02, 6.03 2.15 C8.83 0.28, 13.99 0.35, 15.66 0.13 C17.33 -0.09, 16.33 0.5, 16.05 0.85" stroke="hsl(131, 80%, 32%)" stroke-width="2" fill="none"/></g><g stroke-linecap="round" transform="translate(27.085377177754935 10) rotate(0 14.823995559744588 14.823995559744588)"><path d="M10.47 -0.06 C13.11 -1, 17.35 -1.02, 20.42 0.53 C23.49 2.07, 27.33 6.29, 28.89 9.19 C30.44 12.09, 30.74 14.98, 29.75 17.94 C28.76 20.9, 25.75 25.04, 22.97 26.96 C20.18 28.88, 16.2 29.92, 13.05 29.46 C9.9 29.01, 6.28 26.35, 4.07 24.24 C1.86 22.13, 0.13 19.99, -0.2 16.83 C-0.54 13.66, -0.1 7.96, 2.06 5.25 C4.22 2.53, 10.96 1.25, 12.75 0.54 C14.54 -0.18, 12.87 0.7, 12.8 0.97 M9.59 1.38 C12.34 -0.05, 15.64 -1.02, 18.36 -0.06 C21.08 0.91, 24.19 4.46, 25.92 7.18 C27.65 9.91, 28.63 13.52, 28.74 16.27 C28.85 19.03, 28.86 21.61, 26.59 23.73 C24.32 25.85, 18.38 28.29, 15.1 29 C11.83 29.72, 9.32 29.92, 6.93 28.01 C4.54 26.1, 1.72 20.51, 0.77 17.52 C-0.19 14.54, -0.25 12.56, 1.21 10.1 C2.68 7.64, 8.26 4.37, 9.53 2.77 C10.81 1.18, 9.16 0.57, 8.88 0.53" stroke="none" stroke-width="0" fill="hsl(39, 80%, 59%)"/><path d="M10.42 0.14 C13.42 -1.04, 18.17 -0.23, 21.06 0.94 C23.95 2.1, 26.3 4.5, 27.74 7.13 C29.18 9.77, 30.43 13.52, 29.71 16.75 C29 19.97, 25.86 24.18, 23.45 26.48 C21.05 28.78, 18.43 30.75, 15.28 30.57 C12.13 30.38, 7.13 27.67, 4.56 25.38 C1.99 23.09, 0.41 20.01, -0.14 16.82 C-0.69 13.63, -0.64 8.92, 1.26 6.22 C3.17 3.51, 9.11 1.48, 11.31 0.59 C13.5 -0.31, 14.37 0.67, 14.42 0.87 M20.4 1.35 C23.14 2.4, 27.96 4.85, 29.52 7.7 C31.09 10.55, 30.79 15.33, 29.8 18.45 C28.82 21.57, 26.55 24.58, 23.62 26.42 C20.69 28.27, 15.43 29.93, 12.21 29.51 C9 29.1, 6.35 26.49, 4.36 23.92 C2.36 21.36, 0.55 17.06, 0.24 14.12 C-0.07 11.18, 0.81 8.51, 2.52 6.29 C4.22 4.07, 7.27 1.43, 10.47 0.78 C13.67 0.14, 19.78 2.46, 21.7 2.44 C23.62 2.42, 22 0.78, 21.99 0.69" stroke="hsl(39, 80%, 41%)" stroke-width="2" fill="none"/></g><g stroke-linecap="round" transform="translate(200.0450757867825 124.37226933363195) rotate(0 8.15319755785952 8.15319755785952)"><path d="M1.1 2.28 C1.1 2.28, 1.1 2.28, 1.1 2.28 M1.1 2.28 C1.1 2.28, 1.1 2.28, 1.1 2.28 M2.68 13.8 C6.58 7.44, 9.11 3.39, 13.65 1.41 M2.42 13.11 C5.16 10.74, 7.27 5.97, 12.08 1.74 M9.18 18.14 C12.05 15.68, 13.73 11.71, 14.44 10.34 M9.13 17.58 C11.29 15.32, 13.02 12.23, 15.37 10.73" stroke="White" stroke-width="1" fill="none"/><path d="M6.06 1.01 C7.66 0.54, 10.62 0.23, 12.15 1.01 C13.68 1.79, 14.81 4.15, 15.26 5.69 C15.72 7.24, 15.36 8.55, 14.87 10.26 C14.39 11.97, 13.55 15.07, 12.35 15.97 C11.16 16.87, 9.52 16.16, 7.68 15.68 C5.84 15.2, 2.64 14.49, 1.32 13.09 C-0.01 11.7, -0.22 9.07, -0.28 7.29 C-0.34 5.52, -0.33 3.51, 0.96 2.44 C2.26 1.37, 6.29 1.32, 7.51 0.85 C8.73 0.39, 8.32 -0.5, 8.3 -0.34 M11.16 1.73 C12.57 2.64, 13.42 3.84, 14.11 5.36 C14.81 6.87, 15.67 9.4, 15.34 10.84 C15.01 12.27, 13.42 12.98, 12.13 13.95 C10.84 14.93, 9.37 16.63, 7.6 16.68 C5.83 16.74, 3.02 15.62, 1.52 14.27 C0.02 12.91, -1.45 10.51, -1.41 8.56 C-1.37 6.61, 0.5 3.93, 1.78 2.58 C3.06 1.23, 4.54 0.67, 6.28 0.45 C8.03 0.23, 11.6 1.05, 12.25 1.24 C12.9 1.42, 10.54 1.67, 10.17 1.55" stroke="hsl(208,80%,50%)" stroke-width="2" fill="none"/></g><g stroke-linecap="round" transform="translate(261.545417493026 68.35036253587032) rotate(0 8.15319755785952 8.15319755785952)"><path d="M-0.94 5.81 C-0.94 5.81, -0.94 5.81, -0.94 5.81 M-0.94 5.81 C-0.94 5.81, -0.94 5.81, -0.94 5.81 M3.34 13.89 C4.83 9.09, 8.35 7.54, 12.24 2.63 M2.73 13.48 C6.18 9.78, 7.52 7.39, 12.54 3.2 M10.47 19.63 C13.37 15.58, 13.92 10.84, 18.09 8.68 M9.59 18.63 C13.07 14.33, 15.25 11.34, 18.69 8.06" stroke="White" stroke-width="1" fill="none"/><path d="M9.3 -0.06 C10.89 -0.09, 12.31 0.52, 13.52 1.54 C14.74 2.56, 16.42 4.22, 16.57 6.05 C16.72 7.89, 15.27 10.77, 14.41 12.57 C13.56 14.36, 13.09 16.4, 11.45 16.83 C9.82 17.25, 6.41 15.97, 4.6 15.12 C2.8 14.26, 1.53 13.31, 0.65 11.72 C-0.24 10.12, -1.03 7.16, -0.7 5.54 C-0.37 3.92, 0.87 2.84, 2.63 2.01 C4.4 1.18, 8.79 0.85, 9.88 0.58 C10.97 0.3, 9.17 0.18, 9.18 0.37 M8.01 -1.27 C9.97 -1.69, 11.81 -0.52, 13.24 0.48 C14.68 1.48, 16.35 2.96, 16.64 4.74 C16.92 6.52, 15.66 9.54, 14.95 11.14 C14.25 12.74, 13.79 13.75, 12.42 14.34 C11.05 14.93, 8.58 14.8, 6.73 14.68 C4.87 14.56, 2.57 14.68, 1.27 13.62 C-0.02 12.56, -1.19 10, -1.04 8.33 C-0.89 6.65, 0.76 5.12, 2.19 3.55 C3.61 1.97, 6.6 -0.39, 7.52 -1.11 C8.44 -1.84, 7.93 -0.92, 7.71 -0.8" stroke="hsl(131, 80%, 32%)" stroke-width="2" fill="none"/></g><g stroke-linecap="round" transform="translate(119.54197902559599 121.26031143837076) rotate(0 8.153197557859523 8.15319755785952)"><path d="M-0.49 4.87 C-0.49 4.87, -0.49 4.87, -0.49 4.87 M-0.49 4.87 C-0.49 4.87, -0.49 4.87, -0.49 4.87 M4.11 11.22 C5.57 8.55, 10.05 5.98, 11.99 2.12 M3.72 12.89 C4.9 9.6, 7.3 8, 12.52 2.67 M11.61 16.91 C12.4 13.9, 12.75 13, 17.27 9.87 M10.97 16.47 C12.06 14.09, 13.99 13.06, 16.87 9.06" stroke="White" stroke-width="1" fill="none"/><path d="M9.62 0.07 C11.29 0.19, 12.97 2.1, 13.93 3.35 C14.88 4.61, 15.27 5.79, 15.36 7.61 C15.44 9.42, 15.26 12.9, 14.43 14.25 C13.6 15.6, 12.22 15.6, 10.38 15.69 C8.53 15.79, 5.07 15.8, 3.37 14.84 C1.67 13.88, 0.8 11.63, 0.17 9.95 C-0.45 8.27, -1.11 6.12, -0.4 4.77 C0.31 3.41, 2.52 2.65, 4.45 1.84 C6.39 1.02, 10.01 -0.11, 11.21 -0.11 C12.41 -0.1, 11.62 1.71, 11.63 1.88 M3.68 1.43 C5.1 0.65, 8.12 0.86, 9.87 1.12 C11.62 1.38, 13.13 1.58, 14.18 3 C15.24 4.41, 16.47 7.71, 16.22 9.61 C15.96 11.51, 14.19 13.35, 12.67 14.39 C11.14 15.42, 8.56 15.95, 7.05 15.81 C5.54 15.68, 4.67 14.54, 3.59 13.57 C2.52 12.61, 0.91 11.48, 0.6 10.04 C0.29 8.6, 1.2 6.38, 1.74 4.93 C2.27 3.48, 3.45 2.17, 3.84 1.33 C4.22 0.49, 4.01 0, 4.05 -0.12" stroke="hsl(208,80%,50%)" stroke-width="2" fill="none"/></g><g stroke-linecap="round" transform="translate(158.51953009360477 73.85693266870089) rotate(0 8.153197557859523 8.15319755785952)"><path d="M5.68 -0.37 C5.68 -0.37, 5.68 -0.37, 5.68 -0.37 M5.68 -0.37 C5.68 -0.37, 5.68 -0.37, 5.68 -0.37 M1.66 13.77 C6.2 11.5, 10.88 5.53, 13.75 0.79 M3.84 13.87 C6.68 9.64, 11.71 5.79, 14.46 1.13" stroke="White" stroke-width="1" fill="none"/><path d="M5.46 -0.11 C6.9 -0.89, 9.92 -1.14, 11.45 -0.4 C12.98 0.35, 13.73 2.49, 14.64 4.34 C15.55 6.18, 17.23 9.07, 16.91 10.66 C16.6 12.26, 14.29 13.01, 12.75 13.91 C11.21 14.8, 9.47 16.12, 7.66 16.03 C5.86 15.93, 3.25 14.41, 1.9 13.35 C0.56 12.29, -0.4 11.15, -0.39 9.67 C-0.38 8.19, 0.84 6.04, 1.98 4.45 C3.13 2.86, 5.24 0.72, 6.48 0.14 C7.72 -0.43, 9.36 1, 9.42 1 M8.21 -0.7 C9.8 -0.87, 12.37 -0.51, 13.54 0.6 C14.71 1.71, 14.84 4.32, 15.24 5.98 C15.64 7.64, 16.52 9.22, 15.96 10.56 C15.39 11.91, 13.59 13.08, 11.86 14.07 C10.14 15.05, 7.5 16.58, 5.6 16.45 C3.7 16.32, 1.36 14.63, 0.45 13.28 C-0.45 11.92, -0.26 10.31, 0.15 8.3 C0.56 6.29, 1.58 2.77, 2.9 1.22 C4.23 -0.33, 7.51 -0.63, 8.11 -1.01 C8.71 -1.4, 6.75 -1.55, 6.53 -1.1" stroke="hsl(208,80%,50%)" stroke-width="2" fill="none"/></g><g stroke-linecap="round" transform="translate(160.5395471414986 124.99041011492204) rotate(0 8.153197557859523 8.15319755785952)"><path d="M1.8 4.21 C1.8 4.21, 1.8 4.21, 1.8 4.21 M1.8 4.21 C1.8 4.21, 1.8 4.21, 1.8 4.21 M3.14 13.28 C7.85 10.67, 9.51 6.94, 12.2 4.36 M3.22 13.44 C5.84 11.58, 8.77 8.9, 12.48 3.38" stroke="White" stroke-width="1" fill="none"/><path d="M11.08 1.12 C12.48 1.64, 13.76 2.41, 14.61 4.07 C15.45 5.72, 16.28 9.34, 16.13 11.05 C15.98 12.77, 15.28 13.52, 13.73 14.34 C12.18 15.16, 8.75 16.18, 6.81 15.96 C4.87 15.74, 3.38 14.29, 2.09 13.02 C0.8 11.75, -0.85 9.81, -0.9 8.35 C-0.96 6.89, 0.51 5.69, 1.76 4.26 C3.01 2.82, 4.85 0.14, 6.6 -0.24 C8.34 -0.61, 11.1 1.77, 12.24 2.01 C13.39 2.26, 13.67 1.32, 13.46 1.25 M10.2 1.23 C11.88 1.44, 13.37 1.84, 14.36 3.29 C15.35 4.74, 16.49 8.06, 16.16 9.95 C15.84 11.84, 13.99 13.64, 12.41 14.61 C10.83 15.59, 8.22 16.03, 6.71 15.82 C5.19 15.61, 4.36 14.38, 3.33 13.36 C2.3 12.34, 0.77 11.16, 0.54 9.7 C0.3 8.25, 1.3 6.05, 1.9 4.63 C2.5 3.22, 2.82 2.05, 4.15 1.21 C5.49 0.37, 8.98 -0.18, 9.88 -0.4 C10.79 -0.62, 9.31 -0.16, 9.58 -0.09" stroke="hsl(208,80%,50%)" stroke-width="2" fill="none"/></g><g stroke-linecap="round" transform="translate(314.8775734153205 67.46038828380733) rotate(0 8.153197557859528 8.15319755785952)"><path d="M2.31 2.01 C2.31 2.01, 2.31 2.01, 2.31 2.01 M2.31 2.01 C2.31 2.01, 2.31 2.01, 2.31 2.01 M1.64 15.32 C6.05 9.85, 9.16 4.87, 14.01 1.06 M1.82 13.75 C5.98 10.77, 9.23 5.69, 12.89 2.72" stroke="White" stroke-width="1" fill="none"/><path d="M8.24 -0.94 C9.8 -0.99, 11.09 0.46, 12.53 1.85 C13.97 3.24, 16.51 5.82, 16.9 7.41 C17.28 9, 15.84 10.06, 14.83 11.4 C13.83 12.74, 12.55 14.85, 10.87 15.44 C9.18 16.04, 6.42 15.42, 4.73 14.97 C3.04 14.51, 1.38 13.97, 0.74 12.72 C0.1 11.48, 0.64 9.28, 0.89 7.52 C1.13 5.75, 0.66 3.24, 2.21 2.13 C3.76 1.03, 8.86 1.3, 10.2 0.9 C11.54 0.5, 10.45 -0.37, 10.24 -0.26 M5.35 -0.03 C6.53 -0.73, 7.74 -0.18, 9.37 0.23 C11.01 0.63, 13.97 1.21, 15.16 2.39 C16.35 3.56, 16.78 5.31, 16.51 7.29 C16.23 9.26, 14.95 12.68, 13.52 14.24 C12.09 15.8, 9.57 16.43, 7.94 16.67 C6.3 16.92, 4.88 16.96, 3.7 15.71 C2.52 14.46, 1.23 11.17, 0.86 9.18 C0.48 7.19, 0.95 5.38, 1.43 3.77 C1.9 2.16, 3.29 -0.15, 3.71 -0.48 C4.13 -0.82, 3.94 1.63, 3.94 1.78" stroke="hsl(131, 80%, 32%)" stroke-width="2" fill="none"/></g><g stroke-linecap="round" transform="translate(34.22781837751472 68.24231257209226) rotate(0 8.15319755785952 8.15319755785952)"><path d="M2.42 3.43 C2.42 3.43, 2.42 3.43, 2.42 3.43 M2.42 3.43 C2.42 3.43, 2.42 3.43, 2.42 3.43 M4.47 14.63 C5.34 11.67, 6.68 10.75, 12.78 2.99 M2.9 14.96 C7.79 10.35, 10.56 5.62, 14.44 3.24" stroke="White" stroke-width="1" fill="none"/><path d="M6.9 -0.66 C8.67 -0.75, 11.58 1.38, 13.27 2.48 C14.96 3.58, 16.8 4.41, 17.05 5.94 C17.3 7.46, 15.77 10.17, 14.76 11.65 C13.74 13.14, 12.62 14.2, 10.94 14.83 C9.27 15.46, 6.29 15.68, 4.72 15.42 C3.15 15.17, 2.2 14.77, 1.52 13.29 C0.83 11.81, 0.4 8.23, 0.6 6.52 C0.81 4.82, 1.16 4.17, 2.74 3.05 C4.33 1.93, 8.93 0.23, 10.11 -0.21 C11.3 -0.66, 9.89 0.34, 9.85 0.37 M9.48 -0.48 C11.22 -0.2, 13.88 2.32, 14.85 3.92 C15.81 5.53, 15.68 7.56, 15.28 9.15 C14.87 10.74, 13.43 12.47, 12.41 13.48 C11.4 14.49, 10.64 15, 9.21 15.23 C7.78 15.47, 5.19 15.67, 3.83 14.92 C2.48 14.17, 1.78 12.34, 1.07 10.75 C0.37 9.15, -0.85 7.18, -0.41 5.36 C0.03 3.55, 2.15 0.82, 3.72 -0.15 C5.29 -1.12, 7.8 -0.33, 9.03 -0.44 C10.26 -0.55, 11.11 -0.92, 11.1 -0.8" stroke="hsl(39, 80%, 41%)" stroke-width="2" fill="none"/></g><g stroke-linecap="round" transform="translate(10 218.71312355848022) rotate(0 8.153197557859528 8.15319755785952)"><path d="M5.19 0.53 C5.19 0.53, 5.19 0.53, 5.19 0.53 M5.19 0.53 C5.19 0.53, 5.19 0.53, 5.19 0.53 M3.27 14.7 C5.44 10.78, 9.64 7.9, 14.2 4 M3.6 15.34 C5.69 11.73, 7.65 10.72, 14.45 3.46" stroke="White" stroke-width="1" fill="none"/><path d="M5.29 0.41 C6.93 0.17, 10.66 1.05, 12.28 1.65 C13.9 2.25, 14.42 2.65, 15 4.02 C15.57 5.4, 16.23 8.26, 15.74 9.9 C15.24 11.54, 13.47 12.74, 12.03 13.85 C10.58 14.96, 8.51 16.45, 7.04 16.56 C5.58 16.66, 4.51 15.76, 3.25 14.51 C2 13.25, -0.32 10.7, -0.47 9.01 C-0.62 7.32, 1.18 6, 2.37 4.38 C3.56 2.76, 5.78 -0.11, 6.69 -0.7 C7.61 -1.29, 7.93 0.5, 7.85 0.86 M5.41 0.22 C6.93 -0.31, 10.39 -0.69, 12.12 -0.17 C13.86 0.36, 15.26 1.55, 15.82 3.38 C16.39 5.21, 16.2 8.82, 15.51 10.81 C14.81 12.8, 13.01 14.28, 11.66 15.32 C10.32 16.37, 8.89 17.53, 7.42 17.07 C5.95 16.62, 3.95 14.18, 2.83 12.62 C1.72 11.05, 1.09 9.43, 0.73 7.67 C0.37 5.91, -0.11 3.16, 0.67 2.06 C1.46 0.96, 4.73 1.52, 5.45 1.06 C6.16 0.59, 4.94 -0.52, 4.97 -0.74" stroke="hsl(39, 80%, 41%)" stroke-width="2" fill="none"/></g><g stroke-linecap="round" transform="translate(317.27925092899477 117.83440133393401) rotate(0 8.153197557859528 8.15319755785952)"><path d="M5.16 0.51 C5.16 0.51, 5.16 0.51, 5.16 0.51 M5.16 0.51 C5.16 0.51, 5.16 0.51, 5.16 0.51 M4.52 12.85 C5.86 11.73, 8.06 8.7, 14.17 2.23 M5.04 13.4 C5.99 11.06, 9.05 9.43, 13.73 3.64" stroke="White" stroke-width="1" fill="none"/><path d="M9.67 0.89 C11.64 1.1, 14.31 1.24, 15.32 2.4 C16.32 3.56, 15.9 6.15, 15.7 7.83 C15.5 9.52, 15.3 11.2, 14.12 12.51 C12.95 13.82, 10.27 15.11, 8.64 15.69 C7.01 16.28, 5.63 16.9, 4.35 16.02 C3.08 15.14, 1.65 12.06, 1.02 10.44 C0.38 8.82, -0.1 7.92, 0.55 6.32 C1.19 4.71, 3.42 1.84, 4.9 0.8 C6.38 -0.24, 8.32 0.26, 9.42 0.08 C10.52 -0.11, 11.29 -0.37, 11.48 -0.29 M10.14 0.64 C11.75 1.12, 12.99 2.34, 13.78 3.61 C14.56 4.88, 14.72 6.74, 14.83 8.27 C14.93 9.8, 15.31 11.44, 14.4 12.79 C13.49 14.15, 11.05 15.95, 9.38 16.39 C7.71 16.83, 6.09 16.32, 4.38 15.44 C2.67 14.56, -0.11 13, -0.89 11.08 C-1.68 9.16, -1.03 5.75, -0.33 3.92 C0.37 2.09, 1.43 0.9, 3.31 0.08 C5.19 -0.74, 10.03 -0.93, 10.97 -1 C11.92 -1.07, 9.37 -0.44, 8.97 -0.35" stroke="hsl(131, 80%, 32%)" stroke-width="2" fill="none"/></g><g stroke-linecap="round" transform="translate(200.35512879509133 174.887605998563) rotate(0 8.15319755785952 8.153197557859523)"><path d="M0.31 4.25 C0.31 4.25, 0.31 4.25, 0.31 4.25 M0.31 4.25 C0.31 4.25, 0.31 4.25, 0.31 4.25 M2.55 12.32 C7.81 8.12, 10.86 5.86, 11.45 0.77 M3.18 12.62 C5.56 10.93, 8.75 7.93, 13.09 1.35 M11.01 16.4 C11.64 15.9, 13.43 14.38, 16.32 8.63 M10.12 17.25 C12.36 14.52, 14.57 12.02, 16.92 9.05" stroke="White" stroke-width="1" fill="none"/><path d="M5.19 1.82 C6.65 0.85, 7.93 -0.59, 9.45 -0.4 C10.98 -0.21, 13.34 1.61, 14.33 2.95 C15.33 4.28, 15.53 5.79, 15.42 7.62 C15.3 9.46, 14.55 12.44, 13.65 13.97 C12.74 15.49, 11.71 16.59, 9.97 16.77 C8.24 16.95, 4.67 15.96, 3.23 15.06 C1.78 14.17, 1.79 13.2, 1.31 11.39 C0.83 9.58, -0.31 5.91, 0.35 4.21 C1.01 2.5, 4.39 1.71, 5.27 1.15 C6.16 0.6, 5.67 0.77, 5.67 0.86 M6.27 -0.67 C8 -1.47, 10.21 -1.7, 11.67 -0.76 C13.12 0.17, 14.42 3.08, 14.98 4.96 C15.54 6.84, 15.34 8.74, 15.03 10.51 C14.71 12.27, 14.24 14.78, 13.09 15.55 C11.95 16.31, 9.8 15.52, 8.16 15.09 C6.51 14.66, 4.72 14.22, 3.22 12.99 C1.72 11.76, -0.41 9.16, -0.84 7.73 C-1.27 6.31, -0.27 5.86, 0.64 4.43 C1.55 3.01, 3.88 0.06, 4.63 -0.82 C5.38 -1.7, 5.17 -1.31, 5.17 -0.86" stroke="hsl(208,80%,50%)" stroke-width="2" fill="none"/></g><g stroke-linecap="round" transform="translate(161.0308240696745 174.23515756177426) rotate(0 8.153197557859523 8.153197557859523)"><path d="M0.11 4.07 C0.11 4.07, 0.11 4.07, 0.11 4.07 M0.11 4.07 C0.11 4.07, 0.11 4.07, 0.11 4.07 M3.36 12.46 C5.96 9.01, 10.23 4.57, 11.69 1.28 M3.62 11.54 C7.55 8.81, 10.34 5.22, 12.19 1.27 M9.67 16.61 C12.39 14.97, 14.19 12.39, 15.37 10.49 M10.44 16.55 C12.41 14.15, 14.58 12.09, 15.76 9.64" stroke="White" stroke-width="1" fill="none"/><path d="M6.42 -0.06 C7.84 -0.88, 9.04 -0.34, 10.47 0.23 C11.9 0.79, 14.21 1.82, 15 3.32 C15.8 4.82, 15.47 7.22, 15.23 9.22 C14.98 11.21, 14.67 14.19, 13.56 15.29 C12.44 16.39, 10.32 15.8, 8.54 15.8 C6.76 15.79, 4.13 16.36, 2.86 15.25 C1.6 14.15, 1.34 11.05, 0.93 9.14 C0.52 7.23, -0.55 5.39, 0.38 3.77 C1.31 2.15, 5.45 0.08, 6.51 -0.56 C7.57 -1.2, 6.71 -0.26, 6.72 -0.08 M5.07 0.49 C6.41 -0.18, 8.35 -0.24, 10.16 0.29 C11.97 0.82, 14.91 1.99, 15.96 3.68 C17 5.37, 16.82 8.46, 16.43 10.41 C16.04 12.36, 15.33 14.29, 13.62 15.39 C11.92 16.49, 8.27 17.38, 6.22 16.99 C4.17 16.59, 2.57 14.5, 1.32 13.02 C0.08 11.54, -1.43 9.91, -1.27 8.11 C-1.11 6.31, 1.27 3.64, 2.3 2.21 C3.33 0.78, 4.51 0.06, 4.92 -0.48 C5.33 -1.02, 4.41 -1.38, 4.76 -1.03" stroke="hsl(208,80%,50%)" stroke-width="2" fill="none"/></g><g stroke-linecap="round" transform="translate(34.03563112712254 113.14302914041446) rotate(0 8.15319755785952 8.15319755785952)"><path d="M0.06 5.36 C0.06 5.36, 0.06 5.36, 0.06 5.36 M0.06 5.36 C0.06 5.36, 0.06 5.36, 0.06 5.36 M4.48 12.76 C6.71 11.55, 7.79 5.91, 12.75 2.77 M3.43 14.32 C7.6 10.25, 10.78 4.89, 12.73 2.16" stroke="White" stroke-width="1" fill="none"/><path d="M8.09 -0.59 C9.57 -0.81, 12.2 0.78, 13.41 1.92 C14.62 3.06, 15.19 4.42, 15.37 6.24 C15.55 8.07, 15.17 11.17, 14.5 12.88 C13.82 14.58, 13 16.01, 11.33 16.48 C9.65 16.95, 6.03 16.34, 4.45 15.71 C2.86 15.08, 2.58 14.37, 1.83 12.67 C1.07 10.97, -0.29 7.24, -0.08 5.52 C0.13 3.8, 1.7 3.15, 3.07 2.33 C4.44 1.51, 7.15 0.85, 8.13 0.59 C9.1 0.33, 8.9 0.8, 8.95 0.76 M8.32 -1.46 C9.83 -1.34, 11.73 0.85, 12.87 2.28 C14 3.7, 14.71 5.3, 15.13 7.09 C15.54 8.88, 15.96 11.74, 15.37 12.99 C14.77 14.24, 13.08 14.3, 11.54 14.6 C10 14.89, 8.02 15.39, 6.13 14.79 C4.25 14.18, 1.36 12.18, 0.23 10.98 C-0.89 9.78, -0.85 9.31, -0.62 7.61 C-0.39 5.91, 0.29 2.29, 1.62 0.8 C2.95 -0.69, 6.5 -1.37, 7.34 -1.34 C8.18 -1.32, 6.41 0.42, 6.64 0.95" stroke="hsl(39, 80%, 41%)" stroke-width="2" fill="none"/></g><g stroke-linecap="round" transform="translate(64.69332993063199 158.04374570873574) rotate(0 8.15319755785952 8.153197557859523)"><path d="M0.75 3.31 C0.75 3.31, 0.75 3.31, 0.75 3.31 M0.75 3.31 C0.75 3.31, 0.75 3.31, 0.75 3.31 M3.42 11.86 C7.5 7.65, 7.73 5.81, 13.11 2.58 M4.77 12.06 C7.5 8.64, 9.1 4.9, 12.57 2.08 M10.75 16.9 C13.05 13.8, 13.74 12.4, 16.54 10.1 M10.34 16.46 C11.85 15.17, 12.64 13.2, 15.71 10.09" stroke="White" stroke-width="1" fill="none"/><path d="M10.59 0.27 C11.97 0.73, 14.3 1.92, 15.07 3.43 C15.83 4.94, 15.47 7.35, 15.2 9.34 C14.93 11.33, 14.59 14.29, 13.46 15.37 C12.33 16.44, 10.19 15.83, 8.41 15.79 C6.63 15.76, 4.02 16.3, 2.77 15.17 C1.52 14.04, 1.3 10.93, 0.91 9.01 C0.52 7.1, -0.46 5.25, 0.44 3.66 C1.34 2.08, 4.29 0.03, 6.31 -0.5 C8.33 -1.03, 11.41 0.23, 12.56 0.49 C13.71 0.74, 13.45 0.82, 13.21 1.02 M7.76 -0.41 C9.65 -0.51, 13.08 0.21, 14.57 1.6 C16.06 2.99, 16.57 5.91, 16.71 7.92 C16.85 9.93, 16.76 12.18, 15.43 13.66 C14.1 15.15, 10.73 16.69, 8.72 16.83 C6.7 16.97, 4.9 15.55, 3.34 14.5 C1.77 13.45, -0.32 12.21, -0.68 10.54 C-1.04 8.86, 0.64 6.12, 1.19 4.45 C1.74 2.78, 1.52 1.49, 2.63 0.52 C3.75 -0.45, 6.65 -1.44, 7.88 -1.39 C9.1 -1.33, 9.61 0.7, 9.99 0.83" stroke="hsl(39, 80%, 41%)" stroke-width="2" fill="none"/></g><g stroke-linecap="round" transform="translate(10 158.35398195964103) rotate(0 8.153197557859528 8.153197557859523)"><path d="M1.47 3.93 C1.47 3.93, 1.47 3.93, 1.47 3.93 M1.47 3.93 C1.47 3.93, 1.47 3.93, 1.47 3.93 M5.17 13.21 C5.58 8.9, 8.36 8.01, 14.24 2.58 M5.38 12.77 C6.86 9.51, 8.02 7.81, 13.73 2.77 M9.7 19.71 C10.54 16.28, 13.26 15.79, 16.25 10.81 M9.21 19.24 C11.89 15.9, 13.79 13.23, 16.24 11.8" stroke="White" stroke-width="1" fill="none"/><path d="M11.47 0.57 C12.94 1.17, 14.08 2.27, 14.75 3.96 C15.42 5.66, 15.7 8.82, 15.49 10.73 C15.27 12.65, 14.92 14.54, 13.46 15.47 C12 16.4, 8.44 16.46, 6.73 16.31 C5.02 16.17, 4.36 16.01, 3.19 14.6 C2.02 13.19, 0.02 9.64, -0.28 7.87 C-0.57 6.11, 0.47 5.19, 1.41 4.01 C2.34 2.82, 3.43 1.04, 5.34 0.77 C7.25 0.49, 11.43 2.03, 12.86 2.37 C14.3 2.71, 13.96 2.73, 13.95 2.8 M5.02 0.85 C6.34 0.52, 8.3 0.26, 10.03 0.95 C11.76 1.65, 14.3 3.76, 15.41 5.02 C16.52 6.28, 16.94 7.11, 16.7 8.51 C16.47 9.92, 15.59 12.36, 13.99 13.44 C12.4 14.53, 9.11 14.73, 7.12 15.01 C5.13 15.28, 3.44 16.24, 2.07 15.12 C0.69 14, -0.87 10.37, -1.15 8.28 C-1.42 6.2, -0.45 3.79, 0.41 2.61 C1.28 1.43, 3.09 1.4, 4.05 1.23 C5 1.06, 6.11 1.65, 6.16 1.61" stroke="hsl(39, 80%, 41%)" stroke-width="2" fill="none"/></g><g stroke-linecap="round" transform="translate(319.517310134926 171.54782227627402) rotate(0 8.153197557859528 8.153197557859523)"><path d="M1.97 3.03 C1.97 3.03, 1.97 3.03, 1.97 3.03 M1.97 3.03 C1.97 3.03, 1.97 3.03, 1.97 3.03 M4 12.77 C5.41 9.26, 11.03 6.45, 13.48 0.85 M3.45 14.51 C5.08 10.08, 8.64 7.55, 13.73 1.76 M10.86 17.4 C11.03 16.47, 14.15 13.98, 16.07 11 M10.39 18 C11.23 15.89, 12.74 14.61, 17.05 10.68" stroke="White" stroke-width="1" fill="none"/><path d="M5.83 -0.62 C7.35 -1.16, 9.05 -0.73, 10.72 0.3 C12.39 1.33, 14.87 3.98, 15.84 5.57 C16.81 7.15, 17.04 8.11, 16.54 9.82 C16.04 11.52, 14.22 14.79, 12.84 15.81 C11.45 16.84, 10.09 16.33, 8.21 15.98 C6.33 15.62, 2.81 15.03, 1.56 13.69 C0.31 12.34, 0.64 9.69, 0.72 7.9 C0.8 6.11, 0.65 4.35, 2.05 2.94 C3.45 1.53, 7.72 -0.18, 9.13 -0.55 C10.55 -0.92, 10.59 0.58, 10.54 0.7 M9.16 -1.02 C11.14 -0.9, 12.93 0.95, 14.25 2.44 C15.57 3.92, 17.17 6.05, 17.08 7.88 C16.99 9.72, 14.99 12.25, 13.69 13.45 C12.4 14.66, 11.02 14.88, 9.32 15.11 C7.62 15.35, 4.79 15.63, 3.5 14.85 C2.22 14.07, 2.36 12.02, 1.62 10.45 C0.89 8.87, -0.96 7.12, -0.89 5.39 C-0.82 3.66, 0.31 0.88, 2.05 0.08 C3.79 -0.71, 8.26 0.85, 9.54 0.62 C10.83 0.4, 9.93 -1.25, 9.75 -1.26" stroke="hsl(131, 80%, 32%)" stroke-width="2" fill="none"/></g><g stroke-linecap="round" transform="translate(363.5324745182338 170.05578280565442) rotate(0 8.153197557859528 8.153197557859523)"><path d="M5.11 -0.86 C5.11 -0.86, 5.11 -0.86, 5.11 -0.86 M5.11 -0.86 C5.11 -0.86, 5.11 -0.86, 5.11 -0.86 M1.91 12.34 C4.95 11.25, 8.59 8.45, 11.24 2.78 M3.44 12.89 C6.25 9.09, 10.74 5.49, 12.03 2.7 M9.31 17.11 C12.82 15.65, 14.76 11.86, 17.02 9.76 M9.91 17.54 C11.75 14.97, 14.43 13.31, 16.7 10.55" stroke="White" stroke-width="1" fill="none"/><path d="M4.85 -0.56 C6.38 -1.06, 8.92 -0.01, 10.81 0.9 C12.71 1.82, 15.4 3.42, 16.2 4.94 C17 6.46, 15.96 8.25, 15.6 10.01 C15.24 11.76, 15.39 14.55, 14.04 15.47 C12.68 16.39, 9.41 15.62, 7.48 15.51 C5.54 15.41, 3.82 15.8, 2.44 14.84 C1.05 13.87, -0.56 11.49, -0.84 9.73 C-1.11 7.96, -0.34 5.93, 0.81 4.24 C1.95 2.56, 4.92 0.26, 6.04 -0.37 C7.15 -1, 7.48 0.21, 7.49 0.45 M3.3 1.35 C4.82 0.55, 8.02 0.9, 9.99 1 C11.97 1.09, 13.97 0.88, 15.14 1.95 C16.31 3.02, 17.32 5.68, 17.01 7.41 C16.71 9.14, 14.72 10.72, 13.31 12.32 C11.9 13.93, 10.32 16.78, 8.53 17.04 C6.74 17.31, 4.05 15.2, 2.57 13.91 C1.08 12.62, 0.21 10.65, -0.36 9.31 C-0.93 7.97, -1.74 7.09, -0.85 5.87 C0.03 4.64, 4.31 2.79, 4.95 1.95 C5.59 1.12, 3.05 0.96, 2.98 0.86" stroke="hsl(131, 80%, 32%)" stroke-width="2" fill="none"/></g><g stroke-linecap="round" transform="translate(365.77053372416367 222.27716427737346) rotate(0 8.153197557859528 8.15319755785952)"><path d="M2.53 2.2 C2.53 2.2, 2.53 2.2, 2.53 2.2 M2.53 2.2 C2.53 2.2, 2.53 2.2, 2.53 2.2 M2.14 12.92 C6.87 10.88, 9.79 4.99, 13.06 3.55 M2.72 12.9 C6.77 9.58, 11.05 4.51, 12.97 2.62 M8.1 19.47 C13.03 15.42, 14.44 12.55, 18.24 7.86 M8.75 18.07 C10.8 16.36, 14.21 14.01, 19.43 7.37" stroke="White" stroke-width="1" fill="none"/><path d="M5.94 -0.39 C7.66 -0.47, 10.88 1.07, 12.62 1.97 C14.36 2.86, 15.85 3.31, 16.39 4.99 C16.92 6.66, 16.4 10.35, 15.82 12.02 C15.25 13.69, 14.61 14.33, 12.94 14.99 C11.27 15.65, 7.55 16.41, 5.82 15.97 C4.08 15.54, 3.39 13.79, 2.51 12.38 C1.64 10.98, 0.54 9.22, 0.54 7.53 C0.54 5.84, 1.44 3.49, 2.49 2.24 C3.55 0.99, 5.94 0.48, 6.89 0.02 C7.84 -0.44, 8.09 -0.47, 8.21 -0.5 M7.25 0.23 C8.94 0.13, 11.9 0.7, 13.13 1.69 C14.37 2.68, 14.39 4.77, 14.65 6.18 C14.92 7.59, 15.36 8.76, 14.73 10.15 C14.09 11.55, 12.05 13.74, 10.84 14.53 C9.62 15.33, 9.14 15.24, 7.45 14.91 C5.76 14.59, 2.16 13.94, 0.7 12.56 C-0.77 11.17, -1.68 8.11, -1.34 6.59 C-1 5.07, 1.23 4.75, 2.76 3.43 C4.29 2.11, 7.21 -0.77, 7.85 -1.34 C8.5 -1.9, 6.84 -0.31, 6.64 0.04" stroke="hsl(131, 80%, 32%)" stroke-width="2" fill="none"/></g><g stroke-linecap="round" transform="translate(64.69332993063199 218.71312355848022) rotate(0 8.15319755785952 8.15319755785952)"><path d="M1.29 2.45 C1.29 2.45, 1.29 2.45, 1.29 2.45 M1.29 2.45 C1.29 2.45, 1.29 2.45, 1.29 2.45 M0.89 14.93 C5.88 10.78, 7.25 6.49, 11.91 4.98 M0.88 14.36 C5.3 10.89, 8.09 6.2, 11.03 3.98 M12.5 14.89 C14.39 11.42, 16.98 8.83, 18.23 6.95 M11.66 14.06 C14.24 12.42, 16.44 9.78, 17.93 7.63" stroke="White" stroke-width="1" fill="none"/><path d="M6.53 0.35 C8.44 0.26, 11.8 0.88, 13.28 1.77 C14.76 2.66, 14.84 3.98, 15.4 5.69 C15.96 7.41, 17.28 10.56, 16.66 12.04 C16.04 13.52, 13.42 13.77, 11.69 14.57 C9.96 15.37, 8.08 16.97, 6.27 16.82 C4.46 16.68, 1.95 15.12, 0.82 13.71 C-0.3 12.3, -0.6 10.28, -0.48 8.36 C-0.37 6.44, 0.17 3.53, 1.53 2.18 C2.89 0.83, 6.66 0.58, 7.7 0.27 C8.73 -0.04, 7.89 0.28, 7.74 0.32 M9.38 0.89 C11.3 0.74, 13.46 0.49, 14.74 1.47 C16.01 2.46, 17.18 5.06, 17.01 6.79 C16.84 8.52, 15.02 10.16, 13.71 11.85 C12.4 13.54, 10.91 16.54, 9.15 16.94 C7.38 17.33, 4.66 15.4, 3.11 14.22 C1.56 13.05, 0.55 11.19, -0.15 9.9 C-0.84 8.6, -1.83 7.72, -1.07 6.45 C-0.31 5.18, 2.93 3.37, 4.41 2.27 C5.89 1.16, 7.05 0.24, 7.81 -0.16 C8.58 -0.55, 8.81 -0.26, 9 -0.11" stroke="hsl(39, 80%, 41%)" stroke-width="2" fill="none"/></g><g stroke-linecap="round" transform="translate(201.10114853040204 225.40294266349497) rotate(0 8.15319755785952 8.15319755785952)"><path d="M0.5 4.41 C0.5 4.41, 0.5 4.41, 0.5 4.41 M0.5 4.41 C0.5 4.41, 0.5 4.41, 0.5 4.41 M4.35 13.56 C6.06 9.35, 7.62 9.72, 14.15 3.33 M3.78 13.01 C7.38 8.91, 9.76 6.34, 13.16 2.64" stroke="White" stroke-width="1" fill="none"/><path d="M4.96 1.57 C6.67 0.77, 9.12 -0.71, 10.77 -0.24 C12.42 0.24, 13.82 2.94, 14.88 4.41 C15.93 5.87, 17.39 7, 17.11 8.56 C16.82 10.11, 14.4 12.58, 13.15 13.72 C11.89 14.86, 11.1 15.27, 9.58 15.37 C8.06 15.48, 5.5 15.3, 4.03 14.35 C2.56 13.41, 1.41 11.32, 0.78 9.72 C0.15 8.11, -0.58 6.36, 0.24 4.71 C1.06 3.06, 4.67 0.69, 5.7 -0.2 C6.72 -1.08, 6.44 -0.86, 6.39 -0.58 M6.18 1.04 C7.44 0.47, 8.42 0.85, 9.75 1.21 C11.08 1.57, 13.31 1.92, 14.17 3.19 C15.02 4.46, 14.88 7.18, 14.88 8.84 C14.89 10.5, 15.52 12.03, 14.21 13.15 C12.89 14.27, 9.11 15.59, 7.01 15.55 C4.9 15.52, 2.59 13.84, 1.57 12.94 C0.55 12.04, 0.82 11.89, 0.91 10.17 C1 8.45, 1.4 4.28, 2.1 2.63 C2.81 0.98, 4.64 0.62, 5.14 0.26 C5.63 -0.1, 5.02 0.54, 5.08 0.49" stroke="hsl(208,80%,50%)" stroke-width="2" fill="none"/></g><g stroke-linecap="round" transform="translate(242.87825370777819 224.44291759201747) rotate(0 8.15319755785952 8.15319755785952)"><path d="M0.97 4.82 C0.97 4.82, 0.97 4.82, 0.97 4.82 M0.97 4.82 C0.97 4.82, 0.97 4.82, 0.97 4.82 M4.61 14.05 C4.58 11.38, 9.13 10.19, 14.14 3.6 M4.07 14.26 C5.41 11.36, 8.28 9.27, 13.45 2.81 M10.52 17.62 C12.67 15.57, 14.15 13.42, 18.99 9.13 M10.51 18.8 C12.43 16.61, 13.91 14.39, 18.73 9.39" stroke="White" stroke-width="1" fill="none"/><path d="M5.29 1.39 C6.72 0.52, 7.8 -0.18, 9.52 0.28 C11.24 0.73, 14.56 2.85, 15.64 4.11 C16.72 5.37, 16.29 6.12, 16 7.84 C15.71 9.56, 15.2 12.95, 13.9 14.44 C12.6 15.93, 9.99 16.62, 8.2 16.79 C6.42 16.96, 4.59 16.6, 3.19 15.46 C1.79 14.33, 0.2 11.69, -0.22 9.98 C-0.64 8.27, -0.08 6.71, 0.65 5.19 C1.38 3.67, 3.56 1.66, 4.17 0.86 C4.77 0.06, 4.05 0.41, 4.26 0.39 M9.81 -1.12 C11.57 -1.31, 13.97 0.35, 14.91 1.63 C15.84 2.91, 15.59 4.49, 15.41 6.54 C15.24 8.6, 14.99 12.56, 13.86 13.97 C12.73 15.37, 10.34 14.97, 8.62 14.98 C6.91 14.99, 5.17 14.52, 3.59 14.02 C2.01 13.53, -0.42 13.24, -0.85 12.02 C-1.29 10.79, 0.46 8.5, 0.99 6.67 C1.53 4.83, 1.03 2.18, 2.37 1.02 C3.71 -0.13, 7.91 -0.12, 9.03 -0.27 C10.15 -0.43, 9.29 -0.04, 9.09 0.09" stroke="hsl(208,80%,50%)" stroke-width="2" fill="none"/></g><g stroke-linecap="round" transform="translate(203.33920773633145 275.9182793284258) rotate(0 8.15319755785952 8.15319755785952)"><path d="M1.72 2.82 C1.72 2.82, 1.72 2.82, 1.72 2.82 M1.72 2.82 C1.72 2.82, 1.72 2.82, 1.72 2.82 M3.36 12.13 C5.44 11.82, 8.99 8.98, 12.67 1.66 M3.58 12.92 C5.04 11.38, 7.32 9.14, 11.88 2.2 M9.32 18.28 C11.31 15.73, 13.23 13.61, 15.65 10.32 M10.2 17.99 C11.3 16.37, 12.38 15.28, 15.84 11.36" stroke="White" stroke-width="1" fill="none"/><path d="M6.71 -0.27 C8.26 -0.75, 10.17 0.97, 11.79 1.77 C13.41 2.58, 15.86 3.14, 16.43 4.55 C17 5.96, 15.71 8.64, 15.2 10.22 C14.7 11.8, 14.63 13.09, 13.4 14.01 C12.17 14.94, 9.6 15.9, 7.83 15.77 C6.06 15.65, 4.17 14.43, 2.78 13.25 C1.39 12.07, -0.34 10.46, -0.5 8.7 C-0.66 6.94, 0.63 4.28, 1.82 2.69 C3.01 1.11, 5.86 -0.44, 6.64 -0.8 C7.43 -1.16, 6.62 0.2, 6.51 0.54 M7.29 0.72 C8.64 0.45, 11.32 0.31, 12.6 1.24 C13.87 2.18, 14.39 4.66, 14.93 6.33 C15.48 8.01, 16.76 9.8, 15.85 11.27 C14.95 12.74, 11.51 14.67, 9.48 15.17 C7.46 15.66, 5.01 14.68, 3.71 14.24 C2.42 13.8, 2.14 14.08, 1.72 12.54 C1.3 10.99, 0.99 6.81, 1.2 4.97 C1.4 3.12, 1.79 2.32, 2.94 1.47 C4.1 0.62, 7.24 0.29, 8.14 -0.15 C9.04 -0.59, 8.34 -1.56, 8.33 -1.16" stroke="hsl(208,80%,50%)" stroke-width="2" fill="none"/></g><g stroke-linecap="round" transform="translate(64.69332993063199 279.3825014082231) rotate(0 8.15319755785952 8.15319755785952)"><path d="M3.14 1.41 C3.14 1.41, 3.14 1.41, 3.14 1.41 M3.14 1.41 C3.14 1.41, 3.14 1.41, 3.14 1.41 M2.06 13.35 C7.55 10.99, 10.52 6.76, 11.34 1.79 M2.85 13.27 C6.23 10.48, 8.92 6.99, 11.88 3.23 M10.55 17.18 C13.06 13.88, 16.13 11.54, 16.87 7.82 M10.17 18.12 C11.58 15.91, 13.72 14.16, 18.26 9.09" stroke="White" stroke-width="1" fill="none"/><path d="M8.75 0.13 C10.43 0.31, 13.93 2.35, 15.14 3.51 C16.35 4.66, 16.13 5.33, 16.01 7.06 C15.89 8.78, 15.58 12.24, 14.41 13.85 C13.24 15.45, 10.73 16.33, 8.97 16.66 C7.22 17, 5.35 16.85, 3.86 15.86 C2.37 14.87, 0.62 12.37, 0.04 10.72 C-0.54 9.06, -0.14 7.48, 0.38 5.92 C0.89 4.37, 1.74 2.42, 3.15 1.4 C4.55 0.39, 7.57 0.12, 8.8 -0.16 C10.03 -0.44, 10.32 -0.46, 10.5 -0.26 M11.05 -0.75 C12.44 -0.42, 13.24 0.49, 13.99 2.24 C14.73 3.99, 15.76 7.99, 15.53 9.75 C15.31 11.52, 13.87 11.96, 12.62 12.83 C11.37 13.69, 9.81 14.48, 8.03 14.94 C6.26 15.4, 3.16 16.2, 1.96 15.58 C0.76 14.95, 1.3 13.06, 0.86 11.2 C0.43 9.34, -1.26 6.21, -0.65 4.41 C-0.03 2.61, 2.74 1.09, 4.55 0.39 C6.35 -0.32, 9.44 0.2, 10.18 0.15 C10.92 0.1, 8.73 0.14, 8.96 0.1" stroke="hsl(39, 80%, 41%)" stroke-width="2" fill="none"/></g><g stroke-linecap="round"><g transform="translate(42.6208956990381 41.05284277548367) rotate(0 0.545244182718001 12.72236426342139)"><path d="M-0.58 0.33 C-0.07 4.86, 1.88 21.88, 2.05 26.07 M1.31 -0.55 C1.85 3.73, 1.93 19.71, 1.61 24.28" stroke="black" stroke-width="1" fill="none"/></g></g><g stroke-linecap="round"><g transform="translate(43.59737401331108 85.1233392425612) rotate(0 0.3634961218119983 13.631104567951539)"><path d="M0.33 0.96 C0.74 5.5, 1.28 22.08, 1.36 26.65 M-0.96 0.42 C-0.55 5.16, 0.57 23.5, 0.74 27.87" stroke="black" stroke-width="1" fill="none"/></g></g><g stroke-linecap="round"><g transform="translate(38.25122250843606 131.46617209041938) rotate(0 -8.178662740770775 13.085860385233543)"><path d="M0.96 0.63 C-1.77 4.95, -14.27 21.82, -16.97 26.24 M0.01 -0.08 C-2.27 4.42, -12.01 23.58, -14.58 27.81" stroke="black" stroke-width="1" fill="none"/></g></g><g stroke-linecap="round"><g transform="translate(47.186651273861116 129.62413825705892) rotate(0 11.086631715267238 15.448585177011772)"><path d="M0.63 -0.61 C4.28 4.57, 18.49 26.84, 22.24 32.03 M-0.5 1.68 C2.97 6.47, 17.43 25.51, 21.33 30.51" stroke="black" stroke-width="1" fill="none"/></g></g><g stroke-linecap="round"><g transform="translate(73.02189899411201 177.87082136576578) rotate(0 0.3634961218119983 20.174034760568315)"><path d="M-0.61 0.07 C-0.46 6.85, 1.7 34.79, 1.86 41.34 M1.27 -0.94 C1.28 5.47, 1.82 32.88, 1.51 39.74" stroke="black" stroke-width="1" fill="none"/></g></g><g stroke-linecap="round"><g transform="translate(17.12482976920387 177.3854560163104) rotate(0 0.5452441827181502 19.628790577850314)"><path d="M0.07 1.14 C0.31 7.72, 2.07 32.59, 2.09 38.91 M-1.35 0.69 C-1.24 7.5, 1.01 33.67, 1.66 40.26" stroke="black" stroke-width="1" fill="none"/></g></g><g stroke-linecap="round"><g transform="translate(70.9495518325366 237.31642240898282) rotate(0 0.5452441827181502 18.901798334226157)"><path d="M1.14 0.99 C1.36 7.13, 0.79 30.59, 0.74 36.86 M0.27 0.47 C0.36 6.72, -0.34 31.86, -0.39 37.9" stroke="black" stroke-width="1" fill="none"/></g></g><g stroke-linecap="round"><g transform="translate(165.92504618106977 42.08662326406488) rotate(0 0.908740304530153 15.993829359729858)"><path d="M0.99 -0.35 C1.13 4.76, 0.6 26.56, 0.88 31.76 M0.06 -1.58 C0.56 4.22, 2.72 27.65, 3.09 33.19" stroke="black" stroke-width="1" fill="none"/></g></g><g stroke-linecap="round"><g transform="translate(159.86586652144365 87.44990793355487) rotate(0 -13.812852628857696 16.175577420635847)"><path d="M-0.35 -0.94 C-5.18 4.42, -23.12 27.53, -27.85 33.19 M1.67 1.18 C-3.44 6.12, -24.24 26.53, -28.91 31.5" stroke="black" stroke-width="1" fill="none"/></g></g><g stroke-linecap="round"><g transform="translate(167.28931927392705 91.40088733023185) rotate(0 0.36349612181200097 15.630333237917775)"><path d="M-0.94 -0.22 C-0.85 4.87, 1.18 25.03, 1.56 30.18 M0.76 -1.39 C0.69 3.84, 1.02 25.64, 1.05 31.15" stroke="black" stroke-width="1" fill="none"/></g></g><g stroke-linecap="round"><g transform="translate(173.78438656216008 88.99584902721745) rotate(0 12.72236426342154 16.357325481541935)"><path d="M-0.22 0.83 C3.9 6.55, 20.18 27.95, 24.36 33.36 M-1.8 0.23 C2.71 5.68, 22.24 26.4, 26.51 31.58" stroke="black" stroke-width="1" fill="none"/></g></g><g stroke-linecap="round"><g transform="translate(170.15167978541217 141.6826096951969) rotate(0 0 15.993829359729856)"><path d="M0.83 -1.08 C1.1 4.19, 0.69 26, 0.65 31.4 M-0.19 0.96 C0.06 6.41, -0.02 27.41, 0.04 32.63" stroke="black" stroke-width="1" fill="none"/></g></g><g stroke-linecap="round"><g transform="translate(212.21094315049686 142.8702914813182) rotate(0 -0.3634961218121511 15.812081298823779)"><path d="M-1.08 0.65 C-1.26 5.88, -1.26 27.16, -1.31 32.22 M0.55 -0.06 C0.79 4.75, 1.6 25.07, 1.09 30.41" stroke="black" stroke-width="1" fill="none"/></g></g><g stroke-linecap="round"><g transform="translate(209.9786827449111 190.6233912077962) rotate(0 -0.7269922436241529 16.539073542447927)"><path d="M0.65 -0.59 C0.37 4.99, -0.4 26.79, -0.86 32.4 M-0.47 1.72 C-0.93 7.54, -1.04 28.14, -1.49 33.58" stroke="black" stroke-width="1" fill="none"/></g></g><g stroke-linecap="round"><g transform="translate(215.26345288597054 187.88375778204556) rotate(0 15.266837116105691 18.720050273320158)"><path d="M-0.59 0.6 C4.57 6.62, 24.67 30.63, 29.86 36.82 M1.31 -0.14 C6.95 5.99, 27.47 31.47, 32.21 38.03" stroke="black" stroke-width="1" fill="none"/></g></g><g stroke-linecap="round"><g transform="translate(210.9056172133246 241.7654783496812) rotate(0 0.18174806090615192 17.084317725166002)"><path d="M0.6 -0.68 C0.45 5.11, -0.27 28.48, -0.26 34.15 M-0.55 1.58 C-0.36 7.62, 2.02 30.23, 2.13 35.68" stroke="black" stroke-width="1" fill="none"/></g></g><g stroke-linecap="round"><g transform="translate(292.5788985287804 40.25732126075013) rotate(0 -10.177891410737082 14.539844872481623)"><path d="M-0.68 -0.62 C-3.98 4.18, -16.96 24.41, -20.37 29.39 M1.17 1.67 C-2.24 6.04, -18.02 22.6, -21.33 27.44" stroke="black" stroke-width="1" fill="none"/></g></g><g stroke-linecap="round"><g transform="translate(298.0066869937061 39.22067079133387) rotate(0 8.905654984395085 15.812081298823855)"><path d="M-0.62 -0.02 C2.3 5.23, 15.02 25.75, 18.13 30.83 M1.25 -1.07 C3.99 4.37, 14.67 26.58, 17.34 31.95" stroke="black" stroke-width="1" fill="none"/></g></g><g stroke-linecap="round"><g transform="translate(325.06476584210805 84.58297974381958) rotate(0 0 16.35732548154185)"><path d="M-0.02 0.31 C-0.04 5.9, -0.6 27.56, -0.79 32.89 M-1.49 -0.57 C-1.06 5.29, 1.07 28.86, 1.5 34.52" stroke="black" stroke-width="1" fill="none"/></g></g><g stroke-linecap="round"><g transform="translate(325.05087186214996 136.8801672749929) rotate(0 0.9087403045301556 16.17557742063585)"><path d="M0.31 -0.79 C0.75 4.41, 1.81 25.61, 2 31.18 M-0.98 1.4 C-0.63 6.71, 0.9 26.65, 1.14 32.11" stroke="black" stroke-width="1" fill="none"/></g></g><g stroke-linecap="round"><g transform="translate(332.5527093499861 133.31869408799093) rotate(0 16.539073542447852 18.720050273320158)"><path d="M-0.79 0.18 C4.53 6.3, 26.21 30.98, 31.91 37.05 M0.99 -0.77 C6.66 5.49, 28.71 32.01, 34.01 38.39" stroke="black" stroke-width="1" fill="none"/></g></g><g stroke-linecap="round"><g transform="translate(373.9034771217034 188.3091862058959) rotate(0 -0.3634961218120054 16.17557742063585)"><path d="M0.18 -1.17 C-0.06 4.41, -0.82 27.04, -1.11 32.68 M-1.19 0.84 C-1.65 6.11, -2.61 25.17, -2.27 30.72" stroke="black" stroke-width="1" fill="none"/></g></g><g stroke-linecap="round"><g transform="translate(51.82424364229314 118.02587356911988) rotate(0 53.252181845464165 -17.99305802969608)"><path d="M-1.17 -0.39 C16.77 -6.55, 88.83 -30.91, 106.83 -36.82" stroke="DarkGray" stroke-width="1.5" fill="none" stroke-dasharray="1.5 7"/></g></g><g stroke-linecap="round"><g transform="translate(217.285073602711 177.4043025515341) rotate(0 49.43547256643771 -47.072747774659405)"><path d="M-0.39 0.33 C15.92 -15.12, 81.47 -78.18, 98.03 -93.82" stroke="DarkGray" stroke-width="1.5" fill="none" stroke-dasharray="1.5 7"/></g></g><g stroke-linecap="round"><g transform="translate(135.22946358861736 135.6228522452368) rotate(0 12.722364263421388 20.901027004192397)"><path d="M0.33 -0.84 C4.82 6.21, 21.48 34.72, 25.77 41.9" stroke="DarkGray" stroke-width="1.5" fill="none" stroke-dasharray="1.5 7"/></g></g><g stroke-linecap="round"><g transform="translate(82.68411072207459 229.51987483625192) rotate(0 118.49973571072556 -21.991515369628544)"><path d="M-0.84 0.33 C38.74 -6.95, 197.39 -35.79, 237.1 -43.33" stroke="DarkGray" stroke-width="1.5" fill="none" stroke-dasharray="1.5 7"/></g></g><g stroke-linecap="round"><g transform="translate(27.291940081880966 222.4984253583142) rotate(0 19.992286699662316 -23.26375179597062)"><path d="M0.33 0.1 C7.05 -7.44, 34.19 -38.41, 40.63 -46.09" stroke="DarkGray" stroke-width="1.5" fill="none" stroke-dasharray="1.5 7"/></g></g><g stroke-linecap="round"><g transform="translate(363.2018267342503 230.70430263196852) rotate(0 -71.97223211878432 -44.891771043787095)"><path d="M0.1 0.65 C-23.68 -14.53, -119.6 -75.53, -143.51 -90.74" stroke="DarkGray" stroke-width="1.5" fill="none" stroke-dasharray="1.5 7"/></g></g></svg>