<svg version="1.1" xmlns="http://www.w3.org/2000/svg" viewBox="0 0 59.55483870967737 65.69620253164567" width="119.10967741935474" height="131.39240506329133">
  <!-- svg-source:excalidraw -->
  
  <defs>
    <style>
      @font-face {
        font-family: "Virgil";
        src: url("https://unpkg.com/@zsviczian/excalidraw@0.11.0-obsidian-25/dist/excalidraw-assets/Virgil.woff2");
      }
      @font-face {
        font-family: "Cascadia";
        src: url("https://unpkg.com/@zsviczian/excalidraw@0.11.0-obsidian-25/dist/excalidraw-assets/Cascadia.woff2");
      }
    </style>
  </defs>
  <g stroke-linecap="round"><g transform="translate(16.32903225806444 31.94428959960544) rotate(0 16.54227808281314 0.5167725549704301)" fill-rule="evenodd"><path d="M0.4 -1.53 L18.08 -10.88 L23.19 -10.88 L30.96 -4.33 L33.91 1.93 L30.82 6.97 L30.02 9.08 L26.26 1.74 L20.54 -1.83 L17.88 -1.7 L14.43 0.07 L16.73 7.04 L24.28 6.69 L23.24 12.31 L21.16 14.41 L19.3 12.01 L-1.49 7.58 L0.78 8.05 L-2.11 0.12" stroke="none" stroke-width="0" fill="#ecbcb4" fill-rule="evenodd"/><path d="M-0.51 0.52 C3.01 -1.31, 16.16 -11.07, 21.66 -10.67 C27.16 -10.28, 31.37 -0.35, 32.48 2.86 C33.59 6.08, 29.04 8.21, 28.31 8.63 C27.58 9.06, 28.17 6.81, 28.1 5.44 C28.03 4.07, 29.03 1.71, 27.87 0.42 C26.71 -0.87, 23.19 -2.31, 21.14 -2.28 C19.09 -2.25, 16.55 -0.6, 15.56 0.6 C14.58 1.8, 14.09 3.55, 15.24 4.91 C16.39 6.27, 21.24 7.36, 22.46 8.77 C23.68 10.19, 26.41 13.38, 22.58 13.42 C18.75 13.47, 3.29 11.45, -0.52 9.04 C-4.34 6.64, -0.41 0.68, -0.3 -1 C-0.19 -2.68, 0.15 -1.17, 0.14 -1.01 M1.42 -0.25 C4.72 -2.45, 14.97 -12.59, 20.57 -12.39 C26.16 -12.19, 33.73 -2.66, 34.99 0.92 C36.24 4.51, 29.46 8.38, 28.11 9.13 C26.75 9.88, 26.67 6.53, 26.86 5.42 C27.05 4.3, 30.17 3.38, 29.24 2.43 C28.31 1.48, 23.76 0.18, 21.3 -0.26 C18.84 -0.7, 15.22 -1.42, 14.48 -0.21 C13.75 1, 15.47 5.53, 16.9 6.99 C18.33 8.45, 22.03 7.82, 23.07 8.53 C24.11 9.23, 26.77 11.25, 23.12 11.24 C19.48 11.24, 5.09 10.14, 1.21 8.49 C-2.67 6.85, 0.11 3.07, -0.16 1.37 C-0.43 -0.32, -0.41 -1.35, -0.42 -1.68" stroke="#000000" stroke-width="1" fill="none"/></g></g><g stroke-linecap="round"><g transform="translate(10.806451612903174 29.37009605121841) rotate(0 1.854838709677324 5.806451612903231)" fill-rule="evenodd"><path d="M0.5 1.39 L3.16 0.4 L3.09 12.67 L-2.55 13.07 L-0.53 1.27" stroke="none" stroke-width="0" fill="white" fill-rule="evenodd"/><path d="M-0.11 0.3 C1.12 0.86, 2.49 0.68, 4.53 1.46 M-0.11 -0.02 C1.08 0.43, 2.46 1.01, 4.43 1.86 M4.23 1.11 C4.55 4.52, 4.22 8.66, 4.7 10.12 M4.48 2.17 C4.73 5.27, 4.4 8.19, 4.51 11 M4.11 10.77 C2.94 10.72, 1.37 10.86, -0.57 12.08 M4.72 10.67 C2.77 11.29, 0.46 11.12, -1.04 11.88 M-0.2 10.87 C0.06 6.75, 0.56 4.57, 0.5 -0.03 M-0.45 11.04 C-0.55 8.2, -0.53 4.57, 0.28 -0.42 M0 0 C0 0, 0 0, 0 0 M0 0 C0 0, 0 0, 0 0" stroke="#000000" stroke-width="1" fill="none"/></g></g><g stroke-linecap="round" transform="translate(22.724737269235444 10) rotate(0 2.7215189873418235 2.9113924050633386)"><path d="M5.44 2.91 C5.44 3.08, 5.43 3.25, 5.4 3.42 C5.37 3.58, 5.33 3.75, 5.28 3.91 C5.23 4.07, 5.16 4.22, 5.08 4.37 C5 4.51, 4.91 4.65, 4.81 4.78 C4.71 4.91, 4.59 5.03, 4.47 5.14 C4.35 5.25, 4.22 5.35, 4.08 5.43 C3.95 5.52, 3.8 5.59, 3.65 5.65 C3.5 5.7, 3.35 5.75, 3.19 5.78 C3.04 5.81, 2.88 5.82, 2.72 5.82 C2.56 5.82, 2.4 5.81, 2.25 5.78 C2.09 5.75, 1.94 5.7, 1.79 5.65 C1.64 5.59, 1.5 5.52, 1.36 5.43 C1.22 5.35, 1.09 5.25, 0.97 5.14 C0.85 5.03, 0.74 4.91, 0.64 4.78 C0.54 4.65, 0.44 4.51, 0.36 4.37 C0.29 4.22, 0.22 4.07, 0.16 3.91 C0.11 3.75, 0.07 3.58, 0.04 3.42 C0.01 3.25, 0 3.08, 0 2.91 C0 2.74, 0.01 2.57, 0.04 2.41 C0.07 2.24, 0.11 2.07, 0.16 1.92 C0.22 1.76, 0.29 1.6, 0.36 1.46 C0.44 1.31, 0.54 1.17, 0.64 1.04 C0.74 0.91, 0.85 0.79, 0.97 0.68 C1.09 0.57, 1.22 0.47, 1.36 0.39 C1.5 0.31, 1.64 0.23, 1.79 0.18 C1.94 0.12, 2.09 0.07, 2.25 0.04 C2.4 0.01, 2.56 0, 2.72 0 C2.88 0, 3.04 0.01, 3.19 0.04 C3.35 0.07, 3.5 0.12, 3.65 0.18 C3.8 0.23, 3.95 0.31, 4.08 0.39 C4.22 0.47, 4.35 0.57, 4.47 0.68 C4.59 0.79, 4.71 0.91, 4.81 1.04 C4.91 1.17, 5 1.31, 5.08 1.46 C5.16 1.6, 5.23 1.76, 5.28 1.92 C5.33 2.07, 5.37 2.24, 5.4 2.41 C5.43 2.57, 5.44 2.83, 5.44 2.91 C5.45 3, 5.45 2.83, 5.44 2.91" stroke="none" stroke-width="0" fill="#228be6"/><path d="M5.44 2.91 C5.44 3.08, 5.43 3.25, 5.4 3.42 C5.37 3.58, 5.33 3.75, 5.28 3.91 C5.23 4.07, 5.16 4.22, 5.08 4.37 C5 4.51, 4.91 4.65, 4.81 4.78 C4.71 4.91, 4.59 5.03, 4.47 5.14 C4.35 5.25, 4.22 5.35, 4.08 5.43 C3.95 5.52, 3.8 5.59, 3.65 5.65 C3.5 5.7, 3.35 5.75, 3.19 5.78 C3.04 5.81, 2.88 5.82, 2.72 5.82 C2.56 5.82, 2.4 5.81, 2.25 5.78 C2.09 5.75, 1.94 5.7, 1.79 5.65 C1.64 5.59, 1.5 5.52, 1.36 5.43 C1.22 5.35, 1.09 5.25, 0.97 5.14 C0.85 5.03, 0.74 4.91, 0.64 4.78 C0.54 4.65, 0.44 4.51, 0.36 4.37 C0.29 4.22, 0.22 4.07, 0.16 3.91 C0.11 3.75, 0.07 3.58, 0.04 3.42 C0.01 3.25, 0 3.08, 0 2.91 C0 2.74, 0.01 2.57, 0.04 2.41 C0.07 2.24, 0.11 2.07, 0.16 1.92 C0.22 1.76, 0.29 1.6, 0.36 1.46 C0.44 1.31, 0.54 1.17, 0.64 1.04 C0.74 0.91, 0.85 0.79, 0.97 0.68 C1.09 0.57, 1.22 0.47, 1.36 0.39 C1.5 0.31, 1.64 0.23, 1.79 0.18 C1.94 0.12, 2.09 0.07, 2.25 0.04 C2.4 0.01, 2.56 0, 2.72 0 C2.88 0, 3.04 0.01, 3.19 0.04 C3.35 0.07, 3.5 0.12, 3.65 0.18 C3.8 0.23, 3.95 0.31, 4.08 0.39 C4.22 0.47, 4.35 0.57, 4.47 0.68 C4.59 0.79, 4.71 0.91, 4.81 1.04 C4.91 1.17, 5 1.31, 5.08 1.46 C5.16 1.6, 5.23 1.76, 5.28 1.92 C5.33 2.07, 5.37 2.24, 5.4 2.41 C5.43 2.57, 5.44 2.83, 5.44 2.91 C5.45 3, 5.45 2.83, 5.44 2.91" stroke="#000000" stroke-width="1" fill="none"/></g><g stroke-linecap="round" transform="translate(33.09959984198542 11.438567759035891) rotate(331.0519217958663 2.998376864536507 20.50632911392404)"><path d="M-0.99 0.4 L4.91 1.66 L5.31 42.55 L0.22 41.62" stroke="none" stroke-width="0" fill="white"/><path d="M-0.37 0.38 C1.63 -0.62, 4.34 -0.44, 5.95 -0.58 M-0.22 -0.16 C1.25 -0.07, 2.78 0.11, 6.23 -0.25 M6.47 -1.5 C5.53 11.6, 6.34 21.43, 7.39 40.21 M6.77 0.34 C6.03 14.29, 6.09 30.19, 5.64 40.17 M5.82 40.67 C3.79 40.58, 2.57 41.54, 0.45 40.5 M6.28 41.25 C4.45 40.69, 2.75 41.28, 0.13 40.72 M0.82 39.55 C0.98 29.89, 0.64 15.41, 0.37 -0.79 M-0.08 41.5 C-0.73 31.2, 0.24 19.46, 0.03 -0.8" stroke="#000000" stroke-width="1" fill="none"/></g><g stroke-linecap="round"><g transform="translate(43.35764866164027 51.392405063291335) rotate(0 3.037974683544462 0.8860759493669548)" fill-rule="evenodd"><path d="M0 0 L6.08 4.3 L5.32 -2.53 L0 0" stroke="none" stroke-width="0" fill="#228be6" fill-rule="evenodd"/><path d="M0 0 C1.68 1.19, 3.37 2.38, 6.08 4.3 M0 0 C1.54 1.09, 3.07 2.18, 6.08 4.3 M6.08 4.3 C5.86 2.35, 5.64 0.39, 5.32 -2.53 M6.08 4.3 C5.83 2.06, 5.58 -0.19, 5.32 -2.53 M5.32 -2.53 C4.13 -1.96, 2.94 -1.4, 0 0 M5.32 -2.53 C3.33 -1.58, 1.34 -0.64, 0 0 M0 0 C0 0, 0 0, 0 0 M0 0 C0 0, 0 0, 0 0" stroke="#000000" stroke-width="1" fill="none"/></g></g><g stroke-linecap="round"><g transform="translate(31.332332205944113 37.721518987341824) rotate(0 4.620253164557198 2.784810126582329)" fill-rule="evenodd"><path d="M0 0 L9.24 1.9 L8.61 5.57 L1.52 3.54 L0 0" stroke="none" stroke-width="0" fill="#ecbcb4" fill-rule="evenodd"/><path d="M0 0 C3.37 0.69, 6.74 1.39, 9.24 1.9 M0 0 C2.7 0.55, 5.39 1.11, 9.24 1.9 M9.24 1.9 C9.1 2.73, 8.95 3.56, 8.61 5.57 M9.24 1.9 C9 3.32, 8.75 4.74, 8.61 5.57 M8.61 5.57 C6.52 4.97, 4.44 4.38, 1.52 3.54 M8.61 5.57 C6.84 5.06, 5.06 4.56, 1.52 3.54 M1.52 3.54 C1.16 2.71, 0.8 1.87, 0 0 M1.52 3.54 C1.21 2.83, 0.9 2.11, 0 0 M0 0 C0 0, 0 0, 0 0 M0 0 C0 0, 0 0, 0 0" stroke="transparent" stroke-width="1" fill="none"/></g></g><g stroke-linecap="round"><g transform="translate(35.636129674298445 38.35443037974687) rotate(0 2.7215189873418244 2.8481012658228337)"><path d="M0 0 C0.91 0.25, 4.66 0.57, 5.44 1.52 C6.22 2.47, 4.81 5, 4.68 5.7 M0 0 C0.91 0.25, 4.66 0.57, 5.44 1.52 C6.22 2.47, 4.81 5, 4.68 5.7" stroke="#000000" stroke-width="1" fill="none"/></g></g></svg>