<svg version="1.1" xmlns="http://www.w3.org/2000/svg" viewBox="0 0 800.7778167616628 834.9140128474208" width="800.7778167616628" height="834.9140128474208">
  <!-- svg-source:excalidraw -->
  
  <defs>
    <style>
      @font-face {
        font-family: "Virgil";
        src: url("https://unpkg.com/@zsviczian/excalidraw@0.12.0-obsidian-4/dist/excalidraw-assets/Virgil.woff2");
      }
      @font-face {
        font-family: "Cascadia";
        src: url("https://unpkg.com/@zsviczian/excalidraw@0.12.0-obsidian-4/dist/excalidraw-assets/Cascadia.woff2");
      }
    </style>
  </defs>
  <g stroke-linecap="round"><g stroke-opacity="0.5" fill-opacity="0.5" transform="translate(529.62244357495 668.5746301913889) rotate(323.97244376277126 -93.4767350533001 -200.5960707984712)" fill-rule="evenodd"><path d="M1.7 -3.4 L-1.03 40.69 L-9.98 50.72 L-24.14 60.62 L-46.43 66.54 L-109.46 79.44 L-145.7 78.89 L-166.6 68.71 L-172.41 55.25 L-175.21 30.74 L-182.55 10.76 L-255.24 -83.13 L-271.33 -114.55 L-302.98 -175.98 L-311.99 -206.06 L-317.7 -235.04 L-320.88 -266.98 L-319.15 -294.34 L-312.75 -322.78 L-303.69 -340.68 L-285.58 -369.15 L-268.54 -389.68 L-225.47 -434.63 L-206.72 -448.83 L-178.39 -459.82 L-156.46 -469.61 L-127.7 -477.96 L-103.93 -475.67 L-73.36 -477.23 L-48.54 -473.45 L-24.8 -472.83 L26.55 -448.38 L57.22 -424.99 L82.54 -404.53 L97.82 -379.98 L114.3 -359.81 L125.16 -329.91 L131.82 -300.85 L136.82 -266.37 L137.04 -239.32 L140.61 -207.06 L132.22 -165.95 L112.19 -137.51 L0.45 1.87" stroke="none" stroke-width="0" fill="gold" fill-rule="evenodd"/><path d="M1.66 -1.66 C-1.11 7.85, 8.19 46.69, -18.27 58.98 C-44.73 71.28, -129.1 80.29, -157.11 72.12 C-185.11 63.94, -166.75 41.71, -186.32 9.95 C-205.9 -21.81, -252.36 -77.61, -274.56 -118.43 C-296.76 -159.26, -314.87 -197.51, -319.52 -235.01 C-324.17 -272.51, -318 -310.34, -302.45 -343.43 C-286.9 -376.52, -255.65 -411.53, -226.23 -433.54 C-196.81 -455.55, -159.02 -469.06, -125.92 -475.49 C-92.82 -481.91, -62.07 -483.71, -27.64 -472.09 C6.79 -460.46, 54.18 -434.84, 80.66 -405.75 C107.14 -376.67, 122.55 -335.55, 131.25 -297.58 C139.95 -259.61, 141.47 -211.46, 132.84 -177.94 C124.22 -144.42, 101.62 -125.87, 79.51 -96.44 C57.39 -67.01, 13 -17.88, 0.16 -1.37 M-0.89 3.6 C-3.65 13.47, 7.01 51.12, -19.19 62.81 C-45.38 74.51, -130.18 83.43, -158.07 73.78 C-185.96 64.13, -167.79 36.92, -186.5 4.93 C-205.21 -27.07, -248.69 -77.81, -270.33 -118.17 C-291.96 -158.52, -310.97 -199.25, -316.28 -237.22 C-321.59 -275.18, -316.71 -313.02, -302.19 -345.97 C-287.66 -378.92, -258.07 -412.82, -229.13 -434.9 C-200.19 -456.99, -162.22 -473.35, -128.55 -478.49 C-94.88 -483.62, -62.18 -476.9, -27.12 -465.69 C7.95 -454.49, 54.68 -439.15, 81.86 -411.25 C109.04 -383.35, 127.31 -336.94, 135.94 -298.29 C144.57 -259.65, 142.09 -213.18, 133.63 -179.38 C125.18 -145.58, 107.31 -124.81, 85.21 -95.48 C63.11 -66.16, 15.63 -19.07, 1.02 -3.43" stroke="transparent" stroke-width="1" fill="none"/></g></g><g stroke-linecap="round"><g transform="translate(473.0959868398571 874.1669093287951) rotate(323.97244376277126 3.536939298710479 -347.63249592903566)"><path d="M-1.66 2.44 C-7.14 1.75, -22.37 3.03, -30.96 -2.49 C-39.54 -8.01, -46.54 -24.93, -53.19 -30.7 C-59.85 -36.46, -65.24 -32.23, -70.9 -37.08 C-76.55 -41.93, -84.34 -30.4, -87.11 -59.8 C-89.87 -89.21, -72.87 -167.26, -87.47 -213.52 C-102.06 -259.79, -152.02 -297.59, -174.66 -337.39 C-197.31 -377.19, -218.68 -414.18, -223.35 -452.33 C-228.01 -490.47, -218.11 -533.16, -202.63 -566.27 C-187.16 -599.38, -159.32 -629.3, -130.52 -650.99 C-101.71 -672.68, -63.62 -690.11, -29.82 -696.4 C3.98 -702.69, 37.68 -699.99, 72.28 -688.74 C106.88 -677.49, 151.16 -657.48, 177.78 -628.89 C204.4 -600.31, 223.62 -556.11, 231.99 -517.25 C240.37 -478.39, 236.44 -429.08, 228.03 -395.73 C219.62 -362.38, 202.56 -346.16, 181.51 -317.14 C160.46 -288.12, 115.04 -253.05, 101.71 -221.64 C88.37 -190.23, 103.05 -155.46, 101.5 -128.68 C99.96 -101.91, 95.66 -78.28, 92.45 -61.01 C89.24 -43.74, 88.52 -31.6, 82.25 -25.08 C75.98 -18.56, 61.84 -25.59, 54.85 -21.88 C47.87 -18.18, 49.27 -6.53, 40.35 -2.85 C31.42 0.83, 8.28 -0.47, 1.31 0.19 M2.63 1.3 C-3.36 -0.36, -24.59 -1.72, -32.99 -6.66 C-41.4 -11.6, -41.76 -23.55, -47.81 -28.34 C-53.86 -33.13, -63.5 -30.3, -69.3 -35.41 C-75.1 -40.51, -80.16 -30.11, -82.59 -58.98 C-85.02 -87.84, -68.9 -163.02, -83.89 -208.59 C-98.87 -254.16, -148.77 -291.87, -172.51 -332.4 C-196.25 -372.94, -220.69 -413.52, -226.32 -451.82 C-231.96 -490.11, -222.39 -528.88, -206.32 -562.18 C-190.24 -595.48, -159.56 -629.53, -129.88 -651.61 C-100.21 -673.69, -61.44 -688.37, -28.25 -694.69 C4.93 -701, 34.73 -701.36, 69.24 -689.49 C103.75 -677.63, 151.74 -652.12, 178.82 -623.48 C205.91 -594.83, 223.53 -555.58, 231.74 -517.62 C239.94 -479.66, 237.23 -428.3, 228.06 -395.73 C218.9 -363.16, 197.07 -350.2, 176.75 -322.18 C156.42 -294.16, 118.92 -260.13, 106.1 -227.59 C93.28 -195.04, 101.33 -154.55, 99.81 -126.91 C98.29 -99.26, 99.59 -78.17, 96.98 -61.71 C94.37 -45.24, 91.67 -34.29, 84.16 -28.09 C76.65 -21.89, 58.91 -28.18, 51.9 -24.49 C44.88 -20.8, 50.4 -9.73, 42.08 -5.94 C33.76 -2.15, 8.72 -2.68, 1.97 -1.76" stroke="#000000" stroke-width="4" fill="none"/></g></g><g stroke-linecap="round"><g transform="translate(513.8386877187842 689.5127167353306) rotate(323.97244376277126 89.93988457331479 -0.5052897310623621)"><path d="M2.44 0.37 C17.58 2.39, 63.16 12.58, 92.5 10.47 C121.84 8.36, 172.63 -11.69, 178.49 -12.28 C184.34 -12.88, 135.86 3.41, 127.64 6.88 M0.33 -1.9 C15.08 0.52, 61.84 15.14, 91.11 12.65 C120.37 10.17, 169.89 -16.16, 175.93 -16.8 C181.96 -17.44, 135.68 4.41, 127.29 8.83" stroke="#000000" stroke-width="4" fill="none"/></g></g><g stroke-linecap="round"><g transform="translate(535.7892860938881 720.1780527580631) rotate(323.97244376277126 89.93988457331479 -0.5052897310623905)"><path d="M0.37 1.55 C15.36 3.1, 58.06 14.65, 88.28 11.75 C118.51 8.84, 175.1 -15.22, 181.74 -15.86 C188.39 -16.5, 136.8 4.3, 128.14 7.9 M-2.87 -0.07 C13.1 3.05, 62.6 16.89, 93.24 14.62 C123.88 12.35, 175.14 -12.98, 180.95 -13.68 C186.75 -14.38, 137.13 7.23, 128.07 10.41" stroke="#000000" stroke-width="4" fill="none"/></g></g><g stroke-linecap="round"><g transform="translate(556.7991385046815 752.6110012478125) rotate(323.97244376277126 89.93988457331479 -0.5052897310623905)"><path d="M1.55 -2.67 C16.07 -0.23, 60.12 17.12, 89.56 15 C118.99 12.89, 171.57 -14.28, 178.17 -15.36 C184.77 -16.43, 137.69 4.44, 129.17 8.54 M-1.05 2.06 C14.19 3.68, 64.35 13.5, 95.21 11 C126.06 8.51, 178.33 -12.97, 184.07 -12.9 C189.81 -12.84, 138.51 7.44, 129.66 11.39" stroke="#000000" stroke-width="4" fill="none"/></g></g><g stroke-linecap="round"><g transform="translate(496.5674694730702 665.7765599510645) rotate(323.97244376277126 36.88535099902215 -67.70749168147253)"><path d="M-2.67 -1.39 C-3.26 -24.17, 1.62 -113.41, -3.19 -135.11 C-8 -156.8, -29.44 -136.84, -31.52 -131.55 C-33.61 -126.26, -34.47 -107.63, -15.72 -103.37 C3.04 -99.11, 61.21 -102.72, 81.01 -105.97 C100.8 -109.23, 104.53 -116.74, 103.06 -122.89 C101.6 -129.03, 77.82 -146.96, 72.24 -142.84 C66.66 -138.73, 69.41 -122.67, 69.57 -98.21 C69.74 -73.75, 72.8 -13.37, 73.25 3.92 M1.08 4.02 C0.25 -18.56, 1.43 -110.31, -4.42 -132.41 C-10.26 -154.5, -32.24 -133.61, -33.99 -128.54 C-35.73 -123.48, -33.58 -105.86, -14.89 -102.02 C3.81 -98.18, 58.05 -101.86, 78.17 -105.53 C98.29 -109.19, 106.54 -118.5, 105.84 -124.03 C105.15 -129.55, 79.23 -142.91, 74.02 -138.67 C68.82 -134.43, 75.26 -123.13, 74.61 -98.57 C73.96 -74.01, 70.16 -8.53, 70.12 8.68" stroke="#e67700" stroke-width="4" fill="none"/></g></g><g stroke-linecap="round"><g transform="translate(566.5619784658574 171.10608921999886) rotate(354.59397545466396 42.44362685943416 -40.92771325688403)" fill-rule="evenodd"><path d="M1.18 2.15 L47.9 -64.92 L72.41 -79.14 L77.14 -79.32 L85.11 -83.81 L87 -71.75 L71.52 -55.46 L35.43 -3.72 L26.65 -2.19 L13.28 4.85 L3.15 -1.04" stroke="none" stroke-width="0" fill="gold" fill-rule="evenodd"/><path d="M-1.39 1.86 C6.32 -8.84, 33.46 -53.02, 47.81 -66.89 C62.15 -80.77, 82.79 -86.01, 84.71 -81.4 C86.63 -76.8, 69.55 -52.65, 59.33 -39.25 C49.11 -25.85, 32.86 -7.65, 23.38 -1.02 C13.89 5.6, 6.72 0.68, 2.42 0.49 M3.05 0.41 C11.53 -9.68, 39.99 -50.84, 53.28 -63.92 C66.57 -77, 81.9 -81.26, 82.8 -78.05 C83.7 -74.83, 67.78 -57.55, 58.66 -44.65 C49.54 -31.75, 38.11 -7.81, 28.07 -0.66 C18.03 6.5, 3.47 -2.16, -1.57 -1.7" stroke="#000000" stroke-width="4" fill="none"/></g></g><g stroke-linecap="round"><g transform="translate(692.1129455839989 338.1953877126382) rotate(26.419619136712786 42.443626859434175 -40.92771325688403)" fill-rule="evenodd"><path d="M2.15 -1.62 L50.28 -65.03 L73.08 -83.82 L84.2 -82.8 L82.93 -78.39 L87.3 -73.83 L66.43 -49.64 L36.53 -4.84 L22.06 -3.42 L18.71 5.99 L-1.04 0.5" stroke="none" stroke-width="0" fill="gold" fill-rule="evenodd"/><path d="M1.86 -1.71 C10.36 -12.46, 34.4 -52.12, 48.31 -65.87 C62.22 -79.61, 82.92 -88.26, 85.34 -84.17 C87.76 -80.07, 73.17 -55.73, 62.82 -41.3 C52.47 -26.87, 33.62 -4.06, 23.23 2.42 C12.84 8.91, 4.72 -2.11, 0.49 -2.38 M-0.57 3.53 C7.69 -6.62, 31.36 -48.03, 45.42 -62.34 C59.47 -76.64, 80.68 -86.18, 83.78 -82.31 C86.88 -78.45, 73.36 -52.22, 64.04 -39.17 C54.71 -26.11, 37.83 -10.93, 27.84 -3.98 C17.85 2.97, 9.03 2.17, 4.09 2.52" stroke="#000000" stroke-width="4" fill="none"/></g></g><g stroke-linecap="round"><g transform="translate(352.17321752933674 108.97657268298718) rotate(324.05609938468456 42.44362685943417 -40.92771325688403)" fill-rule="evenodd"><path d="M-1.62 0.76 L50.17 -64.36 L68.4 -76.76 L80.72 -84.98 L88.36 -78.08 L85.22 -78.92 L72.25 -48.54 L35.41 -9.43 L20.83 2.01 L19.84 1.8 L0.5 2.78" stroke="none" stroke-width="0" fill="gold" fill-rule="evenodd"/><path d="M-1.71 -1.21 C6.74 -12.39, 35.29 -51.99, 49.34 -65.23 C63.38 -78.48, 80.67 -84.65, 82.57 -80.68 C84.48 -76.72, 70.09 -54.97, 60.77 -41.45 C51.45 -27.92, 37.2 -6.06, 26.68 0.49 C16.15 7.03, 1.93 -2.34, -2.38 -2.17 M2.55 4.31 C10.74 -7.96, 32.73 -55.02, 47 -70 C61.27 -84.98, 85.84 -90.68, 88.15 -85.58 C90.46 -80.48, 71.48 -53.94, 60.88 -39.39 C50.27 -24.85, 34.72 -5.36, 24.52 1.68 C14.32 8.71, 3.29 3.25, -0.33 2.83" stroke="#000000" stroke-width="4" fill="none"/></g></g><g stroke-linecap="round"><g transform="translate(134.28783576924974 175.25889514830493) rotate(278.6932878107478 42.443626859434175 -40.92771325688403)" fill-rule="evenodd"><path d="M0.76 0.66 L50.85 -69.04 L75.46 -80.24 L78.54 -79.55 L88.66 -80.16 L80.13 -73.1 L73.35 -49.66 L30.82 -10.66 L26.26 3.15 L15.66 3.34 L2.78 0.26" stroke="none" stroke-width="0" fill="gold" fill-rule="evenodd"/><path d="M-1.21 -0.18 C6.81 -11.23, 35.43 -54.24, 49.97 -68 C64.51 -81.76, 84.28 -87.73, 86.06 -82.73 C87.84 -77.73, 70.84 -51.39, 60.62 -38 C50.4 -24.61, 35.21 -8.85, 24.74 -2.38 C14.28 4.09, 1.7 0.62, -2.17 0.82 M3.33 -2.75 C10.85 -13.37, 34.39 -52.74, 47.98 -65.63 C61.57 -78.52, 82.78 -83.91, 84.89 -80.1 C87 -76.28, 71.21 -55.61, 60.65 -42.72 C50.09 -29.83, 31.65 -9.66, 21.53 -2.74 C11.42 4.18, 2.93 -2.26, -0.02 -1.19" stroke="#000000" stroke-width="4" fill="none"/></g></g><g stroke-linecap="round"><g transform="translate(22.023976761558004 330.5383159873303) rotate(66.47444751597227 42.443626859434175 -40.92771325688403)" fill-rule="evenodd"><path d="M0.66 1.33 L46.16 -61.98 L71.97 -82.42 L83.97 -79.25 L86.58 -85.25 L85.95 -72 L72.22 -54.25 L29.59 -5.23 L27.4 -1.04 L17.2 5.62 L0.26 1.87" stroke="none" stroke-width="0" fill="gold" fill-rule="evenodd"/><path d="M-0.18 0.45 C7.97 -10.1, 33.17 -50.63, 47.2 -64.51 C61.24 -78.4, 81.2 -86.97, 84.01 -82.88 C86.82 -78.78, 74.42 -53.38, 64.07 -39.93 C53.71 -26.48, 32.42 -9.08, 21.88 -2.17 C11.34 4.73, 4.66 1.05, 0.82 1.5 M-3.72 -1.77 C5.44 -13.06, 38.11 -55.8, 52.35 -68.89 C66.59 -81.98, 80.9 -85.63, 81.73 -80.32 C82.56 -75.02, 66.66 -50.04, 57.33 -37.06 C48 -24.08, 35.98 -8.59, 25.76 -2.43 C15.53 3.72, 0.29 -0.15, -4.04 -0.14" stroke="#000000" stroke-width="4" fill="none"/></g></g><g stroke-linecap="round"><g transform="translate(29.706031596558603 548.8821640764309) rotate(34.41414410773633 42.443626859434175 -40.92771325688403)" fill-rule="evenodd"><path d="M1.33 -3.35 L53.22 -65.46 L69.8 -77 L84.27 -81.33 L81.49 -79.43 L87.05 -73.13 L67.63 -55.48 L35.02 -4.09 L23.21 0.5 L19.48 3.1 L1.87 0.27" stroke="none" stroke-width="0" fill="gold" fill-rule="evenodd"/><path d="M0.45 -2.31 C9.1 -13.38, 36.79 -53.71, 50.69 -66.56 C64.59 -79.41, 81.96 -83.39, 83.86 -79.43 C85.77 -75.47, 72.43 -56.17, 62.13 -42.8 C51.84 -29.42, 32.18 -6.12, 22.08 0.82 C11.97 7.77, 5.09 -1.07, 1.5 -1.13 M-2.75 2.6 C5.75 -8.04, 35.05 -49.03, 49.09 -63.41 C63.13 -77.78, 79.19 -87.3, 81.5 -83.65 C83.82 -79.99, 72.22 -55.79, 62.98 -41.48 C53.74 -27.18, 37.06 -4.02, 26.07 2.19 C15.07 8.4, 0.97 -3.43, -2.99 -4.2" stroke="#000000" stroke-width="4" fill="none"/></g></g><g stroke-linecap="round"><g transform="translate(156.98831170618396 754.829174573573) rotate(356.91700128500054 42.44362685943416 -40.92771325688403)" fill-rule="evenodd"><path d="M-3.35 3.71 L49.74 -67.64 L75.22 -76.69 L82.19 -86.42 L87.31 -78.33 L85.93 -77.72 L66.4 -50.05 L36.15 -8.28 L24.75 2.78 L16.96 4.71 L0.27 -2.1" stroke="none" stroke-width="0" fill="gold" fill-rule="evenodd"/><path d="M-2.31 1.17 C5.82 -10.02, 33.71 -52.95, 48.64 -66.71 C63.58 -80.47, 85.54 -85.39, 87.31 -81.37 C89.08 -77.35, 69.64 -56.41, 59.27 -42.6 C48.9 -28.79, 35.14 -5.69, 25.08 1.5 C15.01 8.69, 2.97 0.63, -1.13 0.53 M1.63 -0.66 C9.33 -11.5, 31.73 -50.75, 45.93 -63.64 C60.13 -76.52, 84.71 -81.74, 86.82 -77.99 C88.92 -74.25, 69.36 -54.71, 58.56 -41.17 C47.77 -27.63, 31.55 -3.35, 22.05 3.24 C12.55 9.83, 4.89 -0.8, 1.59 -1.63" stroke="#000000" stroke-width="4" fill="none"/></g></g></svg>