<svg xmlns="http://www.w3.org/2000/svg" xmlns:xlink="http://www.w3.org/1999/xlink" width="700pt" height="700pt" version="1.1" viewBox="0 0 700 700">
 
 <g>
  <path d="m131.87 49.746h212.59 116.92 53.145c30.508 0 38.535-6.1328 57.359 22.871 21.914 33.77 14.859 76.012 14.871 115.87 0.011719 34.441 0.019532 68.887 0.03125 103.33 0.011719 37.887 0.023438 75.773 0.035156 113.66 0.011719 37.078 14.852 86.898-28.855 101.29-27.648 9.1016-71.941 1.8203-101.17 2.0469-35.383 0.27734-70.766 0.55078-106.15 0.82812-35.383 0.27734-70.766 0.55078-106.15 0.82812-25.816 0.20312-74.426 9.5078-98.051 0.42969-46.773-17.973-33.188-89.992-33.27-127.5-0.085937-38.34-0.16797-76.68-0.25391-115.02-0.078125-34.855-0.15234-69.707-0.23047-104.56-0.042968-24.176-13.539-116.23 27.176-114.57 17.324 0.70312 17.293-26.223 0-26.922-80.203-3.25-54.184 98.34-54.066 151.96 0.10547 48.797 0.21484 97.594 0.32031 146.39 0.11719 52.668-6.3594 110.18 0.91406 162.34 9.7734 70.117 82.688 54.973 136.24 54.555 107.97-0.84375 217.12 2.8789 324.92-3.3516 25.84-1.4922 50.086-0.13281 62.543-25.309 15.062-30.441 3.0117-90.562 3-124.09-0.015625-48.219-0.03125-96.441-0.042969-144.66-0.015624-52.492 6.0898-109.14-0.47656-161.21-9.4102-74.652-83.27-56.113-141.21-56.113h-340.14c-17.32 0-17.348 26.922 0.003906 26.922z"/>
  <path d="m280.87 134.89c16.406 10.082 9.293 37.227-7.1406 43.617-16.469 6.4023-44.266 1.3555-50.004-17.062-3.9414-12.656-5.0078-34.961 10.109-39.34 14.52-4.207 29.863 7.5312 41.23 14.93 14.566 9.4766 28.074-13.82 13.59-23.246-24.484-15.934-59.574-30.918-83.559-5.043-19.605 21.152-12.223 67.27 8.6289 84.895 22.09 18.672 66.984 20.238 87.281-1.8672 21.809-23.754 22.375-62.352-6.5508-80.129-14.801-9.1016-28.34 14.18-13.586 23.246z"/>
  <path d="m110.4 410.88c13.094-22.137 76.559-106.28 107.18-98.227 10.539 2.7734 37.125 33.102 45.375 40.461 17.184 15.324 34.039 31.156 51.984 45.594 28.492 22.926 58.832 42.223 85.758 67.219 25.926 24.066 50.484 48.137 79.887 68.059 14.383 9.7461 27.867-13.57 13.59-23.246-42.398-28.727-74.863-68.586-115.7-99.199-49.566-37.16-95.469-76.84-141.86-117.92-16.152-14.305-24.75-25.566-44.355-14.105-20.277 11.852-40.254 43.117-56.387 60.703-16.832 18.344-35.996 35.559-48.723 57.074-8.8477 14.949 14.418 28.508 23.242 13.59z"/>
  <path d="m315.9 367.43c43.777-37.238 85.227-76.875 123.34-119.93 4.8555-5.4844 18.215-27.41 24.883-29.066 14.738-3.6602 31.77 17.59 41.043 25.555 26.113 22.438 49.02 50.941 72.934 75.797 12.035 12.508 31.059-6.543 19.039-19.039-31.77-33.02-64.699-79.332-102.11-106.11-13.531-9.6914-18.949-13.824-36.094-7.2031-22.141 8.5508-48.414 52.184-64.57 69.254-30.73 32.469-63.461 62.742-97.504 91.703-13.219 11.242 5.9062 30.211 19.035 19.039z"/>

 </g>
</svg>